<svg width="360" height="64" viewBox="0 0 360 64" fill="none" xmlns="http://www.w3.org/2000/svg">
<path d="M105.218 19.8186H90.415V44.7847H86.8962V16.9798H108.737V44.7847H105.218V19.8186Z" fill="#27AE60"/>
<path d="M117.381 36.9293C117.139 39.7293 116.626 41.7774 115.844 43.0736C115.062 44.344 113.836 44.9792 112.164 44.9792C111.813 44.9792 111.449 44.9532 111.072 44.9014L110.748 44.7847V41.7126L111.031 41.7903C111.301 41.8422 111.584 41.8681 111.881 41.8681C112.312 41.8681 112.663 41.7515 112.932 41.5181C113.229 41.2589 113.458 40.857 113.62 40.3126C113.809 39.7682 113.943 39.2626 114.024 38.796C114.105 38.3034 114.2 37.6164 114.307 36.7349C114.415 35.8016 114.577 33.1572 114.793 28.8017L114.914 24.4463H128.868V44.7847H125.511V27.1684H117.907C117.664 32.7683 117.489 36.022 117.381 36.9293Z" fill="#27AE60"/>
<path d="M138.767 45.1347C136.691 45.1347 134.992 44.6421 133.671 43.657C132.377 42.6459 131.73 41.1422 131.73 39.146C131.73 38.0312 132.013 37.059 132.579 36.2294C133.172 35.3738 133.981 34.7127 135.006 34.2461C136.031 33.7535 137.15 33.4035 138.363 33.1961C139.576 32.9628 140.898 32.8461 142.327 32.8461H145.36V31.3683C145.36 29.735 145.01 28.5684 144.308 27.8684C143.607 27.1425 142.448 26.7796 140.83 26.7796C137.918 26.7796 136.3 27.9981 135.977 30.435H132.62C132.835 28.2573 133.712 26.6629 135.249 25.6518C136.813 24.6148 138.727 24.0963 140.992 24.0963C146.142 24.0963 148.717 26.5203 148.717 31.3683V44.7847H145.36V42.2181C143.742 44.1625 141.545 45.1347 138.767 45.1347ZM139.091 42.5681C140.925 42.5681 142.421 42.1403 143.58 41.2848C144.767 40.4033 145.36 39.1978 145.36 37.6682V35.1405H142.448C137.541 35.1405 135.087 36.4756 135.087 39.146C135.087 41.4274 136.422 42.5681 139.091 42.5681Z" fill="#27AE60"/>
<path d="M166.393 35.7238H155.999V44.7847H152.642V24.4463H155.999V33.0016H166.393V24.4463H169.75V44.7847H166.393V35.7238Z" fill="#27AE60"/>
<path d="M183.009 45.1347C179.99 45.1347 177.522 44.1884 175.608 42.2959C173.72 40.4033 172.777 37.9145 172.777 34.8294V34.5183C172.777 31.4591 173.693 28.9573 175.527 27.0129C177.387 25.0685 179.774 24.0963 182.686 24.0963C185.382 24.0963 187.634 24.9389 189.44 26.624C191.274 28.2832 192.191 30.811 192.191 34.2072V35.2572H176.255C176.417 40.0533 178.682 42.4514 183.05 42.4514C186.366 42.4514 188.24 41.2718 188.672 38.9126H192.029C191.651 40.9348 190.667 42.4774 189.076 43.5403C187.485 44.6032 185.463 45.1347 183.009 45.1347ZM188.753 32.6517C188.456 28.7369 186.434 26.7796 182.686 26.7796C180.987 26.7796 179.585 27.2981 178.48 28.3351C177.374 29.3721 176.673 30.811 176.376 32.6517H188.753Z" fill="#27AE60"/>
<path d="M209.319 27.1684H202.483V44.7847H199.126V27.1684H192.291V24.4463H209.319V27.1684Z" fill="#27AE60"/>
<path d="M216.864 45.1347C214.788 45.1347 213.089 44.6421 211.768 43.657C210.474 42.6459 209.827 41.1422 209.827 39.146C209.827 38.0312 210.11 37.059 210.676 36.2294C211.269 35.3738 212.078 34.7127 213.103 34.2461C214.127 33.7535 215.246 33.4035 216.46 33.1961C217.673 32.9628 218.994 32.8461 220.423 32.8461H223.457V31.3683C223.457 29.735 223.106 28.5684 222.405 27.8684C221.704 27.1425 220.545 26.7796 218.927 26.7796C216.015 26.7796 214.397 27.9981 214.073 30.435H210.716C210.932 28.2573 211.808 26.6629 213.345 25.6518C214.909 24.6148 216.824 24.0963 219.089 24.0963C224.239 24.0963 226.814 26.5203 226.814 31.3683V44.7847H223.457V42.2181C221.839 44.1625 219.641 45.1347 216.864 45.1347ZM217.188 42.5681C219.021 42.5681 220.518 42.1403 221.677 41.2848C222.864 40.4033 223.457 39.1978 223.457 37.6682V35.1405H220.545C215.637 35.1405 213.184 36.4756 213.184 39.146C213.184 41.4274 214.518 42.5681 217.188 42.5681Z" fill="#27AE60"/>
<path d="M241.052 45.1347C237.871 45.1347 235.147 44.344 232.882 42.7625C230.644 41.1811 229.364 38.9386 229.04 36.0349H232.518C233.246 40.3126 236.078 42.4514 241.012 42.4514C243.87 42.4514 246.202 41.5052 248.009 39.6126C249.816 37.6941 250.8 35.1405 250.962 31.9517H236.927V29.1906H250.962C250.719 26.0536 249.762 23.6296 248.09 21.9186C246.418 20.1816 244.14 19.3131 241.255 19.3131C238.855 19.3131 236.927 19.8834 235.471 21.0241C234.015 22.1648 233.098 23.863 232.721 26.1185H229.444C229.93 22.9556 231.211 20.5704 233.287 18.9631C235.363 17.3557 238.046 16.552 241.335 16.552C245.488 16.552 248.737 17.8223 251.083 20.363C253.456 22.9037 254.642 26.3259 254.642 30.6295V30.9406C254.642 35.0627 253.361 38.4589 250.8 41.1292C248.238 43.7996 244.989 45.1347 241.052 45.1347Z" fill="#27AE60"/>
<path d="M261.213 34.4016V44.7847H257.856V24.4463H261.213V33.935L269.99 24.4463H273.913L264.853 34.0127L274.682 44.7847H270.597L261.213 34.4016Z" fill="#27AE60"/>
<path d="M284.554 42.4514C286.658 42.4514 288.329 41.7515 289.57 40.3515C290.837 38.9515 291.471 37.0979 291.471 34.7905V34.5183C291.471 32.1591 290.837 30.2795 289.57 28.8795C288.329 27.4795 286.658 26.7796 284.554 26.7796C282.424 26.7796 280.739 27.4795 279.499 28.8795C278.258 30.2795 277.638 32.1461 277.638 34.4794V34.7905C277.638 37.1497 278.245 39.0163 279.458 40.3904C280.699 41.7644 282.397 42.4514 284.554 42.4514ZM284.514 45.1347C281.521 45.1347 279.04 44.1625 277.072 42.2181C275.131 40.2478 274.16 37.7719 274.16 34.7905V34.4794C274.16 31.4461 275.131 28.9573 277.072 27.0129C279.04 25.0685 281.534 24.0963 284.554 24.0963C287.574 24.0963 290.055 25.0685 291.996 27.0129C293.965 28.9314 294.949 31.4072 294.949 34.4405V34.7516C294.949 37.8108 293.965 40.3126 291.996 42.257C290.028 44.1755 287.534 45.1347 284.514 45.1347Z" fill="#27AE60"/>
<path d="M317.134 36.7738C317.134 39.3663 316.285 41.3496 314.586 42.7237C312.914 44.0977 310.595 44.7847 307.629 44.7847H297.72V16.9798H314.788V19.7408H301.158V28.724H307.589C313.952 28.724 317.134 31.3554 317.134 36.6182V36.7738ZM307.549 42.1403C311.647 42.1403 313.696 40.3515 313.696 36.7738V36.6182C313.696 33.1183 311.539 31.3683 307.225 31.3683H301.158V42.1403H307.549Z" fill="#27AE60"/>
<path d="M325.569 42.6848L317.277 24.4463H320.877L327.348 39.0293L333.213 24.4463H336.651L324.962 51.8623H321.565L325.569 42.6848Z" fill="#27AE60"/>
<path d="M341.233 27.6351V44.7847H338.442V24.4463H343.175L349.201 39.7293L355.389 24.4463H360V44.7847H356.684V27.6351L349.686 44.7847H348.15L341.233 27.6351Z" fill="#27AE60"/>
<path d="M36.3275 0.0142193C30.7845 0.383929 26.6177 1.64474 22.9513 4.06206C20.1317 5.92957 17.0234 9.24747 15.9167 11.57C14.608 14.3191 14.6753 17.5422 16.1188 20.3862C16.5807 21.3057 17.3794 22.4243 17.5623 22.4243C17.6104 22.4243 17.9953 21.7418 18.4187 20.9075C19.4677 18.8504 20.3145 17.419 21.7387 15.3145C24.26 11.57 27.4357 8.23315 30.8904 5.67362C31.9778 4.86784 32.738 4.49813 32.6514 4.81096C32.6418 4.87732 32.151 5.37027 31.564 5.90113C23.3169 13.3712 18.5438 20.936 16.0226 30.5484C15.9648 30.7759 15.8782 30.956 15.8205 30.956C15.7628 30.956 15.6184 30.7285 15.4933 30.4441C14.3866 27.9699 12.9528 25.4009 11.9905 24.178C11.3168 23.3154 9.83488 21.9124 8.53575 20.9075C7.90062 20.4146 7.37135 19.9501 7.37135 19.8837C7.34248 19.3434 9.40184 20.6516 10.9608 22.1778C12.1829 23.3628 12.8469 24.1591 13.7034 25.4673C14.608 26.8513 14.5214 26.766 14.8293 26.5954C15.0121 26.5006 15.1757 26.2636 15.3393 25.8844C15.6473 25.1355 15.6858 23.5239 15.4067 22.7087C14.8967 21.2298 14.0883 20.2724 12.4139 19.1822C10.6432 18.0352 9.26711 17.4095 7.40984 16.9261C5.74503 16.4805 4.59025 16.3573 2.16521 16.3667H0L0.240579 16.5563C0.375304 16.6606 0.866085 17.0114 1.33762 17.3337C3.93588 19.1064 5.37935 21.1824 6.0626 24.0832C6.51489 25.9981 6.95755 26.8892 7.88138 27.7045C9.40184 29.0506 11.6825 29.354 13.0201 28.3965C13.5013 28.0553 13.7515 28.0363 13.944 28.3207C14.2423 28.7947 15.1854 31.1456 15.3682 31.904C15.5414 32.634 15.5607 32.871 15.4933 34.5109C15.3682 37.5445 15.4644 39.0423 15.936 41.4311C16.4749 44.1139 17.187 46.1994 18.3899 48.5883C19.8237 51.4228 21.5751 53.7737 23.9713 56.0773C28.4076 60.3337 33.6715 62.8838 39.9843 63.8223C41.5913 64.0592 45.9218 64.0592 47.5866 63.8223C57.0365 62.4572 64.9756 56.8262 69.1328 48.5409C70.1625 46.5028 70.7303 44.9766 71.2692 42.8531C72.2989 38.7579 72.4913 34.9281 71.8754 31.2404C70.432 22.7087 64.302 15.0585 56.1512 11.6364C53.5626 10.5462 50.8873 9.90157 47.9234 9.62666C45.8063 9.43707 43.1599 9.56978 42.4382 9.91105C42.2265 10.0153 41.8127 10.1386 41.5047 10.1954C41.0717 10.2808 40.86 10.3945 40.4366 10.7642C40.042 11.096 39.7822 11.2382 39.4839 11.2856C38.8584 11.3899 38.3676 11.6743 37.6458 12.3663C36.8952 13.0773 36.7701 13.2574 36.8567 13.5134C36.953 13.7977 37.2224 13.7409 37.8287 13.3238C38.6563 12.755 39.6378 12.4895 41.2738 12.3758C42.0148 12.3284 42.8905 12.2146 43.208 12.1388C44.026 11.9302 45.2385 11.3425 46.2489 10.66L47.115 10.0722L48.0004 10.1386C50.4831 10.3092 53.3027 10.9728 55.9395 12.0061C56.411 12.1957 56.3533 12.4611 55.747 12.8498C55.4295 13.0583 55.0157 13.466 54.6788 13.9115C54.0726 14.7078 53.9282 14.7742 53.5144 14.4518C53.2065 14.2149 53.2065 14.1675 53.5048 13.8167C53.6395 13.6555 53.7454 13.5134 53.7454 13.4754C53.7454 13.447 53.4952 13.3522 53.1969 13.2764C52.8889 13.191 52.35 13.0394 51.9844 12.9256C51.2626 12.7076 50.6275 12.7265 50.2426 12.9825C50.1078 13.0678 49.6556 13.5323 49.2225 14.0253C48.5104 14.85 48.1062 15.1913 47.2979 15.6179C47.0284 15.7695 46.9996 15.8264 47.0284 16.1772C47.0477 16.471 47.1247 16.6227 47.3075 16.7554C47.5192 16.9166 47.5962 16.9261 48.0004 16.8218C48.4045 16.708 48.4623 16.7175 48.6547 16.8881C48.7702 16.9829 48.9434 17.2484 49.0397 17.4759C49.1936 17.8361 49.2514 17.874 49.4342 17.8266C49.8384 17.7034 49.9827 17.4948 50.0405 16.9355C50.2137 15.2671 50.6564 14.1769 51.1471 14.1769C51.5032 14.1769 51.5706 14.4329 51.3492 14.9448C51.099 15.5515 51.0894 15.8074 51.3396 16.0255C51.4936 16.1582 51.6187 16.1772 51.994 16.1298C52.4366 16.0729 53.0718 16.2056 53.0718 16.3478C53.0718 16.3857 52.9082 16.4615 52.7157 16.5089C52.3308 16.6037 52.1287 16.8502 51.5032 17.9404C51.2241 18.4239 51.1471 18.4997 50.8103 18.5566C50.1271 18.6703 48.751 18.6419 48.4045 18.4997C48.1832 18.4049 48.0485 18.3954 48.01 18.4618C47.9715 18.5092 47.5096 18.7651 46.9707 19.0116C46.4414 19.2581 45.9121 19.5519 45.8063 19.6752C45.5561 19.9501 44.69 20.3767 44.0549 20.5283L43.5545 20.6611L43.8817 21.0213C44.1511 21.3057 44.2185 21.4574 44.2185 21.7607C44.2185 22.2157 43.9971 22.7845 43.7854 22.8604C43.6507 22.9172 42.5344 22.7276 41.8608 22.538C41.447 22.4243 41.1679 22.576 41.1006 22.9457C41.0621 23.1163 40.9273 23.5239 40.7926 23.8463C40.4654 24.6331 40.5039 25.0502 40.9273 25.3251C41.4374 25.6664 42.0821 25.7612 42.7365 25.5905C43.3716 25.4294 43.593 25.2682 43.6892 24.908C43.795 24.4719 44.1896 24.0643 44.7574 23.7894C45.1519 23.5998 45.3347 23.4481 45.4502 23.1921L45.6234 22.8509L46.2201 22.8793C46.6627 22.8983 46.9033 22.8604 47.192 22.7087C47.4037 22.6044 47.6636 22.5191 47.779 22.5191C48.0292 22.5191 50.2618 24.5572 50.4254 24.9364L50.5505 25.2208L50.6179 24.8701C50.7045 24.415 50.6082 24.1591 50.2907 23.9979C49.9731 23.8273 49.2899 23.1163 49.0878 22.7276C48.8183 22.2157 49.0782 21.9787 49.5208 22.3105C49.6459 22.4053 50.0886 22.6897 50.5024 22.9362C51.2915 23.4102 51.763 23.9221 51.8689 24.4245C51.9074 24.5951 52.0325 24.7563 52.2057 24.8416C52.504 24.9933 52.8793 25.0312 52.8889 24.908C52.9467 24.3202 53.091 24.1496 53.5818 24.0643C54.0341 23.9979 54.1881 24.1212 54.3709 24.7184C54.6404 25.619 54.9387 25.8465 56.0261 25.9697C56.3725 26.0171 56.7286 25.9792 57.1616 25.8654C57.6332 25.7422 57.8352 25.7232 57.9603 25.7991C58.1913 25.9507 58.403 27.3348 58.2683 27.8372C58.0951 28.4724 57.9507 28.5103 55.9395 28.4724C54.265 28.4439 54.1496 28.425 53.5337 28.1785C52.7542 27.8562 52.5617 27.8941 52.2923 28.406C51.8689 29.2402 51.484 29.3445 50.7045 28.8515C50.4447 28.6809 49.7614 28.3112 49.1744 28.0173C48.0196 27.4391 48.0677 27.5149 48.2217 26.6712C48.2698 26.3963 48.2409 26.292 48.0774 26.1309C47.8945 25.9508 47.7694 25.9318 46.6916 25.9318C45.4502 25.9318 44.3339 26.0361 43.208 26.2636C42.8327 26.3394 42.2746 26.3868 41.957 26.3868C40.8792 26.3584 39.8495 26.9935 39.4069 27.9794C39.0701 28.7094 38.7717 28.9843 38.0789 29.1928C37.7806 29.2876 37.4341 29.4203 37.3186 29.4962C37.1551 29.6004 36.3371 30.5484 35.7693 31.2878C35.7308 31.3352 35.5865 31.5154 35.4518 31.686C35.2112 31.9704 35.2015 32.0273 35.24 32.8236C35.2785 33.5819 35.2593 33.7526 34.9417 34.729C34.5376 35.9708 34.5279 36.1794 34.7878 36.7576C34.8936 36.9946 35.0668 37.5634 35.1823 38.0279C35.6731 40.085 36.7798 41.1088 39.0989 41.6207C41.0236 42.0473 42.1014 42.0094 43.1599 41.4785C43.6699 41.2226 44.0741 41.2321 44.3628 41.5259C44.4975 41.6492 44.6034 41.8103 44.6034 41.8862C44.6034 41.9525 44.7189 42.1137 44.8536 42.2464C45.0557 42.436 45.2 42.4739 45.7389 42.4834C46.5954 42.4929 46.5954 42.4929 46.8167 42.7109C47.0862 42.9763 47.0862 44.1044 46.8167 44.6922C46.7109 44.9197 46.6243 45.1662 46.6243 45.2515C46.6243 45.3273 46.9033 45.6875 47.2498 46.0383C47.9811 46.7872 48.3757 47.5361 48.6066 48.6357C48.7991 49.5363 48.7702 49.7354 48.2987 50.3231C48.01 50.6834 47.933 50.8824 47.8945 51.2711C47.8464 51.8873 48.0004 52.2854 48.6451 53.1386C49.107 53.7548 49.1263 53.8022 49.1551 54.4847C49.1744 55.1009 49.2129 55.2526 49.4823 55.6602C49.7903 56.1247 50.1656 56.8357 50.3677 57.3381C50.5313 57.7552 50.7815 57.7837 52.2731 57.5941C53.7839 57.395 53.986 57.3286 54.9579 56.7219C55.901 56.1152 56.2859 55.7645 56.6901 55.1199C56.9307 54.7407 57.1905 54.4658 57.5177 54.2762C57.9988 53.9823 58.1817 53.7074 58.3645 52.968C58.4992 52.4466 58.8553 52.0579 59.7214 51.4797C60.7607 50.7971 61.0398 50.5127 61.2034 49.9724C61.3862 49.3657 61.3862 48.9296 61.1841 47.2991L61.0301 45.953L61.7807 44.787C62.7816 43.2323 62.9067 43.0806 63.7535 42.18C64.5522 41.3363 65.0334 40.5306 65.4279 39.3551C65.7455 38.4261 66.0342 37.0515 65.938 36.9567C65.8995 36.9188 65.5049 37.061 65.0719 37.279C64.6388 37.4876 64.148 37.6961 63.9748 37.7246C63.5322 37.8194 63.0895 37.5824 62.7623 37.0705C62.6083 36.843 62.2811 36.5017 62.0213 36.3121C61.4343 35.8855 60.5875 34.9849 60.2603 34.4446C60.1256 34.2171 59.9235 33.762 59.808 33.4303C59.7021 33.1079 59.5001 32.6624 59.3557 32.4444C58.7976 31.5627 58.2394 30.7096 58.0662 30.4631C57.97 30.3209 57.8834 30.1313 57.8834 30.046C57.8834 29.8659 58.1528 29.6384 58.3645 29.6384C58.5281 29.6384 59.8465 31.3637 60.8088 32.8236C61.1552 33.3544 61.6749 34.0559 61.9732 34.3687C62.2619 34.6816 62.5025 35.0039 62.5025 35.0797C62.5025 35.3926 62.9067 36.4164 63.0895 36.568C63.282 36.7292 63.3108 36.7292 63.6573 36.5491C64.6003 36.0751 66.5923 34.1128 67.2467 33.0131C67.5258 32.5392 67.7952 31.5438 67.7952 30.9276C67.7952 30.5863 67.7664 30.5579 67.2948 30.3399C66.6308 30.0365 66.371 30.046 65.9091 30.3873C65.4087 30.757 65.1777 30.7475 64.6966 30.3114C64.2828 29.9512 63.1761 28.3776 63.1761 28.1595C63.1761 27.9984 63.4359 27.7329 63.5995 27.7329C63.6669 27.7329 63.8401 27.8657 64.0037 28.0268C64.5907 28.643 65.2066 29.0601 65.5338 29.0601C65.707 29.0601 65.8995 28.9937 65.9668 28.9179C66.14 28.7188 66.3325 28.7378 66.6597 29.0127C67.0735 29.354 67.468 29.3161 68.4496 28.8515C69.1328 28.5292 69.4119 28.4534 69.9797 28.4155C70.788 28.3681 70.7495 28.3302 71.0575 29.5625C71.5579 31.5817 71.683 32.7477 71.683 35.4589C71.6926 37.4876 71.6541 38.246 71.5194 39.1086C70.942 42.654 69.3061 46.7113 67.1697 49.8681C66.1593 51.3659 65.3221 52.3613 63.946 53.7169C61.7134 55.9256 59.4134 57.5182 56.3918 58.9686C49.9058 62.059 43.439 62.751 37.386 60.9973C33.0652 59.7365 29.0427 57.3571 25.7516 54.0961C22.5952 50.9677 20.2953 47.3181 18.8422 43.1375C17.8606 40.2841 17.4372 37.6772 17.4372 34.4635C17.4372 30.7001 18.0242 27.695 19.2271 25.2682C19.7082 24.3013 19.8718 24.2349 20.6898 24.6899C22.4701 25.6758 24.5006 25.837 26.8486 25.1734C29.6201 24.3961 31.5929 22.8888 32.9401 20.5283C33.9313 18.7936 34.6434 16.016 35.0283 12.3758C35.2689 10.0817 35.3459 9.61719 35.6057 8.74505C36.4622 5.83477 38.5889 3.69235 41.9666 2.35571C43.0637 1.91964 43.7469 1.72057 45.2289 1.4267C46.4799 1.18023 46.4607 1.15179 44.7381 0.725202C42.8616 0.260695 41.1487 0.0521382 38.8776 0.0142193C37.7709 -0.00474016 36.6162 -0.00474016 36.3275 0.0142193ZM57.5466 21.2867C57.4696 21.7512 57.6428 22.0735 58.1047 22.2821C58.5377 22.4812 59.2306 22.9931 59.298 23.1542C59.3268 23.2301 59.298 23.4007 59.2402 23.5239C59.1344 23.7609 59.1055 23.7609 58.3356 23.7325C57.9026 23.7135 57.3348 23.6377 57.0846 23.5619C56.6323 23.4291 56.6035 23.4291 56.1223 23.6851C55.4968 24.0074 55.0926 24.0169 54.7462 23.7135C54.419 23.4386 54.4094 23.0879 54.7077 22.2916C54.9387 21.6944 55.1889 21.3815 55.4391 21.3815C55.5257 21.3815 55.7566 21.5522 55.9491 21.7607C56.3821 22.2252 56.5361 22.2442 56.5361 21.8271C56.5361 21.4668 56.6997 21.2772 57.2097 21.0687C57.3926 20.9834 57.5658 20.917 57.5754 20.917C57.5947 20.9075 57.585 21.0782 57.5466 21.2867Z" fill="#27AE60"/>
<path d="M44.6398 17.7848C44.2869 18.0283 44.2608 18.1044 44.4829 18.3023C44.7443 18.5306 44.679 18.9034 44.2869 19.459L44.0125 19.8623H44.9795C45.829 19.8623 45.9858 19.8395 46.1557 19.7025C46.3387 19.5503 46.3256 19.5122 45.9336 19.185C45.6199 18.9187 45.5154 18.736 45.4762 18.3784C45.4239 17.9674 45.1886 17.6554 44.9273 17.6554C44.875 17.6554 44.7443 17.7163 44.6398 17.7848Z" fill="#27AE60"/>
<path d="M43.5318 18.909C43.3609 19.0332 42.8843 19.7207 42.8843 19.8448C42.8843 19.9212 43.5228 19.7302 43.6576 19.6061C43.7296 19.5392 43.8555 19.3674 43.9274 19.2146C44.1433 18.7753 43.9274 18.613 43.5318 18.909Z" fill="#27AE60"/>
<path d="M20.6591 31.0104C20.5085 31.5692 20.3226 34.1035 20.3137 35.7127C20.3137 39.8368 21.1461 43.643 22.8816 47.3817C23.6609 49.0776 24.9271 51.2071 25.4761 51.7467C25.6621 51.9298 25.6621 51.9298 25.6621 51.4962C25.6621 50.9662 25.786 50.8313 26.4944 50.5904C26.7866 50.4941 27.0611 50.3303 27.132 50.2146C27.2648 49.993 27.3002 48.9234 27.2117 47.796C27.1408 46.9192 27.2382 46.6012 27.8226 45.84C28.2211 45.3293 28.2831 45.0594 28.1503 44.5487C27.9732 43.8935 27.4684 43.1612 26.2465 41.7736C24.2541 39.5188 23.9796 39.1719 23.9708 38.9021C23.9619 38.2854 23.8645 37.7747 23.6963 37.4086C23.3864 36.7244 22.8993 35.8861 22.3769 35.1249C21.9607 34.5082 21.8456 34.248 21.6951 33.5639C21.5888 33.1013 21.5003 32.4461 21.5003 32.0992C21.5003 31.5211 21.4737 31.4343 21.2435 31.1742C20.969 30.8851 20.721 30.808 20.6591 31.0104Z" fill="#27AE60"/>
</svg>
