<svg width="288" height="70" viewBox="0 0 288 70" fill="none" xmlns="http://www.w3.org/2000/svg">
<mask id="mask0_214_1773" style="mask-type:alpha" maskUnits="userSpaceOnUse" x="0" y="0" width="288" height="70">
<rect width="288" height="70" rx="10" fill="#E0E0E0"/>
</mask>
<g mask="url(#mask0_214_1773)">
<rect width="290" height="70" rx="10" fill="#F2F2F2"/>
<rect width="351.567" height="20.89" transform="translate(19 78.9089) rotate(-16.68)" fill="#27AE60"/>
<path d="M35.0343 86.6421C35.4239 86.5254 35.6839 86.3014 35.8142 85.97C35.951 85.6367 35.9476 85.2306 35.8041 84.7517L35.784 84.6846C35.6405 84.2056 35.42 83.8646 35.1225 83.6614C34.8295 83.45 34.4882 83.4026 34.0986 83.5193C33.7155 83.6341 33.4555 83.8582 33.3187 84.1914C33.1801 84.5183 33.1825 84.9213 33.326 85.4002L33.349 85.4769C33.4944 85.9622 33.7126 86.3074 34.0038 86.5125C34.2949 86.7176 34.6384 86.7608 35.0343 86.6421ZM35.3405 87.6987C34.5741 87.9284 33.8785 87.8828 33.2534 87.562C32.6092 87.247 32.1714 86.7031 31.9398 85.9304L31.9169 85.8538C31.6853 85.081 31.7491 84.3764 32.1082 83.7399C32.4583 83.12 33.0166 82.6952 33.7829 82.4656C34.5556 82.2341 35.2545 82.2787 35.8795 82.5994C36.5231 82.9355 36.9587 83.4836 37.1864 84.2435L37.2094 84.3201C37.4409 85.0929 37.3771 85.7975 37.0181 86.434C36.6724 87.0456 36.1132 87.4672 35.3405 87.6987ZM40.4663 81.6636L38.7037 82.1917L39.9092 86.215L38.5394 86.6254L37.0382 81.6155L41.5404 80.2665L43.0416 85.2764L41.6718 85.6868L40.4663 81.6636ZM46.6794 79.8019L45.1947 80.2468L46.4002 84.27L45.0208 84.6834L43.8152 80.6601L42.3305 81.105L42.0348 80.1183L46.3838 78.8152L46.6794 79.8019ZM50.3465 82.0541C50.7361 81.9374 50.996 81.7133 51.1264 81.382C51.2632 81.0487 51.2598 80.6426 51.1163 80.1636L51.0962 80.0966C50.9527 79.6176 50.7322 79.2765 50.4347 79.0734C50.1416 78.8619 49.8004 78.8146 49.4108 78.9313C49.0276 79.0461 48.7677 79.2701 48.6309 79.6034C48.4922 79.9303 48.4946 80.3332 48.6382 80.8122L48.6611 80.8888C48.8065 81.3742 49.0248 81.7194 49.3159 81.9245C49.607 82.1295 49.9506 82.1727 50.3465 82.0541ZM50.6527 83.1107C49.8863 83.3403 49.1906 83.2947 48.5656 82.974C47.9214 82.659 47.4835 82.1151 47.252 81.3424L47.229 81.2657C46.9975 80.493 47.0613 79.7884 47.4204 79.1519C47.7705 78.5319 48.3287 78.1072 49.0951 77.8776C49.8678 77.646 50.5667 77.6906 51.1917 78.0114C51.8353 78.3475 52.2709 78.8955 52.4986 79.6555L52.5216 79.7321C52.7531 80.5048 52.6893 81.2094 52.3302 81.846C51.9846 82.4576 51.4254 82.8792 50.6527 83.1107ZM53.8126 78.1447L54.8861 81.7274L53.8419 82.0402L52.3408 77.0303L54.1704 76.4821L56.2346 79.225L56.479 75.7903L58.1841 75.2794L59.6853 80.2894L58.325 80.697L57.2515 77.1143L56.9456 81.1103L56.2463 81.3198L53.8126 78.1447ZM64.6016 77.7828C64.9912 77.6661 65.2511 77.442 65.3815 77.1107C65.5183 76.7774 65.5149 76.3713 65.3714 75.8923L65.3513 75.8253C65.2078 75.3463 64.9873 75.0052 64.6898 74.8021C64.3967 74.5906 64.0554 74.5432 63.6659 74.66C63.2827 74.7748 63.0228 74.9988 62.886 75.3321C62.7473 75.659 62.7497 76.0619 62.8933 76.5409L62.9162 76.6175C63.0616 77.1029 63.2799 77.4481 63.571 77.6531C63.8621 77.8582 64.2057 77.9014 64.6016 77.7828ZM64.9077 78.8394C64.1414 79.069 63.4457 79.0234 62.8207 78.7027C62.1765 78.3876 61.7386 77.8438 61.5071 77.0711L61.4841 76.9944C61.2526 76.2217 61.3164 75.5171 61.6755 74.8806C62.0256 74.2606 62.5838 73.8359 63.3502 73.6063C64.1229 73.3747 64.8218 73.4193 65.4468 73.7401C66.0903 74.0762 66.526 74.6242 66.7537 75.3842L66.7766 75.4608C67.0082 76.2335 66.9444 76.9381 66.5853 77.5747C66.2397 78.1863 65.6805 78.6078 64.9077 78.8394ZM70.65 72.6195L69.1652 73.0644L70.3707 77.0877L68.9913 77.501L67.7858 73.4777L66.301 73.9226L66.0053 72.9359L70.3543 71.6328L70.65 72.6195ZM73.7298 70.2874L72.6135 71.6136L72.2174 70.2917L73.4621 68.6973L74.8224 68.2897L76.8746 75.1389L75.3228 75.6039L73.7298 70.2874ZM80.7025 72.781C81.6412 72.4997 81.8934 71.6342 81.4591 70.1846L81.3672 69.878C80.9367 68.4411 80.2457 67.8652 79.2941 68.1504C78.3298 68.4393 78.0629 69.3022 78.4935 70.7391L78.5911 71.0648C79.0216 72.5017 79.7254 73.0737 80.7025 72.781ZM81.0287 74.009C80.1091 74.2846 79.2975 74.2006 78.594 73.7572C77.8732 73.326 77.3559 72.5867 77.0421 71.5393L76.9445 71.2137C76.6326 70.1727 76.6636 69.2657 77.0374 68.4925C77.4022 67.7359 78.0317 67.2237 78.9258 66.9558C79.8198 66.6879 80.6244 66.76 81.3394 67.1721C82.0685 67.6079 82.5899 68.3494 82.9037 69.3967L82.9985 69.7129C83.3123 70.7602 83.296 71.6698 82.9497 72.4417C82.5822 73.2129 81.9419 73.7354 81.0287 74.009ZM87.3563 70.7873C88.2951 70.506 88.5473 69.6405 88.1129 68.1908L88.0211 67.8843C87.5905 66.4474 86.8995 65.8715 85.9479 66.1566C84.9836 66.4456 84.7167 67.3085 85.1473 68.7454L85.2449 69.0711C85.6754 70.508 86.3792 71.08 87.3563 70.7873ZM87.6825 72.0153C86.7629 72.2908 85.9513 72.2069 85.2478 71.7635C84.527 71.3323 84.0097 70.593 83.6959 69.5456L83.5983 69.2199C83.2864 68.179 83.3174 67.272 83.6912 66.4988C84.0561 65.7422 84.6855 65.23 85.5796 64.9621C86.4736 64.6942 87.2782 64.7663 87.9932 65.1784C88.7223 65.6142 89.2438 66.3557 89.5576 67.403L89.6523 67.7191C89.9661 68.7665 89.9498 69.6761 89.6035 70.448C89.2361 71.2192 88.5957 71.7417 87.6825 72.0153ZM94.0101 68.7935C94.9489 68.5123 95.2011 67.6468 94.7667 66.1971L94.6749 65.8906C94.2443 64.4537 93.5533 63.8778 92.6018 64.1629C91.6375 64.4519 91.3706 65.3148 91.8011 66.7517L91.8987 67.0774C92.3292 68.5143 93.033 69.0863 94.0101 68.7935ZM94.3363 70.0216C93.4167 70.2971 92.6052 70.2132 91.9016 69.7698C91.1808 69.3386 90.6635 68.5993 90.3497 67.5519L90.2521 67.2262C89.9402 66.1853 89.9712 65.2782 90.345 64.5051C90.7099 63.7485 91.3393 63.2363 92.2334 62.9684C93.1275 62.7005 93.932 62.7726 94.647 63.1847C95.3761 63.6205 95.8976 64.362 96.2114 65.4093L96.3061 65.7254C96.6199 66.7728 96.6037 67.6824 96.2573 68.4543C95.8899 69.2255 95.2496 69.748 94.3363 70.0216ZM98.4485 63.2149L99.8184 62.8044L101.024 66.8277L102.336 66.4345L101.131 62.4112L102.501 62.0007L103.706 66.024L105.018 65.6308L103.813 61.6075L105.183 61.1971L106.684 66.207L99.9497 68.2248L98.4485 63.2149ZM110.326 60.7314L108.841 61.1763L110.046 65.1995L108.667 65.6128L107.461 61.5896L105.977 62.0345L105.681 61.0478L110.03 59.7447L110.326 60.7314Z" fill="white"/>
<path d="M122.56 54.8597C122.827 55.7521 122.325 56.6911 121.437 56.957C120.55 57.2228 119.614 56.7149 119.347 55.8224C119.079 54.93 119.582 53.991 120.469 53.7251C121.356 53.4592 122.292 53.9672 122.56 54.8597Z" fill="white"/>
<path d="M122.218 62.7132C119.296 63.5889 116.213 61.9158 115.332 58.9764L114.567 56.4217C117.489 55.546 120.572 57.219 121.453 60.1585L122.218 62.7132Z" fill="white"/>
<path d="M126.189 54.7952C123.267 55.6709 121.612 58.7636 122.492 61.7031L123.258 64.2578C126.18 63.3821 127.835 60.2894 126.955 57.35L126.189 54.7952Z" fill="white"/>
<path d="M135.233 56.6192C135.623 56.5025 135.883 56.2784 136.013 55.9471C136.15 55.6138 136.146 55.2077 136.003 54.7287L135.983 54.6617C135.839 54.1827 135.619 53.8416 135.321 53.6385C135.028 53.427 134.687 53.3796 134.297 53.4964C133.914 53.6112 133.654 53.8352 133.518 54.1685C133.379 54.4954 133.381 54.8983 133.525 55.3773L133.548 55.4539C133.693 55.9393 133.911 56.2845 134.203 56.4895C134.494 56.6946 134.837 56.7378 135.233 56.6192ZM135.539 57.6758C134.773 57.9054 134.077 57.8598 133.452 57.5391C132.808 57.224 132.37 56.6802 132.139 55.9075L132.116 55.8308C131.884 55.0581 131.948 54.3535 132.307 53.717C132.657 53.097 133.215 52.6723 133.982 52.4427C134.754 52.2111 135.453 52.2557 136.078 52.5765C136.722 52.9126 137.158 53.4606 137.385 54.2206L137.408 54.2972C137.64 55.0699 137.576 55.7745 137.217 56.4111C136.871 57.0227 136.312 57.4442 135.539 57.6758ZM141.282 51.4559L139.797 51.9008L141.002 55.9241L139.623 56.3374L138.417 52.3141L136.933 52.759L136.637 51.7723L140.986 50.4692L141.282 51.4559ZM143.152 50.8954L144.358 54.9187L142.988 55.3291L141.487 50.3192L144.926 49.2888L145.221 50.2754L143.152 50.8954ZM145.513 49.1128L146.902 48.6966L147.137 49.4821C147.206 49.1762 147.356 48.8982 147.587 48.648C147.823 48.3894 148.116 48.2075 148.467 48.1023C149.099 47.9129 149.683 47.9782 150.217 48.2983C150.776 48.6318 151.178 49.2041 151.421 50.0151L151.444 50.0918C151.685 50.8964 151.667 51.594 151.392 52.1846C151.132 52.7566 150.679 53.1393 150.034 53.3326C149.664 53.4435 149.314 53.4613 148.986 53.3858C148.655 53.304 148.384 53.1555 148.174 52.9402L148.914 55.4116L147.525 55.8278L145.513 49.1128ZM149.298 52.3735C149.681 52.2587 149.938 52.0462 150.068 51.7359C150.195 51.4192 150.186 51.015 150.038 50.5233L150.015 50.4466C149.866 49.9485 149.645 49.6043 149.351 49.4139C149.057 49.2235 148.728 49.1828 148.364 49.2919C147.988 49.4048 147.727 49.6256 147.582 49.9544C147.441 50.2749 147.444 50.6811 147.592 51.1728L147.615 51.2494C147.762 51.7412 147.983 52.0822 148.276 52.2726C148.568 52.4566 148.909 52.4903 149.298 52.3735ZM154.047 51.4621L150.706 47.5569L152.2 47.1091L154.318 49.7525L154.537 46.4088L155.869 46.0098L155.17 53.5371L153.829 53.939L154.047 51.4621ZM159.444 47.7886L158.734 50.6111L157.249 51.056L158.148 47.8533L155.872 46.0087L157.3 45.5811L159.312 47.348L158.66 45.1735L160.02 44.7659L160.675 46.95L161.39 44.3555L162.808 43.9307L161.913 46.6937L164.453 48.8975L162.939 49.351L160.798 47.3619L161.521 49.7758L160.161 50.1834L159.444 47.7886ZM166.206 48.4869C165.721 48.6324 165.293 48.6319 164.922 48.4855C164.511 48.3232 164.231 47.993 164.082 47.4949C163.916 46.9393 164.034 46.4515 164.437 46.0314C164.799 45.6586 165.388 45.3498 166.205 45.1049L166.771 44.9355L166.71 44.7343C166.615 44.415 166.484 44.2001 166.319 44.0896C166.16 43.9772 165.927 43.9669 165.621 44.0587C165.129 44.206 164.915 44.5275 164.98 45.023L163.668 45.4163C163.538 44.8428 163.641 44.3387 163.977 43.9039C164.284 43.5126 164.76 43.2203 165.405 43.0271C166.05 42.8338 166.597 42.8231 167.045 42.995C167.527 43.1849 167.865 43.6055 168.06 44.2568L169.039 47.5234L167.688 47.9281L167.507 47.3246C167.311 47.8986 166.877 48.286 166.206 48.4869ZM166.328 47.396C166.641 47.3023 166.876 47.1449 167.032 46.924C167.189 46.7032 167.226 46.4554 167.144 46.1808L167.018 45.7593L166.481 45.9201C166.06 46.0463 165.757 46.1963 165.572 46.3699C165.394 46.5416 165.343 46.7552 165.419 47.0107C165.54 47.413 165.843 47.5414 166.328 47.396ZM172.284 46.6659C171.505 46.8993 170.814 46.8592 170.212 46.5455C169.576 46.2349 169.141 45.6869 168.905 44.9014L168.882 44.8248C168.649 44.0457 168.708 43.3388 169.061 42.7042C169.405 42.0862 169.944 41.6672 170.678 41.4471C171.374 41.2385 172.003 41.2694 172.564 41.5397C173.19 41.8394 173.63 42.4139 173.885 43.2633L173.999 43.6464L170.388 44.7285C170.533 45.1443 170.746 45.4355 171.026 45.6023C171.31 45.7607 171.643 45.7826 172.027 45.6678C172.627 45.4879 172.905 45.1505 172.861 44.6556L174.173 44.2624C174.253 44.8301 174.129 45.323 173.802 45.7411C173.48 46.151 172.974 46.4592 172.284 46.6659ZM172.393 43.1986C172.125 42.4648 171.649 42.2003 170.965 42.405C170.652 42.4988 170.423 42.6753 170.278 42.9345C170.138 43.1854 170.096 43.4973 170.152 43.8702L172.393 43.1986ZM175.192 41.7755L176.265 45.3581L175.221 45.671L173.72 40.6611L175.549 40.1128L177.614 42.8558L177.858 39.4211L179.563 38.9102L181.064 43.9201L179.704 44.3277L178.631 40.7451L178.325 44.741L177.625 44.9506L175.192 41.7755ZM185.981 41.4135C186.37 41.2968 186.63 41.0728 186.761 40.7414C186.897 40.4081 186.894 40.002 186.75 39.5231L186.73 39.456C186.587 38.977 186.366 38.636 186.069 38.4328C185.776 38.2214 185.434 38.174 185.045 38.2907C184.662 38.4055 184.402 38.6296 184.265 38.9629C184.126 39.2897 184.129 39.6927 184.272 40.1716L184.295 40.2483C184.441 40.7336 184.659 41.0788 184.95 41.2839C185.241 41.489 185.585 41.5322 185.981 41.4135ZM186.287 42.4701C185.52 42.6998 184.825 42.6542 184.2 42.3334C183.556 42.0184 183.118 41.4745 182.886 40.7018L182.863 40.6252C182.632 39.8524 182.695 39.1478 183.055 38.5113C183.405 37.8914 183.963 37.4666 184.729 37.237C185.502 37.0055 186.201 37.0501 186.826 37.3708C187.469 37.7069 187.905 38.255 188.133 39.0149L188.156 39.0916C188.387 39.8643 188.323 40.5689 187.964 41.2054C187.619 41.817 187.06 42.2386 186.287 42.4701ZM191.413 36.435L189.65 36.9631L190.855 40.9864L189.486 41.3968L187.985 36.3869L192.487 35.0379L193.988 40.0478L192.618 40.4582L191.413 36.435ZM197.626 34.5733L196.141 35.0182L197.346 39.0414L195.967 39.4548L194.762 35.4315L193.277 35.8764L192.981 34.8897L197.33 33.5866L197.626 34.5733ZM201.293 36.8255C201.682 36.7088 201.942 36.4847 202.073 36.1534C202.209 35.8201 202.206 35.414 202.063 34.935L202.042 34.868C201.899 34.389 201.678 34.0479 201.381 33.8448C201.088 33.6333 200.747 33.586 200.357 33.7027C199.974 33.8175 199.714 34.0415 199.577 34.3748C199.439 34.7017 199.441 35.1046 199.584 35.5836L199.607 35.6602C199.753 36.1456 199.971 36.4908 200.262 36.6959C200.553 36.9009 200.897 36.9441 201.293 36.8255ZM201.599 37.8821C200.833 38.1117 200.137 38.0661 199.512 37.7454C198.868 37.4304 198.43 36.8865 198.198 36.1138L198.175 36.0371C197.944 35.2644 198.008 34.5598 198.367 33.9233C198.717 33.3034 199.275 32.8786 200.041 32.649C200.814 32.4174 201.513 32.462 202.138 32.7828C202.782 33.1189 203.217 33.6669 203.445 34.4269L203.468 34.5035C203.699 35.2762 203.636 35.9809 203.277 36.6174C202.931 37.229 202.372 37.6506 201.599 37.8821ZM204.759 32.9161L205.832 36.4988L204.788 36.8116L203.287 31.8017L205.117 31.2535L207.181 33.9964L207.425 30.5618L209.13 30.0508L210.632 35.0608L209.271 35.4684L208.198 31.8857L207.892 35.8817L207.193 36.0912L204.759 32.9161ZM215.548 32.5542C215.937 32.4375 216.197 32.2134 216.328 31.8821C216.465 31.5488 216.461 31.1427 216.318 30.6637L216.298 30.5967C216.154 30.1177 215.934 29.7766 215.636 29.5735C215.343 29.362 215.002 29.3146 214.612 29.4314C214.229 29.5462 213.969 29.7702 213.832 30.1035C213.694 30.4304 213.696 30.8333 213.84 31.3123L213.863 31.3889C214.008 31.8743 214.226 32.2195 214.517 32.4245C214.808 32.6296 215.152 32.6728 215.548 32.5542ZM215.854 33.6108C215.088 33.8404 214.392 33.7948 213.767 33.4741C213.123 33.1591 212.685 32.6152 212.453 31.8425L212.43 31.7658C212.199 30.9931 212.263 30.2885 212.622 29.652C212.972 29.032 213.53 28.6073 214.296 28.3777C215.069 28.1461 215.768 28.1907 216.393 28.5115C217.037 28.8476 217.472 29.3956 217.7 30.1556L217.723 30.2322C217.954 31.0049 217.891 31.7095 217.532 32.3461C217.186 32.9577 216.627 33.3793 215.854 33.6108ZM221.596 27.3909L220.111 27.8358L221.317 31.8591L219.938 32.2724L218.732 28.2491L217.247 28.694L216.952 27.7073L221.301 26.4042L221.596 27.3909ZM224.676 25.0588L223.56 26.385L223.164 25.0631L224.408 23.4687L225.769 23.0611L227.821 29.9103L226.269 30.3753L224.676 25.0588ZM231.649 27.5524C232.588 27.2711 232.84 26.4056 232.405 24.956L232.314 24.6494C231.883 23.2125 231.192 22.6366 230.24 22.9218C229.276 23.2107 229.009 24.0736 229.44 25.5105L229.537 25.8362C229.968 27.2731 230.672 27.8451 231.649 27.5524ZM231.975 28.7804C231.055 29.056 230.244 28.972 229.54 28.5286C228.82 28.0974 228.302 27.3581 227.988 26.3108L227.891 25.9851C227.579 24.9441 227.61 24.0371 227.984 23.2639C228.349 22.5073 228.978 21.9951 229.872 21.7272C230.766 21.4593 231.571 21.5314 232.286 21.9435C233.015 22.3793 233.536 23.1208 233.85 24.1681L233.945 24.4843C234.259 25.5316 234.242 26.4412 233.896 27.2131C233.529 27.9843 232.888 28.5068 231.975 28.7804ZM238.303 25.5587C239.241 25.2774 239.494 24.4119 239.059 22.9622L238.967 22.6557C238.537 21.2188 237.846 20.6429 236.894 20.9281C235.93 21.217 235.663 22.0799 236.094 23.5168L236.191 23.8425C236.622 25.2794 237.326 25.8514 238.303 25.5587ZM238.629 26.7867C237.709 27.0622 236.898 26.9783 236.194 26.5349C235.473 26.1037 234.956 25.3644 234.642 24.317L234.545 23.9913C234.233 22.9504 234.264 22.0434 234.637 21.2702C235.002 20.5136 235.632 20.0014 236.526 19.7335C237.42 19.4656 238.224 19.5377 238.94 19.9498C239.669 20.3856 240.19 21.1271 240.504 22.1744L240.599 22.4906C240.912 23.5379 240.896 24.4475 240.55 25.2194C240.182 25.9906 239.542 26.5131 238.629 26.7867ZM244.956 23.5649C245.895 23.2837 246.147 22.4182 245.713 20.9685L245.621 20.662C245.191 19.2251 244.5 18.6492 243.548 18.9343C242.584 19.2233 242.317 20.0862 242.747 21.5231L242.845 21.8488C243.276 23.2857 243.979 23.8577 244.956 23.5649ZM245.283 24.793C244.363 25.0685 243.551 24.9846 242.848 24.5412C242.127 24.11 241.61 23.3707 241.296 22.3233L241.198 21.9976C240.887 20.9567 240.918 20.0496 241.291 19.2765C241.656 18.5199 242.286 18.0077 243.18 17.7398C244.074 17.4719 244.878 17.544 245.593 17.9561C246.322 18.3919 246.844 19.1334 247.158 20.1807L247.252 20.4968C247.566 21.5442 247.55 22.4538 247.204 23.2257C246.836 23.9969 246.196 24.5194 245.283 24.793ZM249.395 17.9863L250.765 17.5758L251.97 21.5991L253.283 21.2059L252.077 17.1826L253.447 16.7721L254.652 20.7954L255.965 20.4022L254.759 16.3789L256.129 15.9685L257.63 20.9784L250.896 22.9962L249.395 17.9863ZM261.272 15.5028L259.787 15.9477L260.993 19.9709L259.613 20.3842L258.408 16.361L256.923 16.8059L256.627 15.8192L260.976 14.5161L261.272 15.5028Z" fill="white"/>
<path d="M273.529 9.6243C273.796 10.5168 273.293 11.4558 272.406 11.7216C271.519 11.9875 270.583 11.4795 270.315 10.5871C270.048 9.6946 270.551 8.7556 271.438 8.48974C272.325 8.22389 273.261 8.73184 273.529 9.6243Z" fill="white"/>
<path d="M273.187 17.4779C270.265 18.3535 267.182 16.6805 266.301 13.741L265.536 11.1863C268.458 10.3107 271.541 11.9837 272.422 14.9231L273.187 17.4779Z" fill="white"/>
<path d="M277.158 9.55989C274.236 10.4355 272.581 13.5283 273.461 16.4677L274.227 19.0224C277.149 18.1468 278.804 15.054 277.923 12.1146L277.158 9.55989Z" fill="white"/>
<path d="M286.202 11.3838C286.592 11.2671 286.852 11.0431 286.982 10.7117C287.119 10.3784 287.115 9.97232 286.972 9.49336L286.952 9.4263C286.808 8.94734 286.588 8.60628 286.29 8.40312C285.997 8.19166 285.656 8.14429 285.266 8.26102C284.883 8.37583 284.623 8.59987 284.486 8.93315C284.348 9.26004 284.35 9.66297 284.494 10.1419L284.517 10.2186C284.662 10.7039 284.88 11.0491 285.171 11.2542C285.463 11.4593 285.806 11.5025 286.202 11.3838ZM286.508 12.4404C285.742 12.6701 285.046 12.6245 284.421 12.3037C283.777 11.9887 283.339 11.4448 283.108 10.6721L283.085 10.5955C282.853 9.82274 282.917 9.11812 283.276 8.48161C283.626 7.86169 284.184 7.43692 284.951 7.2073C285.723 6.97577 286.422 7.02038 287.047 7.34114C287.691 7.67724 288.126 8.22526 288.354 8.98521L288.377 9.06185C288.609 9.83457 288.545 10.5392 288.186 11.1757C287.84 11.7873 287.281 12.2089 286.508 12.4404ZM292.25 6.22055L290.766 6.66544L291.971 10.6887L290.592 11.102L289.386 7.07876L287.901 7.52365L287.606 6.53699L291.955 5.23389L292.25 6.22055ZM294.121 5.66005L295.327 9.68332L293.957 10.0938L292.456 5.08383L295.895 4.05341L296.19 5.04007L294.121 5.66005ZM296.482 3.87743L297.871 3.46124L298.106 4.24673C298.175 3.94089 298.324 3.66285 298.556 3.41262C298.791 3.15408 299.085 2.9722 299.436 2.86695C300.068 2.67752 300.652 2.74284 301.186 3.06294C301.745 3.39645 302.146 3.96873 302.389 4.77977L302.412 4.8564C302.653 5.66106 302.636 6.35867 302.361 6.94923C302.101 7.52129 301.648 7.90395 301.003 8.09721C300.633 8.2082 300.283 8.22596 299.954 8.1505C299.624 8.06865 299.353 7.9201 299.142 7.70484L299.883 10.1763L298.494 10.5925L296.482 3.87743ZM300.267 7.13818C300.65 7.02337 300.907 6.81082 301.036 6.50053C301.164 6.18385 301.154 5.77964 301.007 5.28791L300.984 5.21128C300.835 4.71316 300.613 4.3689 300.32 4.17852C300.026 3.98813 299.697 3.94747 299.333 4.05654C298.956 4.16944 298.696 4.39029 298.55 4.71909C298.41 5.0396 298.413 5.44572 298.561 5.93745L298.584 6.01408C298.731 6.50582 298.951 6.84688 299.245 7.03727C299.537 7.22127 299.878 7.2549 300.267 7.13818ZM305.016 6.22677L301.674 2.32154L303.169 1.87378L305.287 4.51714L305.506 1.17344L306.838 0.774474L306.139 8.3018L304.798 8.70363L305.016 6.22677ZM310.412 2.55326L309.703 5.37573L308.218 5.82062L309.117 2.61795L306.841 0.773375L308.269 0.345706L310.28 2.11261L309.629 -0.061871L310.989 -0.469448L311.644 1.71462L312.359 -0.879895L313.777 -1.30469L312.882 1.45833L315.422 3.66219L313.908 4.11569L311.767 2.12652L312.49 4.54049L311.13 4.94807L310.412 2.55326ZM317.175 3.25159C316.69 3.39701 316.262 3.39655 315.891 3.2502C315.48 3.08787 315.2 2.75764 315.051 2.25952C314.885 1.70393 315.003 1.21611 315.406 0.796083C315.767 0.42329 316.357 0.11443 317.174 -0.130499L317.74 -0.299844L317.679 -0.501008C317.584 -0.820316 317.453 -1.03523 317.288 -1.14576C317.129 -1.2582 316.896 -1.26849 316.589 -1.17664C316.098 -1.0293 315.884 -0.707863 315.949 -0.212326L314.637 0.1809C314.507 -0.392563 314.61 -0.896664 314.946 -1.3314C315.253 -1.72273 315.729 -2.01503 316.374 -2.20829C317.019 -2.40156 317.566 -2.41223 318.014 -2.24031C318.496 -2.0505 318.834 -1.6299 319.029 -0.97851L320.008 2.28801L318.657 2.69271L318.476 2.08922C318.279 2.66321 317.846 3.05067 317.175 3.25159ZM317.297 2.16066C317.61 2.0669 317.845 1.90958 318.001 1.68869C318.158 1.46781 318.195 1.22006 318.113 0.945455L317.986 0.523969L317.45 0.684704C317.028 0.810995 316.725 0.960953 316.541 1.13458C316.363 1.30629 316.312 1.51987 316.388 1.77531C316.509 2.17764 316.812 2.30609 317.297 2.16066ZM323.253 1.43054C322.474 1.66399 321.783 1.62385 321.181 1.31012C320.545 0.999567 320.109 0.451544 319.874 -0.333953L319.851 -0.410587C319.618 -1.1897 319.677 -1.89655 320.03 -2.53115C320.374 -3.14916 320.913 -3.56818 321.647 -3.78824C322.343 -3.99681 322.972 -3.96595 323.533 -3.69565C324.159 -3.39596 324.599 -2.82144 324.853 -1.97208L324.968 -1.58891L321.357 -0.506821C321.502 -0.0910756 321.715 0.200175 321.994 0.366931C322.279 0.525387 322.612 0.54721 322.995 0.432399C323.596 0.25253 323.874 -0.0848509 323.83 -0.579743L325.142 -0.972968C325.222 -0.40527 325.098 0.0876501 324.771 0.505791C324.449 0.915632 323.942 1.22388 323.253 1.43054ZM323.362 -2.03675C323.094 -2.77054 322.618 -3.03506 321.934 -2.83031C321.621 -2.73655 321.392 -2.56007 321.247 -2.30087C321.107 -2.04996 321.064 -1.73805 321.121 -1.36511L323.362 -2.03675ZM326.161 -3.45985L327.234 0.122778L326.19 0.435637L324.689 -4.5743L326.518 -5.12252L328.583 -2.37957L328.827 -5.81425L330.532 -6.32516L332.033 -1.31522L330.673 -0.907645L329.599 -4.49028L329.294 -0.494328L328.594 -0.284799L326.161 -3.45985ZM336.95 -3.8218C337.339 -3.93853 337.599 -4.16257 337.729 -4.49393C337.866 -4.82721 337.863 -5.23333 337.719 -5.71229L337.699 -5.77935C337.556 -6.25831 337.335 -6.59937 337.038 -6.80253C336.745 -7.01399 336.403 -7.06136 336.014 -6.94463C335.631 -6.82982 335.371 -6.60578 335.234 -6.2725C335.095 -5.94561 335.098 -5.54268 335.241 -5.06372L335.264 -4.98709C335.41 -4.50174 335.628 -4.15653 335.919 -3.95146C336.21 -3.74638 336.554 -3.70317 336.95 -3.8218ZM337.256 -2.76522C336.489 -2.5356 335.794 -2.58117 335.169 -2.90193C334.524 -3.21695 334.087 -3.76083 333.855 -4.53355L333.832 -4.61018C333.601 -5.38291 333.664 -6.08753 334.023 -6.72404C334.374 -7.34396 334.932 -7.76873 335.698 -7.99835C336.471 -8.22988 337.17 -8.18527 337.795 -7.8645C338.438 -7.52841 338.874 -6.98039 339.102 -6.22043L339.125 -6.1438C339.356 -5.37108 339.292 -4.66646 338.933 -4.02994C338.588 -3.41833 338.028 -2.99675 337.256 -2.76522ZM342.381 -8.80039L340.619 -8.27226L341.824 -4.24899L340.455 -3.83854L338.953 -8.84848L343.456 -10.1975L344.957 -5.18756L343.587 -4.77711L342.381 -8.80039ZM348.595 -10.6621L347.11 -10.2172L348.315 -6.1939L346.936 -5.78058L345.73 -9.80386L344.246 -9.35897L343.95 -10.3456L348.299 -11.6487L348.595 -10.6621ZM352.262 -8.40985C352.651 -8.52657 352.911 -8.75061 353.042 -9.08198C353.178 -9.41525 353.175 -9.82137 353.031 -10.3003L353.011 -10.3674C352.868 -10.8464 352.647 -11.1874 352.35 -11.3906C352.057 -11.602 351.716 -11.6494 351.326 -11.5327C350.943 -11.4179 350.683 -11.1938 350.546 -10.8605C350.407 -10.5337 350.41 -10.1307 350.553 -9.65176L350.576 -9.57513C350.722 -9.08978 350.94 -8.74457 351.231 -8.5395C351.522 -8.33443 351.866 -8.29121 352.262 -8.40985ZM352.568 -7.35326C351.801 -7.12364 351.106 -7.16921 350.481 -7.48997C349.837 -7.80499 349.399 -8.34887 349.167 -9.12159L349.144 -9.19823C348.913 -9.97095 348.976 -10.6756 349.336 -11.3121C349.686 -11.932 350.244 -12.3568 351.01 -12.5864C351.783 -12.8179 352.482 -12.7733 353.107 -12.4525C353.75 -12.1165 354.186 -11.5684 354.414 -10.8085L354.437 -10.7318C354.668 -9.95912 354.604 -9.2545 354.245 -8.61798C353.9 -8.00637 353.341 -7.58479 352.568 -7.35326ZM355.728 -12.3192L356.801 -8.73657L355.757 -8.42371L354.256 -13.4336L356.086 -13.9819L358.15 -11.2389L358.394 -14.6736L360.099 -15.1845L361.6 -10.1746L360.24 -9.76699L359.167 -13.3496L358.861 -9.35368L358.162 -9.14415L355.728 -12.3192ZM366.517 -12.6811C366.906 -12.7979 367.166 -13.0219 367.297 -13.3533C367.433 -13.6866 367.43 -14.0927 367.287 -14.5716L367.266 -14.6387C367.123 -15.1177 366.902 -15.4587 366.605 -15.6619C366.312 -15.8733 365.971 -15.9207 365.581 -15.804C365.198 -15.6892 364.938 -15.4651 364.801 -15.1318C364.662 -14.805 364.665 -14.402 364.808 -13.9231L364.831 -13.8464C364.977 -13.3611 365.195 -13.0159 365.486 -12.8108C365.777 -12.6057 366.121 -12.5625 366.517 -12.6811ZM366.823 -11.6246C366.057 -11.3949 365.361 -11.4405 364.736 -11.7613C364.092 -12.0763 363.654 -12.6202 363.422 -13.3929L363.399 -13.4695C363.168 -14.2423 363.232 -14.9469 363.591 -15.5834C363.941 -16.2033 364.499 -16.6281 365.265 -16.8577C366.038 -17.0892 366.737 -17.0446 367.362 -16.7239C368.006 -16.3878 368.441 -15.8397 368.669 -15.0798L368.692 -15.0031C368.923 -14.2304 368.86 -13.5258 368.501 -12.8893C368.155 -12.2777 367.596 -11.8561 366.823 -11.6246ZM372.565 -17.8444L371.08 -17.3996L372.286 -13.3763L370.906 -12.963L369.701 -16.9862L368.216 -16.5413L367.921 -17.528L372.27 -18.8311L372.565 -17.8444ZM375.645 -20.1766L374.529 -18.8503L374.133 -20.1723L375.377 -21.7666L376.738 -22.1742L378.79 -15.3251L377.238 -14.8601L375.645 -20.1766ZM382.618 -17.683C383.556 -17.9643 383.809 -18.8297 383.374 -20.2794L383.282 -20.5859C382.852 -22.0228 382.161 -22.5987 381.209 -22.3136C380.245 -22.0247 379.978 -21.1617 380.409 -19.7249L380.506 -19.3992C380.937 -17.9623 381.641 -17.3902 382.618 -17.683ZM382.944 -16.4549C382.024 -16.1794 381.213 -16.2633 380.509 -16.7067C379.788 -17.138 379.271 -17.8773 378.957 -18.9246L378.86 -19.2503C378.548 -20.2912 378.579 -21.1983 378.953 -21.9714C379.317 -22.728 379.947 -23.2402 380.841 -23.5081C381.735 -23.776 382.54 -23.7039 383.255 -23.2918C383.984 -22.8561 384.505 -22.1145 384.819 -21.0672L384.914 -20.7511C385.227 -19.7038 385.211 -18.7942 384.865 -18.0223C384.497 -17.251 383.857 -16.7286 382.944 -16.4549ZM389.271 -19.6767C390.21 -19.958 390.462 -20.8235 390.028 -22.2731L389.936 -22.5796C389.506 -24.0165 388.815 -24.5924 387.863 -24.3073C386.899 -24.0184 386.632 -23.1554 387.062 -21.7186L387.16 -21.3929C387.591 -19.956 388.294 -19.3839 389.271 -19.6767ZM389.598 -18.4487C388.678 -18.1731 387.867 -18.257 387.163 -18.7004C386.442 -19.1317 385.925 -19.871 385.611 -20.9183L385.513 -21.244C385.202 -22.2849 385.233 -23.192 385.606 -23.9652C385.971 -24.7217 386.601 -25.2339 387.495 -25.5018C388.389 -25.7697 389.193 -25.6976 389.908 -25.2855C390.637 -24.8498 391.159 -24.1082 391.473 -23.0609L391.567 -22.7448C391.881 -21.6975 391.865 -20.7879 391.519 -20.016C391.151 -19.2447 390.511 -18.7223 389.598 -18.4487ZM395.925 -21.6704C396.864 -21.9517 397.116 -22.8172 396.682 -24.2668L396.59 -24.5734C396.16 -26.0102 395.468 -26.5861 394.517 -26.301C393.553 -26.0121 393.286 -25.1492 393.716 -23.7123L393.814 -23.3866C394.244 -21.9497 394.948 -21.3776 395.925 -21.6704ZM396.252 -20.4424C395.332 -20.1668 394.52 -20.2507 393.817 -20.6941C393.096 -21.1254 392.579 -21.8647 392.265 -22.912L392.167 -23.2377C391.855 -24.2787 391.886 -25.1857 392.26 -25.9589C392.625 -26.7154 393.255 -27.2277 394.149 -27.4955C395.043 -27.7634 395.847 -27.6913 396.562 -27.2792C397.291 -26.8435 397.813 -26.102 398.127 -25.0546L398.221 -24.7385C398.535 -23.6912 398.519 -22.7816 398.172 -22.0097C397.805 -21.2384 397.165 -20.716 396.252 -20.4424ZM400.364 -27.2491L401.734 -27.6595L402.939 -23.6363L404.251 -24.0295L403.046 -28.0528L404.416 -28.4632L405.621 -24.4399L406.934 -24.8332L405.728 -28.8564L407.098 -29.2669L408.599 -24.2569L401.865 -22.2391L400.364 -27.2491ZM412.241 -29.7326L410.756 -29.2877L411.961 -25.2644L410.582 -24.8511L409.377 -28.8744L407.892 -28.4295L407.596 -29.4162L411.945 -30.7192L412.241 -29.7326Z" fill="white"/>
</g>
<path d="M242.628 50.0753C242.628 49.3763 242.286 48.8289 241.283 48.8289H237.84V53.0342H238.795V51.5547H241C241.495 51.5547 241.625 51.6921 241.625 52.1836V53.0342H242.58V52.0325C242.58 51.5327 242.401 51.2396 242.003 51.1397C242.417 51.0014 242.628 50.6052 242.628 50.0753ZM241.154 50.6707H238.795V49.7143H241.154C241.507 49.7143 241.672 49.9007 241.672 50.1801C241.672 50.4596 241.531 50.6693 241.154 50.6693V50.6707ZM279.575 53.9686H279.929V58.1715H278.974V55.1892L277.004 58.1715H275.908V53.9663H276.863V56.8441L278.301 54.6419C278.667 54.0826 278.985 53.9663 279.575 53.9663V53.9686ZM260.931 53.0342V52.1373C261.32 52.1373 261.414 51.9042 261.497 51.1237L261.756 48.8289H265.176V53.0342H264.221V49.7143H262.574L262.405 51.3216C262.263 52.7081 261.886 53.0809 260.931 53.0342ZM236 60H244.42V47H236V60ZM236.92 47.9078H243.5V59.0922H236.92V47.9078ZM241.625 53.9663H242.58V58.1715H239.524C238.298 58.1715 237.838 57.7171 237.838 56.5056V53.9663H238.793V56.5272C238.793 57.0631 239.005 57.2843 239.501 57.2843H241.623L241.625 53.9663ZM267.027 51.6262H269.139V53.0356H270.094V48.8289H267.641C266.438 48.8289 266.072 49.1551 266.072 50.378V53.0346H267.027V51.6262ZM267.641 49.7157H269.139V50.7509H267.027V50.378C267.027 49.9007 267.087 49.7143 267.641 49.7143V49.7157ZM256.249 51.4846V50.378C256.249 49.1665 256.591 48.8289 257.817 48.8289H260.317V49.7143H257.77C257.275 49.7143 257.204 49.7959 257.204 50.3318V50.4715H259.622V51.3449H257.204V51.5314C257.204 52.0673 257.275 52.1488 257.77 52.1488H260.353V53.0342H257.817C256.591 53.0342 256.249 52.6847 256.249 51.4846ZM278.431 48.828H277.382C276.167 48.828 275.814 49.1656 275.814 50.3771V51.4846C275.814 52.6847 276.285 53.0342 277.5 53.0342H278.314C279.54 53.0342 280 52.6847 280 51.4846V50.378C280 49.1665 279.658 48.8289 278.431 48.8289V48.828ZM279.045 51.4846C279.045 52.0205 278.927 52.1488 278.431 52.1488H277.382C276.887 52.1488 276.769 52.0205 276.769 51.4846V50.378C276.769 49.8421 276.887 49.7143 277.382 49.7143H278.431C278.927 49.7143 279.045 49.8421 279.045 50.378V51.4846ZM262.688 53.9663H265.306V54.4903C265.306 54.9098 265.271 55.2593 265.177 55.5735H264.362V54.8512H262.688C262.192 54.8512 262.075 54.9795 262.075 55.5154V56.622C262.075 57.1579 262.192 57.2861 262.688 57.2861H265.306V58.1715H262.688C261.473 58.1715 261.119 57.822 261.119 56.622V55.5154C261.119 54.3039 261.473 53.9663 262.688 53.9663ZM255.176 48.8289H251.698L251.486 50.9606C251.38 51.9743 251.226 52.1373 250.943 52.1373H250.885V53.4304H251.793L251.828 52.8945H254.635L254.67 53.4304H255.579V52.1254H255.177L255.176 48.8289ZM252.536 49.7143H254.22V52.0205H252.177C252.308 51.7952 252.363 51.481 252.404 51.077L252.536 49.7143ZM258.879 53.9663H257.748C256.533 53.9663 256.179 54.3039 256.179 55.5154V56.622C256.179 57.822 256.533 58.1715 257.748 58.1715H258.88C260.107 58.1715 260.448 57.822 260.448 56.622V55.5154C260.447 54.3039 260.105 53.9663 258.879 53.9663ZM259.492 56.6229C259.492 57.1588 259.374 57.287 258.879 57.287H257.748C257.253 57.287 257.135 57.1588 257.135 56.6229V55.5154C257.135 54.9795 257.253 54.8512 257.748 54.8512H258.88C259.375 54.8512 259.493 54.9795 259.493 55.5154L259.492 56.6229ZM267.546 53.9663H270.175V54.4903C270.175 54.9098 270.14 55.2593 270.045 55.5735H269.233V54.8512H267.546C267.051 54.8512 266.933 54.9795 266.933 55.5154V56.622C266.933 57.1579 267.051 57.2861 267.546 57.2861H270.175V58.1715H267.546C266.332 58.1715 265.978 57.822 265.978 56.622V55.5154C265.978 54.3039 266.332 53.9663 267.546 53.9663ZM249.671 55.9491C249.895 55.814 250.081 55.5273 250.081 55.0843C250.081 54.5136 249.751 53.9663 248.772 53.9663H246.272V58.1715H248.869C249.812 58.1715 250.272 57.6938 250.272 56.9133C250.27 56.3898 249.964 56.0792 249.671 55.9491ZM249.126 55.2241C249.126 55.4806 248.996 55.6203 248.666 55.6203H247.228V54.8631H248.666C248.996 54.8631 249.126 54.9795 249.126 55.2241ZM248.878 57.2852H247.227V56.4704H248.878C249.197 56.4704 249.314 56.622 249.314 56.8666C249.314 57.1112 249.197 57.2861 248.878 57.2861V57.2852ZM274.057 48.828H275.012V53.0333H274.056V51.3449H271.945V53.0342H270.99V48.8289H271.945V50.4596H274.056L274.057 48.828ZM247.7 48.828H250.306V49.3529C250.306 49.7725 250.271 50.122 250.176 50.4366H249.362V49.7143H247.699C247.204 49.7143 247.085 49.8421 247.085 50.378V51.4846C247.085 52.0205 247.204 52.1488 247.699 52.1488H250.305V53.0342H247.699C246.484 53.0342 246.13 52.6847 246.13 51.4846V50.378C246.13 49.1665 246.484 48.8289 247.699 48.8289L247.7 48.828ZM274.658 53.9663H275.011V58.1715H274.056V55.1892L272.087 58.1715H270.99V53.9663H271.945V56.8441L273.383 54.6419C273.75 54.0826 274.07 53.9663 274.658 53.9663ZM254.103 53.9663H251.32V54.7907L251.816 54.8608V58.1715H252.771V57.0878H254.103C255.2 57.0878 255.578 56.5382 255.578 55.6903V55.3638C255.577 54.5604 255.223 53.9663 254.103 53.9663ZM254.633 55.6569C254.633 56.0531 254.48 56.2065 254.103 56.2065H252.77V54.8512H254.103C254.48 54.8512 254.633 55.0376 254.633 55.4009V55.6569Z" fill="#212121"/>
</svg>
