<svg width="31" height="30" viewBox="0 0 31 30" fill="none" xmlns="http://www.w3.org/2000/svg">
<path d="M4.15555 5.1607C4.2362 3.66856 5.46963 2.5 6.96395 2.5H8.41117C9.90549 2.5 11.1389 3.66856 11.2196 5.1607L12.2669 24.5357C12.3539 26.1462 11.0714 27.5 9.45848 27.5H5.91665C4.3037 27.5 3.02119 26.1462 3.10825 24.5357L4.15555 5.1607ZM6.96395 4.375C6.46584 4.375 6.0547 4.76452 6.02781 5.2619L4.98051 24.6369C4.9515 25.1737 5.379 25.625 5.91665 25.625H9.45848C9.99613 25.625 10.4236 25.1737 10.3946 24.6369L9.34731 5.2619C9.32042 4.76452 8.90927 4.375 8.41117 4.375H6.96395Z" fill="#27AE60"/>
<path d="M12.3896 27.5H25.1873C26.7406 27.5 27.9998 26.2409 27.9998 24.6875V7.50002C27.9998 7.12432 27.7755 6.7849 27.4298 6.63759C27.0842 6.49029 26.6841 6.56354 26.4131 6.82372L20.1873 12.8005V7.50002C20.1873 7.13684 19.9775 6.80632 19.6488 6.65171C19.3202 6.4971 18.9318 6.54622 18.6521 6.77777L12.8194 11.6048L12.9453 13.9344L18.3123 9.4928V15C18.3123 15.3757 18.5366 15.7151 18.8822 15.8625C19.2278 16.0097 19.628 15.9365 19.8991 15.6764L26.1248 9.6996V24.6875C26.1248 25.2052 25.7051 25.625 25.1873 25.625H23.9373V20C23.9373 18.7919 22.958 17.8125 21.7498 17.8125H16.7498C15.5417 17.8125 14.5623 18.7919 14.5623 20V25.625H13.4123C13.2431 26.3405 12.8839 26.9849 12.3896 27.5ZM22.0623 20V25.3125H16.4373V20C16.4373 19.8274 16.5772 19.6875 16.7498 19.6875H21.7498C21.9225 19.6875 22.0623 19.8274 22.0623 20Z" fill="#27AE60"/>
</svg>
