<svg width="30" height="30" viewBox="0 0 30 30" fill="none" xmlns="http://www.w3.org/2000/svg">
<path d="M11.9066 4.46464L13.0337 6.97179C13.6372 8.31408 13.3192 9.89158 12.2428 10.8953L10.375 12.6371C10.3204 12.688 10.2858 12.7568 10.2775 12.831C10.2221 13.3274 10.5586 14.2941 11.3339 15.637C11.8977 16.6136 12.4081 17.2984 12.8424 17.6836C13.145 17.952 13.3116 18.01 13.3826 17.9889L15.8955 17.2206C17.3025 16.7905 18.8272 17.3034 19.6881 18.4965L21.289 20.7153C22.2967 22.1118 22.1154 24.0384 20.8651 25.2225L19.7572 26.2718C18.5616 27.404 16.8597 27.8259 15.2737 27.3832C11.8311 26.4223 8.74449 23.5172 5.97965 18.7283C3.21097 13.9328 2.23947 9.80229 3.13504 6.33755C3.54488 4.75195 4.75254 3.49521 6.32057 3.02256L7.77932 2.58286C9.43245 2.08456 11.1987 2.88985 11.9066 4.46464ZM8.32044 4.37807L6.86169 4.81778C5.92088 5.10137 5.19628 5.85541 4.95038 6.80677C4.19707 9.72117 5.05813 13.3822 7.60345 17.7908C10.1454 22.1936 12.8815 24.7689 15.7778 25.5773C16.7294 25.8429 17.7505 25.5897 18.4679 24.9104L19.5758 23.8612C20.1442 23.3229 20.2265 22.4472 19.7685 21.8124L18.1676 19.5937C17.7763 19.0513 17.0832 18.8182 16.4437 19.0137L13.9245 19.7839C12.4623 20.2197 11.1353 19.0429 9.71013 16.5745C8.74976 14.9111 8.30214 13.6253 8.4141 12.6228C8.4721 12.1035 8.71406 11.6222 9.09621 11.2658L10.9641 9.52398C11.4533 9.06776 11.5979 8.35071 11.3236 7.74058L10.1965 5.23343C9.87471 4.51762 9.07187 4.15158 8.32044 4.37807ZM21.4354 2.50488L21.5626 2.49632C22.0373 2.49632 22.4295 2.84902 22.4916 3.30661L22.5001 3.43382L22.4994 7.50103L26.5648 7.50214C27.0394 7.50214 27.4317 7.85483 27.4938 8.31242L27.5023 8.43964C27.5023 8.91426 27.1496 9.3065 26.692 9.36858L26.5648 9.37714L22.4994 9.37603L22.5001 13.4375C22.5001 13.9122 22.1474 14.3044 21.6899 14.3665L21.5626 14.375C21.088 14.375 20.6958 14.0223 20.6337 13.5647L20.6251 13.4375L20.6244 9.37603L16.5605 9.37714C16.0858 9.37714 15.6936 9.02444 15.6315 8.56685L15.623 8.43964C15.623 7.96502 15.9757 7.57277 16.4332 7.5107L16.5605 7.50214L20.6244 7.50103L20.6251 3.43382C20.6251 2.9592 20.9778 2.56696 21.4354 2.50488L21.5626 2.49632L21.4354 2.50488Z" fill="#27AE60"/>
</svg>
