<svg width="30" height="30" viewBox="0 0 30 30" fill="none" xmlns="http://www.w3.org/2000/svg">
<g clip-path="url(#clip0_706_3589)">
<path d="M28.797 7.0726C28.797 6.95863 28.7716 6.84466 28.721 6.73702C28.6197 6.52174 28.4234 6.37611 28.2081 6.33179L15.3103 0.0759814C15.1013 -0.0253271 14.8544 -0.0253271 14.6454 0.0759814L1.62093 6.38877C1.36766 6.50908 1.20303 6.76235 1.19037 7.04728V7.05361C1.19037 7.05994 1.19037 7.06627 1.19037 7.07894V22.9211C1.19037 23.2123 1.355 23.4783 1.62093 23.6049L14.6454 29.9177C14.6518 29.9177 14.6518 29.9177 14.6581 29.924C14.6771 29.9304 14.6961 29.9367 14.7151 29.9493C14.7214 29.9493 14.7277 29.9557 14.7404 29.9557C14.7594 29.962 14.7784 29.9683 14.7974 29.9747C14.8037 29.9747 14.81 29.981 14.8164 29.981C14.8354 29.9873 14.8607 29.9873 14.8797 29.9937C14.886 29.9937 14.8924 29.9937 14.8987 29.9937C14.924 29.9937 14.9557 30 14.981 30C15.0063 30 15.038 30 15.0633 29.9937C15.0697 29.9937 15.076 29.9937 15.0823 29.9937C15.1013 29.9937 15.1266 29.9873 15.1456 29.981C15.152 29.981 15.1583 29.9747 15.1646 29.9747C15.1836 29.9683 15.2026 29.962 15.2216 29.9557C15.2279 29.9557 15.2343 29.9493 15.2469 29.9493C15.2659 29.943 15.2849 29.9367 15.3039 29.924C15.3103 29.924 15.3103 29.924 15.3166 29.9177L28.3791 23.5859C28.6387 23.4593 28.8096 23.1933 28.8096 22.9021V7.0916C28.797 7.08527 28.797 7.07894 28.797 7.0726ZM14.9747 1.60194L26.2706 7.07894L22.1106 9.09878L10.8147 3.62178L14.9747 1.60194ZM14.9747 12.5559L3.67876 7.07894L9.07345 4.46391L20.3694 9.9409L14.9747 12.5559ZM2.71 8.30097L14.2149 13.8793V28.0182L2.71 22.4398V8.30097ZM15.7345 28.0182V13.8793L21.1355 11.2579V14.9557C21.1355 15.3736 21.4774 15.7155 21.8953 15.7155C22.3132 15.7155 22.6551 15.3736 22.6551 14.9557V10.5171L27.2773 8.27564V22.4145L15.7345 28.0182Z" fill="#27AE60"/>
</g>
<defs>
<clipPath id="clip0_706_3589">
<rect width="30" height="30" fill="white"/>
</clipPath>
</defs>
</svg>
