<svg width="30" height="30" viewBox="0 0 30 30" fill="none" xmlns="http://www.w3.org/2000/svg">
<g clip-path="url(#clip0_706_3570)">
<path d="M22.2742 14.0476H24.196C24.118 13.1105 23.8096 12.7136 23.6652 12.5739C23.0867 12.021 22.4569 12.9383 22.2742 14.0476Z" fill="#27AE60"/>
<path d="M11.701 16.8193C11.701 17.3932 11.892 17.7494 12.2004 17.7494C12.6952 17.7494 12.8546 17.1871 12.9 16.9462C12.9256 16.8251 12.9396 16.6971 12.9396 16.5818V15.4888C11.701 15.6506 11.701 16.5166 11.701 16.8193Z" fill="#27AE60"/>
<path d="M29.8533 15.9952L28.0851 13.2061L29.1328 10.076C29.276 9.64876 29.099 9.17964 28.7091 8.95498L25.8478 7.30668L25.3205 4.04617C25.2495 3.60266 24.8747 3.27091 24.4242 3.25228L21.1252 3.12307L19.1429 0.480668C18.8728 0.118647 18.3862 -0.00125052 17.9811 0.194311L15 1.61329L12.0177 0.194311C11.6126 0.00107759 11.126 0.122139 10.856 0.480668L8.87357 3.12307L5.57465 3.25228C5.12532 3.27091 4.74933 3.60266 4.67949 4.04617L4.15217 7.30668L1.29093 8.95498C0.900969 9.17964 0.722868 9.64759 0.866047 10.076L1.9137 13.2061L0.146662 15.9952C-0.0942976 16.3747 -0.0337669 16.8729 0.291004 17.1837L2.67382 19.4687L2.40609 22.7583C2.37 23.2088 2.65403 23.6197 3.08706 23.7455L6.25911 24.6592L7.55121 27.6986C7.72582 28.1118 8.17049 28.3516 8.6105 28.2562L11.8454 27.5927L14.4005 29.6845C14.5739 29.8253 14.787 29.8986 15 29.8986C15.213 29.8986 15.4249 29.8253 15.5995 29.6845L18.1546 27.5927L21.3895 28.2562C21.8283 28.3493 22.2742 28.113 22.4488 27.6986L23.7409 24.6592L26.9129 23.7455C27.3459 23.6209 27.63 23.2088 27.5939 22.7583L27.3262 19.4687L29.709 17.1837C30.0337 16.8729 30.0943 16.3758 29.8533 15.9952ZM6.13339 19.5432C5.45358 19.5432 4.75282 19.3302 4.34773 18.9996C4.20805 18.8844 4.15334 18.697 4.20921 18.5258L4.51186 17.6051C4.55377 17.4759 4.65388 17.3734 4.78076 17.3292C4.90764 17.2826 5.04966 17.3001 5.16373 17.3746C5.40702 17.5329 5.79814 17.7017 6.16366 17.7017C6.60833 17.7017 6.85394 17.4619 6.85394 17.0254C6.85394 16.6657 6.7969 16.3735 6.06238 15.8776C5.32437 15.412 4.33027 14.6321 4.33027 13.34C4.33027 11.8779 5.42448 10.7756 6.87722 10.7756C7.43597 10.7756 7.95746 10.9257 8.47081 11.2365C8.64542 11.3425 8.72458 11.5566 8.65706 11.751L8.34044 12.6718C8.2962 12.7999 8.19493 12.9011 8.06572 12.943C7.93535 12.9861 7.7945 12.9675 7.68275 12.8895C7.39755 12.6951 7.1694 12.6159 6.89468 12.6159C6.38599 12.6159 6.34641 13.0362 6.34641 13.1654C6.34641 13.4506 6.38017 13.624 7.11003 14.1234C7.8655 14.61 8.88638 15.426 8.88638 16.8182C8.88754 18.449 7.78053 19.5432 6.13339 19.5432ZM14.6578 19.4478C14.6531 19.4478 14.6496 19.4478 14.6461 19.4478H13.5507C13.3668 19.4478 13.2062 19.3325 13.1433 19.1684C12.7801 19.4338 12.3483 19.5758 11.8827 19.5758C10.5801 19.5758 9.63487 18.47 9.63487 16.9462C9.63487 15.1315 10.9037 13.9057 12.9035 13.7346C12.8686 12.7067 12.5136 12.6171 12.1201 12.6171C11.7476 12.6171 11.4042 12.7254 11.0981 12.9372C10.984 13.0152 10.8373 13.035 10.7081 12.9919C10.5766 12.9465 10.4741 12.8418 10.4334 12.7091L10.1645 11.8511C10.1075 11.6719 10.1738 11.4763 10.3275 11.3657C10.7384 11.0712 11.5299 10.7756 12.375 10.7756C13.574 10.7756 15.0046 11.3238 15.0046 13.929V17.264C15.0046 17.9205 15.0256 18.4467 15.0663 18.8285C15.0908 18.8832 15.1059 18.9472 15.1059 19.0112C15.1048 19.2557 14.8801 19.4629 14.6578 19.4478ZM18.7517 19.0112C18.7517 19.2522 18.5562 19.4478 18.3152 19.4478H17.0918C16.8508 19.4478 16.6553 19.2522 16.6553 19.0112V9.2588C16.6553 9.01784 16.8508 8.82228 17.0918 8.82228H18.3152C18.5562 8.82228 18.7517 9.01784 18.7517 9.2588V19.0112ZM25.7721 15.313C25.7535 15.5389 25.5649 15.7158 25.3368 15.7158H22.2253C22.3394 17.7028 23.2357 17.7028 23.5872 17.7028C24.0982 17.7028 24.4498 17.5748 24.6547 17.4665C24.7734 17.4037 24.9166 17.399 25.0388 17.4549C25.1622 17.5108 25.253 17.6225 25.2832 17.7541L25.4904 18.6434C25.5358 18.839 25.4439 19.0392 25.2669 19.13C24.7734 19.3872 24.0459 19.5444 23.366 19.5444C21.3429 19.5444 20.1346 17.938 20.1346 15.249C20.1346 12.574 21.3569 10.7767 23.1751 10.7767C24.7722 10.7767 25.8047 12.2702 25.8047 14.582C25.8036 14.8975 25.7873 15.114 25.7721 15.313Z" fill="#27AE60"/>
</g>
<defs>
<clipPath id="clip0_706_3570">
<rect width="30" height="30" fill="white"/>
</clipPath>
</defs>
</svg>
