<svg width="20" height="21" viewBox="0 0 20 21" fill="none" xmlns="http://www.w3.org/2000/svg">
<path d="M18.3333 14.4332V16.9332C18.3343 17.1653 18.2867 17.395 18.1937 17.6076C18.1008 17.8203 17.9644 18.0112 17.7934 18.1681C17.6224 18.325 17.4205 18.4444 17.2006 18.5188C16.9808 18.5931 16.7478 18.6207 16.5167 18.5998C13.9523 18.3212 11.4892 17.445 9.32498 16.0415C7.31151 14.7621 5.60443 13.055 4.32499 11.0415C2.91663 8.86751 2.04019 6.39233 1.76665 3.8165C1.74583 3.58606 1.77321 3.3538 1.84707 3.13452C1.92092 2.91524 2.03963 2.71374 2.19562 2.54285C2.35162 2.37196 2.54149 2.23543 2.75314 2.14194C2.9648 2.04845 3.1936 2.00005 3.42499 1.99984H5.92499C6.32941 1.99586 6.72148 2.13907 7.02812 2.40278C7.33476 2.66649 7.53505 3.03271 7.59165 3.43317C7.69717 4.23323 7.89286 5.01878 8.17499 5.77484C8.2871 6.07311 8.31137 6.39727 8.24491 6.7089C8.17844 7.02054 8.02404 7.3066 7.79998 7.53317L6.74165 8.5915C7.92795 10.6778 9.65536 12.4052 11.7417 13.5915L12.8 12.5332C13.0266 12.3091 13.3126 12.1547 13.6243 12.0882C13.9359 12.0218 14.26 12.046 14.5583 12.1582C15.3144 12.4403 16.0999 12.636 16.9 12.7415C17.3048 12.7986 17.6745 13.0025 17.9388 13.3144C18.203 13.6263 18.3435 14.0245 18.3333 14.4332Z" stroke="#27AE60" stroke-width="2" stroke-linecap="round" stroke-linejoin="round"/>
</svg>
