<svg width="180" height="30" viewBox="0 0 180 30" fill="none" xmlns="http://www.w3.org/2000/svg">
<path d="M51.2581 7.6652H43.7781V20.3921H42V6.21806H53.0362V20.3921H51.2581V7.6652Z" fill="#27AE60"/>
<path d="M57.4042 16.3877C57.2816 17.815 57.0227 18.859 56.6276 19.5198C56.2324 20.1674 55.6125 20.4912 54.7678 20.4912C54.5906 20.4912 54.4067 20.478 54.216 20.4515L54.0525 20.3921V18.826L54.1955 18.8656C54.3318 18.8921 54.4748 18.9053 54.6247 18.9053C54.8427 18.9053 55.0198 18.8458 55.1561 18.7269C55.306 18.5947 55.4218 18.3899 55.5035 18.1123C55.5989 17.8348 55.667 17.5771 55.7079 17.3392C55.7488 17.0881 55.7965 16.7379 55.851 16.2885C55.9055 15.8128 55.9872 14.4648 56.0962 12.2445L56.1575 10.0242H63.2084V20.3921H61.5121V11.4119H57.6699C57.5473 14.2665 57.4587 15.9251 57.4042 16.3877Z" fill="#27AE60"/>
<path d="M68.2106 20.5705C67.1615 20.5705 66.3031 20.3194 65.6355 19.8172C64.9815 19.3018 64.6545 18.5352 64.6545 17.5176C64.6545 16.9493 64.7976 16.4537 65.0837 16.0308C65.3834 15.5947 65.7922 15.2577 66.3099 15.0198C66.8277 14.7687 67.3931 14.5903 68.0062 14.4846C68.6194 14.3656 69.287 14.3062 70.0091 14.3062H71.5419V13.5529C71.5419 12.7203 71.3648 12.1256 71.0105 11.7687C70.6563 11.3987 70.0704 11.2137 69.2529 11.2137C67.7814 11.2137 66.9639 11.8348 66.8004 13.0771H65.1041C65.2131 11.967 65.6559 11.1542 66.4326 10.6388C67.2228 10.1101 68.1902 9.84581 69.3347 9.84581C71.937 9.84581 73.2382 11.0815 73.2382 13.5529V20.3921H71.5419V19.0837C70.7244 20.0749 69.614 20.5705 68.2106 20.5705ZM68.3741 19.2621C69.3006 19.2621 70.0568 19.0441 70.6427 18.6079C71.2422 18.1586 71.5419 17.5441 71.5419 16.7643V15.4758H70.0704C67.5907 15.4758 66.3508 16.1564 66.3508 17.5176C66.3508 18.6806 67.0252 19.2621 68.3741 19.2621Z" fill="#27AE60"/>
<path d="M82.1701 15.7731H76.9177V20.3921H75.2214V10.0242H76.9177V14.3855H82.1701V10.0242H83.8664V20.3921H82.1701V15.7731Z" fill="#27AE60"/>
<path d="M90.5662 20.5705C89.0402 20.5705 87.7936 20.0881 86.8262 19.1233C85.8724 18.1586 85.3956 16.8899 85.3956 15.3172V15.1586C85.3956 13.5991 85.8588 12.3238 86.7853 11.3326C87.7254 10.3414 88.9312 9.84581 90.4027 9.84581C91.7652 9.84581 92.9029 10.2753 93.8158 11.1344C94.7423 11.9802 95.2055 13.2687 95.2055 15V15.5352H87.1532C87.2349 17.9802 88.3794 19.2026 90.5867 19.2026C92.2625 19.2026 93.2095 18.6013 93.4275 17.3987H95.1238C94.933 18.4295 94.4357 19.2159 93.6318 19.7577C92.828 20.2996 91.8061 20.5705 90.5662 20.5705ZM93.4683 14.207C93.3185 12.2115 92.2966 11.2137 90.4027 11.2137C89.5444 11.2137 88.8359 11.478 88.2772 12.0066C87.7186 12.5352 87.3644 13.2687 87.2145 14.207H93.4683Z" fill="#27AE60"/>
<path d="M103.86 11.4119H100.406V20.3921H98.71V11.4119H95.2561V10.0242H103.86V11.4119Z" fill="#27AE60"/>
<path d="M107.673 20.5705C106.624 20.5705 105.766 20.3194 105.098 19.8172C104.444 19.3018 104.117 18.5352 104.117 17.5176C104.117 16.9493 104.26 16.4537 104.546 16.0308C104.846 15.5947 105.255 15.2577 105.772 15.0198C106.29 14.7687 106.856 14.5903 107.469 14.4846C108.082 14.3656 108.749 14.3062 109.472 14.3062H111.004V13.5529C111.004 12.7203 110.827 12.1256 110.473 11.7687C110.119 11.3987 109.533 11.2137 108.715 11.2137C107.244 11.2137 106.426 11.8348 106.263 13.0771H104.567C104.676 11.967 105.118 11.1542 105.895 10.6388C106.685 10.1101 107.653 9.84581 108.797 9.84581C111.4 9.84581 112.701 11.0815 112.701 13.5529V20.3921H111.004V19.0837C110.187 20.0749 109.076 20.5705 107.673 20.5705ZM107.837 19.2621C108.763 19.2621 109.519 19.0441 110.105 18.6079C110.705 18.1586 111.004 17.5441 111.004 16.7643V15.4758H109.533C107.053 15.4758 105.813 16.1564 105.813 17.5176C105.813 18.6806 106.488 19.2621 107.837 19.2621Z" fill="#27AE60"/>
<path d="M119.895 20.5705C118.288 20.5705 116.912 20.1674 115.767 19.3612C114.636 18.5551 113.989 17.4119 113.826 15.9317H115.583C115.951 18.1123 117.382 19.2026 119.875 19.2026C121.319 19.2026 122.498 18.7203 123.411 17.7555C124.324 16.7775 124.821 15.4758 124.903 13.8502H117.811V12.4427H124.903C124.78 10.8436 124.296 9.60793 123.452 8.73568C122.607 7.85022 121.455 7.40749 119.998 7.40749C118.785 7.40749 117.811 7.69824 117.075 8.27974C116.339 8.86123 115.876 9.72687 115.685 10.8767H114.03C114.275 9.26432 114.922 8.04846 115.971 7.22907C117.021 6.40969 118.376 6 120.039 6C122.137 6 123.779 6.64758 124.964 7.94273C126.163 9.23788 126.762 10.9824 126.762 13.1762V13.3348C126.762 15.4361 126.115 17.1674 124.821 18.5286C123.526 19.8899 121.885 20.5705 119.895 20.5705Z" fill="#27AE60"/>
<path d="M130.083 15.0991V20.3921H128.387V10.0242H130.083V14.8612L134.518 10.0242H136.5L131.922 14.9009L136.888 20.3921H134.824L130.083 15.0991Z" fill="#27AE60"/>
<path d="M141.877 19.2026C142.94 19.2026 143.785 18.8458 144.411 18.1322C145.052 17.4185 145.372 16.4736 145.372 15.2974V15.1586C145.372 13.9559 145.052 12.9978 144.411 12.2841C143.785 11.5705 142.94 11.2137 141.877 11.2137C140.801 11.2137 139.949 11.5705 139.322 12.2841C138.696 12.9978 138.382 13.9493 138.382 15.1388V15.2974C138.382 16.5 138.689 17.4515 139.302 18.152C139.929 18.8524 140.787 19.2026 141.877 19.2026ZM141.857 20.5705C140.344 20.5705 139.091 20.0749 138.096 19.0837C137.115 18.0793 136.625 16.8172 136.625 15.2974V15.1388C136.625 13.5925 137.115 12.3238 138.096 11.3326C139.091 10.3414 140.351 9.84581 141.877 9.84581C143.403 9.84581 144.657 10.3414 145.638 11.3326C146.632 12.3106 147.13 13.5727 147.13 15.1189V15.2775C147.13 16.837 146.632 18.1123 145.638 19.1035C144.643 20.0815 143.383 20.5705 141.857 20.5705Z" fill="#27AE60"/>
<path d="M158.34 16.3084C158.34 17.63 157.911 18.641 157.052 19.3414C156.207 20.0419 155.036 20.3921 153.537 20.3921H148.53V6.21806H157.154V7.62555H150.267V12.2048H153.517C156.732 12.2048 158.34 13.5463 158.34 16.2291V16.3084ZM153.496 19.0441C155.567 19.0441 156.603 18.1322 156.603 16.3084V16.2291C156.603 14.4449 155.513 13.5529 153.333 13.5529H150.267V19.0441H153.496Z" fill="#27AE60"/>
<path d="M162.602 19.3216L158.412 10.0242H160.231L163.501 17.4581L166.464 10.0242H168.202L162.295 24H160.578L162.602 19.3216Z" fill="#27AE60"/>
<path d="M170.517 11.6498V20.3921H169.107V10.0242H171.498L174.543 17.815L177.67 10.0242H180V20.3921H178.324V11.6498L174.788 20.3921H174.012L170.517 11.6498Z" fill="#27AE60"/>
<path d="M16.0951 0.00643349C13.6392 0.175884 11.7931 0.753754 10.1687 1.8617C8.91944 2.71764 7.5423 4.23834 7.05198 5.30284C6.47213 6.56285 6.50198 8.04011 7.14152 9.34357C7.34617 9.76502 7.70005 10.2777 7.78106 10.2777C7.80237 10.2777 7.97292 9.96489 8.16052 9.58254C8.62525 8.6397 9.00044 7.98363 9.63146 7.01906C10.7485 5.30284 12.1555 3.77344 13.6861 2.60033C14.1679 2.23101 14.5047 2.06156 14.4664 2.20494C14.4621 2.23536 14.2447 2.46129 13.9846 2.7046C10.3307 6.12836 8.21594 9.59557 7.09888 14.0013C7.0733 14.1056 7.03493 14.1881 7.00935 14.1881C6.98376 14.1881 6.91981 14.0838 6.86438 13.9535C6.37407 12.8195 5.7388 11.642 5.31244 11.0815C5.01398 10.6861 4.35739 10.0431 3.78181 9.58254C3.50041 9.3566 3.26591 9.14371 3.26591 9.11329C3.25312 8.86563 4.16553 9.46523 4.85623 10.1648C5.39771 10.7079 5.6919 11.0728 6.07136 11.6724C6.47213 12.3068 6.43376 12.2677 6.5702 12.1895C6.6512 12.146 6.72369 12.0374 6.79617 11.8636C6.9326 11.5204 6.94966 10.7817 6.82601 10.4081C6.60004 9.73026 6.2419 9.29143 5.50003 8.79177C4.71553 8.26604 4.10584 7.97928 3.28297 7.75769C2.54536 7.55348 2.03373 7.497 0.959308 7.50134H0L0.10659 7.58824C0.16628 7.63603 0.383723 7.7968 0.592639 7.94452C1.74381 8.75701 2.38335 9.70854 2.68606 11.0381C2.88645 11.9157 3.08258 12.3242 3.49188 12.6978C4.16553 13.3148 5.176 13.4538 5.76864 13.015C5.98182 12.8586 6.09267 12.8499 6.17795 12.9802C6.31012 13.1975 6.72795 14.275 6.80896 14.6226C6.8857 14.9571 6.89423 15.0658 6.86438 15.8174C6.80896 17.2078 6.85159 17.8943 7.06051 18.9892C7.29927 20.2188 7.61478 21.1747 8.14773 22.2696C8.783 23.5687 9.55898 24.6462 10.6206 25.702C12.5861 27.6529 14.9183 28.8216 17.7152 29.2518C18.4272 29.3604 20.3459 29.3604 21.0835 29.2518C25.2703 28.6261 28.7878 26.0453 30.6297 22.2478C31.0859 21.3137 31.3374 20.6142 31.5762 19.6409C32.0324 17.7639 32.1176 16.0086 31.8448 14.3185C31.2052 10.4081 28.4893 6.90175 24.8781 5.33325C23.7312 4.83359 22.5459 4.53814 21.2327 4.41214C20.2947 4.32524 19.1222 4.38607 18.8024 4.54248C18.7086 4.59028 18.5253 4.64676 18.3889 4.67283C18.197 4.71193 18.1032 4.76407 17.9156 4.93352C17.7408 5.08559 17.6257 5.15077 17.4935 5.17249C17.2164 5.22028 16.9989 5.35063 16.6792 5.66781C16.3466 5.99367 16.2912 6.07623 16.3296 6.19354C16.3722 6.32388 16.4916 6.29781 16.7602 6.10664C17.1269 5.84595 17.5617 5.72429 18.2866 5.67215C18.6148 5.65043 19.0028 5.59829 19.1435 5.56353C19.5059 5.46794 20.0431 5.19856 20.4908 4.88573L20.8745 4.61635L21.2668 4.64676C22.3668 4.72497 23.616 5.02911 24.7843 5.5027C24.9932 5.5896 24.9676 5.71126 24.699 5.8894C24.5583 5.98498 24.375 6.17181 24.2257 6.37602C23.9571 6.74099 23.8932 6.7714 23.7098 6.62368C23.5734 6.51506 23.5734 6.49333 23.7056 6.33257C23.7653 6.25871 23.8122 6.19354 23.8122 6.17616C23.8122 6.16312 23.7013 6.11967 23.5691 6.08492C23.4327 6.04581 23.1939 5.97629 23.0319 5.92415C22.7122 5.82422 22.4308 5.83291 22.2602 5.95022C22.2005 5.98933 22.0001 6.20223 21.8083 6.42816C21.4928 6.80616 21.3137 6.96258 20.9556 7.1581C20.8362 7.22762 20.8234 7.25368 20.8362 7.41445C20.8447 7.54914 20.8788 7.61866 20.9598 7.67948C21.0536 7.75335 21.0877 7.75769 21.2668 7.7099C21.4459 7.65776 21.4715 7.6621 21.5567 7.74031C21.6079 7.78376 21.6846 7.90542 21.7273 8.0097C21.7955 8.1748 21.8211 8.19218 21.9021 8.17045C22.0811 8.11397 22.1451 8.01838 22.1707 7.76204C22.2474 6.99734 22.4436 6.49768 22.661 6.49768C22.8187 6.49768 22.8486 6.61499 22.7505 6.84961C22.6397 7.12768 22.6354 7.245 22.7463 7.34493C22.8145 7.40576 22.8699 7.41445 23.0362 7.39272C23.2323 7.36665 23.5137 7.42748 23.5137 7.49265C23.5137 7.51003 23.4412 7.54479 23.356 7.56652C23.1854 7.60997 23.0959 7.72293 22.8187 8.22259C22.6951 8.44418 22.661 8.47894 22.5118 8.50501C22.2091 8.55715 21.5994 8.54411 21.4459 8.47894C21.3478 8.43549 21.2881 8.43115 21.2711 8.46156C21.254 8.48328 21.0494 8.6006 20.8106 8.71356C20.5761 8.82653 20.3416 8.96122 20.2947 9.0177C20.1838 9.14371 19.8001 9.33923 19.5187 9.40874L19.297 9.46957L19.442 9.63468C19.5614 9.76502 19.5912 9.83454 19.5912 9.97358C19.5912 10.1821 19.4931 10.4428 19.3993 10.4776C19.3397 10.5037 18.8451 10.4168 18.5466 10.3299C18.3633 10.2777 18.2396 10.3472 18.2098 10.5167C18.1927 10.5949 18.1331 10.7817 18.0734 10.9295C17.9284 11.2901 17.9455 11.4812 18.1331 11.6073C18.359 11.7637 18.6447 11.8071 18.9346 11.7289C19.216 11.655 19.3141 11.5812 19.3567 11.4161C19.4036 11.2162 19.5784 11.0294 19.83 10.9034C20.0048 10.8165 20.0858 10.747 20.1369 10.6297L20.2137 10.4732L20.478 10.4863C20.6742 10.495 20.7808 10.4776 20.9087 10.4081C21.0025 10.3603 21.1176 10.3212 21.1687 10.3212C21.2796 10.3212 22.2687 11.2553 22.3412 11.4291L22.3967 11.5595L22.4265 11.3987C22.4649 11.1901 22.4222 11.0728 22.2815 10.999C22.1408 10.9208 21.8381 10.5949 21.7486 10.4168C21.6292 10.1821 21.7443 10.0735 21.9404 10.2256C21.9959 10.269 22.192 10.3994 22.3753 10.5123C22.7249 10.7296 22.9339 10.9642 22.9808 11.1945C22.9978 11.2727 23.0532 11.3466 23.13 11.3857C23.2622 11.4552 23.4284 11.4726 23.4327 11.4161C23.4583 11.1467 23.5222 11.0685 23.7397 11.0294C23.9401 10.999 24.0083 11.0555 24.0893 11.3292C24.2087 11.7419 24.3408 11.8462 24.8226 11.9027C24.9761 11.9244 25.1339 11.907 25.3257 11.8549C25.5347 11.7984 25.6242 11.7897 25.6796 11.8245C25.7819 11.894 25.8757 12.5284 25.8161 12.7586C25.7393 13.0497 25.6754 13.0671 24.7843 13.0497C24.0424 13.0367 23.9912 13.028 23.7184 12.9151C23.373 12.7673 23.2877 12.7847 23.1684 13.0193C22.9808 13.4017 22.8102 13.4495 22.4649 13.2235C22.3498 13.1453 22.047 12.9759 21.787 12.8412C21.2753 12.5762 21.2966 12.6109 21.3649 12.2242C21.3862 12.0982 21.3734 12.0504 21.3009 11.9766C21.2199 11.894 21.1645 11.8853 20.687 11.8853C20.1369 11.8853 19.6424 11.9331 19.1435 12.0374C18.9773 12.0722 18.73 12.0939 18.5893 12.0939C18.1117 12.0808 17.6555 12.3719 17.4594 12.8238C17.3102 13.1584 17.178 13.2844 16.871 13.38C16.7389 13.4234 16.5854 13.4842 16.5342 13.519C16.4617 13.5668 16.0993 14.0013 15.8478 14.3402C15.8307 14.3619 15.7668 14.4445 15.7071 14.5227C15.6005 14.653 15.5962 14.6791 15.6133 15.044C15.6303 15.3916 15.6218 15.4698 15.4811 15.9174C15.302 16.4865 15.2978 16.5821 15.4129 16.8472C15.4598 16.9558 15.5365 17.2165 15.5877 17.4294C15.8051 18.3722 16.2955 18.8415 17.323 19.0761C18.1757 19.2716 18.6532 19.2542 19.1222 19.0109C19.3482 18.8936 19.5273 18.898 19.6552 19.0326C19.7149 19.0891 19.7618 19.163 19.7618 19.1977C19.7618 19.2282 19.8129 19.302 19.8726 19.3629C19.9621 19.4497 20.0261 19.4671 20.2649 19.4715C20.6443 19.4758 20.6443 19.4758 20.7424 19.5758C20.8618 19.6974 20.8618 20.2144 20.7424 20.4838C20.6955 20.5881 20.6571 20.7011 20.6571 20.7402C20.6571 20.7749 20.7808 20.94 20.9342 21.1008C21.2583 21.444 21.4331 21.7873 21.5354 22.2913C21.6207 22.7041 21.6079 22.7953 21.399 23.0647C21.2711 23.2298 21.237 23.321 21.2199 23.4992C21.1986 23.7816 21.2668 23.9641 21.5525 24.3551C21.7571 24.6375 21.7656 24.6593 21.7784 24.9721C21.787 25.2545 21.804 25.324 21.9234 25.5108C22.0598 25.7237 22.2261 26.0496 22.3156 26.2799C22.3881 26.4711 22.499 26.4841 23.1598 26.3972C23.8292 26.306 23.9188 26.2755 24.3494 25.9975C24.7672 25.7194 24.9378 25.5586 25.1168 25.2632C25.2234 25.0894 25.3385 24.9634 25.4835 24.8765C25.6967 24.7418 25.7777 24.6158 25.8587 24.2769C25.9184 24.0379 26.0761 23.8598 26.4599 23.5948C26.9203 23.2819 27.044 23.1516 27.1164 22.9039C27.1975 22.6259 27.1975 22.426 27.1079 21.6787L27.0397 21.0617L27.3723 20.5273C27.8157 19.8147 27.8711 19.7452 28.2463 19.3324C28.6002 18.9457 28.8134 18.5764 28.9882 18.0377C29.1289 17.6119 29.2568 16.9819 29.2141 16.9384C29.1971 16.921 29.0223 16.9862 28.8304 17.0861C28.6386 17.1817 28.4211 17.2773 28.3444 17.2903C28.1482 17.3338 27.9521 17.2252 27.8072 16.9906C27.7389 16.8863 27.594 16.7299 27.4789 16.643C27.2188 16.4474 26.8436 16.0347 26.6986 15.787C26.6389 15.6827 26.5494 15.4742 26.4982 15.3221C26.4513 15.1744 26.3618 14.9702 26.2978 14.8703C26.0506 14.4662 25.8033 14.0751 25.7265 13.9622C25.6839 13.897 25.6455 13.8101 25.6455 13.771C25.6455 13.6884 25.7649 13.5842 25.8587 13.5842C25.9312 13.5842 26.5153 14.3749 26.9416 15.044C27.0951 15.2874 27.3254 15.6089 27.4575 15.7523C27.5854 15.8956 27.692 16.0434 27.692 16.0781C27.692 16.2215 27.8711 16.6908 27.9521 16.7603C28.0374 16.8341 28.0502 16.8341 28.2037 16.7516C28.6215 16.5343 29.5041 15.6349 29.794 15.1309C29.9176 14.9137 30.037 14.4575 30.037 14.1751C30.037 14.0187 30.0242 14.0056 29.8153 13.9057C29.5211 13.7667 29.406 13.771 29.2013 13.9274C28.9796 14.0969 28.8773 14.0925 28.6641 13.8927C28.4808 13.7275 27.9905 13.0063 27.9905 12.9064C27.9905 12.8325 28.1056 12.7108 28.1781 12.7108C28.2079 12.7108 28.2847 12.7717 28.3572 12.8455C28.6172 13.128 28.8901 13.3191 29.0351 13.3191C29.1118 13.3191 29.1971 13.2887 29.2269 13.254C29.3037 13.1627 29.3889 13.1714 29.5339 13.2974C29.7172 13.4538 29.892 13.4364 30.3269 13.2235C30.6296 13.0758 30.7533 13.0411 31.0048 13.0237C31.363 13.002 31.3459 12.9846 31.4824 13.5494C31.7041 14.4749 31.7595 15.0093 31.7595 16.2519C31.7638 17.1817 31.7467 17.5293 31.687 17.9247C31.4312 19.5497 30.7064 21.4093 29.7599 22.8561C29.3122 23.5426 28.9413 23.9988 28.3316 24.6201C27.3424 25.6325 26.3234 26.3624 24.9847 27.0272C22.111 28.4436 19.2459 28.7608 16.5641 27.957C14.6497 27.3791 12.8675 26.2886 11.4094 24.7939C10.0109 23.3601 8.99192 21.6874 8.34811 19.7713C7.91323 18.4635 7.72563 17.2686 7.72563 15.7957C7.72563 14.0708 7.98571 12.6935 8.51866 11.5812C8.73184 11.138 8.80432 11.1076 9.16672 11.3161C9.95549 11.768 10.8551 11.8419 11.8954 11.5377C13.1233 11.1815 13.9974 10.4906 14.5943 9.40874C15.0334 8.61363 15.3489 7.34058 15.5195 5.67215C15.6261 4.62069 15.6602 4.40779 15.7753 4.00807C16.1548 2.67419 17.097 1.69225 18.5935 1.07962C19.0796 0.879755 19.3823 0.788513 20.0389 0.653822C20.5932 0.540855 20.5846 0.527821 19.8214 0.3323C18.99 0.119402 18.2311 0.0238132 17.2249 0.00643349C16.7346 -0.00225639 16.223 -0.00225639 16.0951 0.00643349ZM25.4963 9.75633C25.4622 9.96923 25.5389 10.117 25.7436 10.2125C25.9354 10.3038 26.2424 10.5384 26.2723 10.6123C26.285 10.647 26.2723 10.7252 26.2467 10.7817C26.1998 10.8903 26.187 10.8903 25.8459 10.8773C25.654 10.8686 25.4025 10.8339 25.2916 10.7991C25.0912 10.7383 25.0785 10.7383 24.8653 10.8556C24.5881 11.0033 24.4091 11.0077 24.2556 10.8686C24.1106 10.7426 24.1064 10.5819 24.2385 10.2169C24.3409 9.94316 24.4517 9.79978 24.5626 9.79978C24.6009 9.79978 24.7033 9.87799 24.7885 9.97358C24.9804 10.1865 25.0486 10.1952 25.0486 10.004C25.0486 9.83889 25.1211 9.75199 25.3471 9.6564C25.4281 9.6173 25.5048 9.58688 25.5091 9.58688C25.5176 9.58254 25.5133 9.66075 25.4963 9.75633Z" fill="#27AE60"/>
<path d="M19.7779 8.15132C19.6216 8.26293 19.61 8.29781 19.7084 8.38849C19.8243 8.49313 19.7953 8.66404 19.6216 8.91866L19.5 9.10352H19.9285C20.3048 9.10352 20.3743 9.09305 20.4496 9.03027C20.5307 8.96051 20.5249 8.94307 20.3512 8.79309C20.2122 8.67101 20.1659 8.5873 20.1485 8.42337C20.1253 8.23503 20.0211 8.09202 19.9053 8.09202C19.8822 8.09202 19.8243 8.11992 19.7779 8.15132Z" fill="#27AE60"/>
<path d="M19.2869 8.66659C19.2112 8.72349 19 9.0386 19 9.09549C19 9.13051 19.2829 9.04297 19.3426 8.98608C19.3745 8.95544 19.4303 8.87667 19.4622 8.80664C19.5578 8.60532 19.4622 8.53092 19.2869 8.66659Z" fill="#27AE60"/>
<path d="M9.15313 14.2128C9.08643 14.4689 9.00405 15.6304 9.00012 16.368C9.00012 18.2582 9.3689 20.0027 10.1378 21.7163C10.4831 22.4936 11.0441 23.4696 11.2873 23.7169C11.3697 23.8008 11.3697 23.8008 11.3697 23.6021C11.3697 23.3592 11.4247 23.2974 11.7385 23.187C11.868 23.1428 11.9896 23.0677 12.021 23.0147C12.0798 22.9131 12.0955 22.4229 12.0563 21.9062C12.0249 21.5043 12.0681 21.3586 12.327 21.0097C12.5035 20.7756 12.531 20.6519 12.4721 20.4179C12.3937 20.1175 12.1701 19.7819 11.6287 19.1459C10.7459 18.1125 10.6243 17.9535 10.6204 17.8298C10.6165 17.5472 10.5733 17.3131 10.4988 17.1453C10.3615 16.8317 10.1457 16.4475 9.91422 16.0986C9.72984 15.8159 9.67883 15.6967 9.61214 15.3831C9.56506 15.1711 9.52583 14.8708 9.52583 14.7118C9.52583 14.4468 9.51406 14.4071 9.41206 14.2878C9.29044 14.1554 9.18059 14.12 9.15313 14.2128Z" fill="#27AE60"/>
</svg>
