<svg width="31" height="30" viewBox="0 0 31 30" fill="none" xmlns="http://www.w3.org/2000/svg">
<path d="M24.875 25.7142H6.125C4.26818 25.7142 2.7508 24.2609 2.64837 22.4297L2.64285 22.2321V6.69636C2.64285 5.42043 3.6341 4.37602 4.88851 4.29121L5.05357 4.28564H21.6607C22.9366 4.28564 23.981 5.27689 24.0659 6.53131L24.0714 6.69636V7.49993H25.9464C27.2223 7.49993 28.2668 8.49117 28.3516 9.74559L28.3571 9.91064V22.2321C28.3571 24.0889 26.9038 25.6063 25.0726 25.7087L24.875 25.7142H6.125H24.875ZM6.125 24.1071H24.875C25.8587 24.1071 26.6656 23.3495 26.7438 22.3859L26.75 22.2321V9.91064C26.75 9.50383 26.4477 9.16762 26.0555 9.11441L25.9464 9.10707H24.0714V20.6249C24.0714 21.0317 23.7691 21.368 23.3769 21.4212L23.2678 21.4285C22.861 21.4285 22.5248 21.1262 22.4716 20.734L22.4643 20.6249V6.69636C22.4643 6.28954 22.162 5.95333 21.7697 5.90012L21.6607 5.89279H5.05357C4.64675 5.89279 4.31054 6.1951 4.25733 6.58732L4.25 6.69636V22.2321C4.25 23.2158 5.00761 24.0226 5.97122 24.1009L6.125 24.1071H24.875H6.125ZM11.4784 13.9322C12.2181 13.9322 12.8177 14.5318 12.8177 15.2715V19.0178C12.8177 19.7575 12.2181 20.3571 11.4784 20.3571H7.73214C6.99247 20.3571 6.39285 19.7575 6.39285 19.0178V15.2715C6.39285 14.5318 6.99247 13.9322 7.73214 13.9322H11.4784ZM15.7679 18.7499H19.5138C19.9576 18.7499 20.3173 19.1097 20.3173 19.5535C20.3173 19.9603 20.015 20.2965 19.6228 20.3497L19.5138 20.3571H15.7679C15.3241 20.3571 14.9643 19.9973 14.9643 19.5535C14.9643 19.1467 15.2666 18.8105 15.6588 18.7573L15.7679 18.7499H19.5138H15.7679ZM11.2106 15.5394H7.99999V18.7499H11.2106V15.5394ZM15.7679 13.9322H19.5138C19.9576 13.9322 20.3173 14.292 20.3173 14.7358C20.3173 15.1426 20.015 15.4788 19.6228 15.532L19.5138 15.5394H15.7679C15.3241 15.5394 14.9643 15.1796 14.9643 14.7358C14.9643 14.329 15.2666 13.9928 15.6588 13.9396L15.7679 13.9322H19.5138H15.7679ZM7.19256 9.10349H19.5138C19.9576 9.10349 20.3173 9.46326 20.3173 9.90706C20.3173 10.3139 20.015 10.6501 19.6228 10.7033L19.5138 10.7106H7.19256C6.74876 10.7106 6.38899 10.3509 6.38899 9.90706C6.38899 9.50025 6.6913 9.16404 7.08352 9.11083L7.19256 9.10349H19.5138H7.19256Z" fill="#27AE60"/>
</svg>
