<svg width="30" height="30" viewBox="0 0 30 30" fill="none" xmlns="http://www.w3.org/2000/svg">
<g clip-path="url(#clip0_706_3565)">
<path d="M25.4648 3.22355C25.4225 2.94632 25.1841 2.74159 24.9038 2.74159H22.6679V0.567563C22.6679 0.25413 22.4138 0 22.1003 0H7.8995C7.58606 0 7.33204 0.25413 7.33204 0.567563V2.74159H5.09603C4.8156 2.74159 4.57735 2.94632 4.53496 3.22355L3.97719 6.88017C3.95224 7.04375 3.99999 7.21011 4.10777 7.33563C4.21554 7.46114 4.37283 7.53334 4.53826 7.53334H5.47423L5.93174 12.4923C5.86429 12.5236 5.80272 12.5678 5.75136 12.624C5.64389 12.742 5.59098 12.8997 5.60563 13.0585L6.60172 23.868C6.62421 24.1117 6.79871 24.3071 7.02624 24.3653L7.49809 29.4845C7.52501 29.7766 7.76996 30 8.06318 30H21.9366C22.2299 30 22.4748 29.7766 22.5017 29.4846L22.9741 24.3651C23.2013 24.3069 23.3757 24.1115 23.3981 23.868L24.3944 13.0586C24.4091 12.8997 24.3561 12.742 24.2486 12.624C24.1972 12.5678 24.1355 12.5234 24.068 12.4921L24.5257 7.53334H25.4617C25.6272 7.53334 25.7844 7.46114 25.8922 7.33563C26 7.21011 26.0477 7.04375 26.0227 6.88017L25.4648 3.22355ZM8.46716 1.13513H21.5329V2.74159H8.46716V1.13513ZM21.4191 28.8649H8.58092L8.16776 24.3835H21.8325L21.4191 28.8649ZM22.3154 23.2483H7.68456L6.79294 13.574H23.207L22.3154 23.2483ZM22.9331 12.4388H7.06677L6.6142 7.53334H23.3858L22.9331 12.4388ZM5.19896 6.39821L5.58355 3.87672H24.4162L24.8009 6.39821H5.19896Z" fill="#27AE60"/>
<path d="M25.4648 3.22355L25.0693 3.28386L25.0693 3.28389L25.4648 3.22355ZM22.6679 2.74159H22.2679V3.14159H22.6679V2.74159ZM7.33204 2.74159V3.14159H7.73204V2.74159H7.33204ZM4.53496 3.22355L4.13956 3.16309L4.13953 3.16323L4.53496 3.22355ZM3.97719 6.88017L4.37262 6.94051L4.37262 6.94049L3.97719 6.88017ZM5.47423 7.53334L5.87254 7.49659L5.83902 7.13334H5.47423V7.53334ZM5.93174 12.4923L6.10035 12.855L6.35595 12.7362L6.33005 12.4555L5.93174 12.4923ZM5.75136 12.624L5.45607 12.3542L5.45564 12.3546L5.75136 12.624ZM5.60563 13.0585L6.00394 13.0218L6.00394 13.0218L5.60563 13.0585ZM6.60172 23.868L6.20341 23.9047L6.20341 23.9047L6.60172 23.868ZM7.02624 24.3653L7.42455 24.3286L7.39865 24.0477L7.12531 23.9778L7.02624 24.3653ZM7.49809 29.4845L7.8964 29.4478L7.8964 29.4478L7.49809 29.4845ZM22.5017 29.4846L22.1034 29.4479L22.1034 29.4479L22.5017 29.4846ZM22.9741 24.3651L22.8749 23.9776L22.6017 24.0475L22.5758 24.3284L22.9741 24.3651ZM23.3981 23.868L22.9998 23.8313L22.9998 23.8314L23.3981 23.868ZM24.3944 13.0586L24.7927 13.0953L24.7927 13.0953L24.3944 13.0586ZM24.2486 12.624L24.5442 12.3545L24.5439 12.3542L24.2486 12.624ZM24.068 12.4921L23.6697 12.4553L23.6438 12.7362L23.8996 12.8549L24.068 12.4921ZM24.5257 7.53334V7.13334H24.1609L24.1274 7.49657L24.5257 7.53334ZM25.8922 7.33563L25.5888 7.0749L25.5887 7.07504L25.8922 7.33563ZM26.0227 6.88017L26.4182 6.81984L26.4182 6.81983L26.0227 6.88017ZM8.46716 1.13513V0.735127H8.06716V1.13513H8.46716ZM21.5329 1.13513H21.9329V0.735127H21.5329V1.13513ZM21.5329 2.74159V3.14159H21.9329V2.74159H21.5329ZM8.46716 2.74159H8.06716V3.14159H8.46716V2.74159ZM21.4191 28.8649V29.2649H21.7839L21.8174 28.9016L21.4191 28.8649ZM8.58092 28.8649L8.18261 28.9016L8.2161 29.2649H8.58092V28.8649ZM8.16776 24.3835V23.9835H7.72918L7.76945 24.4202L8.16776 24.3835ZM21.8325 24.3835L22.2308 24.4202L22.2711 23.9835H21.8325V24.3835ZM22.3154 23.2483V23.6483H22.6802L22.7137 23.285L22.3154 23.2483ZM7.68456 23.2483L7.28625 23.285L7.31973 23.6483H7.68456V23.2483ZM6.79294 13.574V13.174H6.35438L6.39463 13.6107L6.79294 13.574ZM23.207 13.574L23.6053 13.6107L23.6456 13.174H23.207V13.574ZM22.9331 12.4388V12.8388H23.2978L23.3314 12.4756L22.9331 12.4388ZM7.06677 12.4388L6.66846 12.4756L6.70197 12.8388H7.06677V12.4388ZM6.6142 7.53334V7.13334H6.1756L6.21589 7.57009L6.6142 7.53334ZM23.3858 7.53334L23.7841 7.5701L23.8245 7.13334H23.3858V7.53334ZM5.19896 6.39821L4.80353 6.3379L4.73332 6.79821H5.19896V6.39821ZM5.58355 3.87672V3.47672H5.23994L5.18813 3.8164L5.58355 3.87672ZM24.4162 3.87672L24.8116 3.81639L24.7598 3.47672H24.4162V3.87672ZM24.8009 6.39821V6.79821H25.2665L25.1963 6.33788L24.8009 6.39821ZM25.8602 3.16324C25.7881 2.69066 25.3818 2.34159 24.9038 2.34159V3.14159C24.9865 3.14159 25.0568 3.20197 25.0693 3.28386L25.8602 3.16324ZM24.9038 2.34159H22.6679V3.14159H24.9038V2.34159ZM23.0679 2.74159V0.567563H22.2679V2.74159H23.0679ZM23.0679 0.567563C23.0679 0.0332165 22.6347 -0.4 22.1003 -0.4V0.4C22.1929 0.4 22.2679 0.475043 22.2679 0.567563H23.0679ZM22.1003 -0.4H7.8995V0.4H22.1003V-0.4ZM7.8995 -0.4C7.36506 -0.4 6.93204 0.0333101 6.93204 0.567563H7.73204C7.73204 0.474949 7.80707 0.4 7.8995 0.4V-0.4ZM6.93204 0.567563V2.74159H7.73204V0.567563H6.93204ZM7.33204 2.34159H5.09603V3.14159H7.33204V2.34159ZM5.09603 2.34159C4.61787 2.34159 4.21178 2.69071 4.13956 3.16309L4.93036 3.28401C4.94292 3.20192 5.01332 3.14159 5.09603 3.14159V2.34159ZM4.13953 3.16323L3.58177 6.81986L4.37262 6.94049L4.93039 3.28387L4.13953 3.16323ZM3.58177 6.81984C3.5392 7.09881 3.62065 7.38234 3.80429 7.59621L4.41124 7.07504C4.37933 7.03788 4.36527 6.98868 4.37262 6.94051L3.58177 6.81984ZM3.80429 7.59621C3.98812 7.8103 4.25628 7.93334 4.53826 7.93334V7.13334C4.48938 7.13334 4.44296 7.11199 4.41124 7.07504L3.80429 7.59621ZM4.53826 7.93334H5.47423V7.13334H4.53826V7.93334ZM5.07592 7.57009L5.53344 12.529L6.33005 12.4555L5.87254 7.49659L5.07592 7.57009ZM5.76314 12.1295C5.64988 12.1822 5.54467 12.2572 5.45607 12.3542L6.04665 12.8938C6.06077 12.8783 6.07871 12.8651 6.10035 12.855L5.76314 12.1295ZM5.45564 12.3546C5.27258 12.5556 5.18234 12.8244 5.20732 13.0952L6.00394 13.0218C5.99962 12.975 6.0152 12.9283 6.04708 12.8933L5.45564 12.3546ZM5.20731 13.0952L6.20341 23.9047L7.00004 23.8313L6.00394 13.0218L5.20731 13.0952ZM6.20341 23.9047C6.24184 24.3212 6.54002 24.6539 6.92716 24.7528L7.12531 23.9778C7.05741 23.9604 7.00658 23.9022 7.00003 23.8312L6.20341 23.9047ZM6.62792 24.402L7.09978 29.5212L7.8964 29.4478L7.42455 24.3286L6.62792 24.402ZM7.09977 29.5212C7.14566 30.0191 7.56324 30.4 8.06318 30.4V29.6C7.97667 29.6 7.90435 29.5341 7.8964 29.4478L7.09977 29.5212ZM8.06318 30.4H21.9366V29.6H8.06318V30.4ZM21.9366 30.4C22.4365 30.4 22.8542 30.0192 22.9001 29.5213L22.1034 29.4479C22.0955 29.534 22.0232 29.6 21.9366 29.6V30.4ZM22.9001 29.5214L23.3724 24.4019L22.5758 24.3284L22.1034 29.4479L22.9001 29.5214ZM23.0733 24.7526C23.4602 24.6536 23.7582 24.3209 23.7964 23.9046L22.9998 23.8314C22.9933 23.9021 22.9425 23.9603 22.8749 23.9776L23.0733 24.7526ZM23.7964 23.9047L24.7927 13.0953L23.9961 13.0219L22.9998 23.8313L23.7964 23.9047ZM24.7927 13.0953C24.8177 12.8244 24.7275 12.5555 24.5442 12.3545L23.953 12.8935C23.9848 12.9284 24.0004 12.975 23.9961 13.0219L24.7927 13.0953ZM24.5439 12.3542C24.4555 12.2575 24.3502 12.1821 24.2364 12.1292L23.8996 12.8549C23.9209 12.8648 23.9389 12.8781 23.9533 12.8938L24.5439 12.3542ZM24.4663 12.5288L24.924 7.5701L24.1274 7.49657L23.6697 12.4553L24.4663 12.5288ZM24.5257 7.93334H25.4617V7.13334H24.5257V7.93334ZM25.4617 7.93334C25.7438 7.93334 26.0118 7.81027 26.1956 7.59621L25.5887 7.07504C25.5569 7.11202 25.5106 7.13334 25.4617 7.13334V7.93334ZM26.1955 7.59635C26.3795 7.38229 26.4607 7.09865 26.4182 6.81984L25.6273 6.94051C25.6347 6.98885 25.6206 7.03792 25.5888 7.0749L26.1955 7.59635ZM26.4182 6.81983L25.8602 3.16321L25.0693 3.28389L25.6273 6.94051L26.4182 6.81983ZM8.46716 1.53513H21.5329V0.735127H8.46716V1.53513ZM21.1329 1.13513V2.74159H21.9329V1.13513H21.1329ZM21.5329 2.34159H8.46716V3.14159H21.5329V2.34159ZM8.86716 2.74159V1.13513H8.06716V2.74159H8.86716ZM21.4191 28.4649H8.58092V29.2649H21.4191V28.4649ZM8.97923 28.8281L8.56607 24.3467L7.76945 24.4202L8.18261 28.9016L8.97923 28.8281ZM8.16776 24.7835H21.8325V23.9835H8.16776V24.7835ZM21.4342 24.3467L21.0208 28.8281L21.8174 28.9016L22.2308 24.4202L21.4342 24.3467ZM22.3154 22.8483H7.68456V23.6483H22.3154V22.8483ZM8.08287 23.2116L7.19125 13.5373L6.39463 13.6107L7.28625 23.285L8.08287 23.2116ZM6.79294 13.974H23.207V13.174H6.79294V13.974ZM22.8087 13.5373L21.9171 23.2116L22.7137 23.285L23.6053 13.6107L22.8087 13.5373ZM22.9331 12.0388H7.06677V12.8388H22.9331V12.0388ZM7.46508 12.4021L7.01251 7.49659L6.21589 7.57009L6.66846 12.4756L7.46508 12.4021ZM6.6142 7.93334H23.3858V7.13334H6.6142V7.93334ZM22.9875 7.49658L22.5348 12.4021L23.3314 12.4756L23.7841 7.5701L22.9875 7.49658ZM5.59438 6.45853L5.97898 3.93703L5.18813 3.8164L4.80353 6.3379L5.59438 6.45853ZM24.0207 3.93705L24.4054 6.45854L25.1963 6.33788L24.8116 3.81639L24.0207 3.93705ZM24.8009 5.99821H5.19896V6.79821H24.8009V5.99821ZM5.58355 4.27672H24.4162V3.47672H5.58355V4.27672Z" fill="#27AE60"/>
</g>
<defs>
<clipPath id="clip0_706_3565">
<rect width="30" height="30" fill="white"/>
</clipPath>
</defs>
</svg>
