<svg width="24" height="24" viewBox="0 0 24 24" fill="none" xmlns="http://www.w3.org/2000/svg">
<path d="M2.92444 4.12856C2.98896 2.93485 3.9757 2 5.17116 2H6.32894C7.52439 2 8.51114 2.93485 8.57566 4.12856L9.4135 19.6286C9.48315 20.917 8.45714 22 7.16678 22H4.33332C3.04296 22 2.01695 20.917 2.0866 19.6286L2.92444 4.12856ZM5.17116 3.5C4.77267 3.5 4.44376 3.81162 4.42225 4.20952L3.58441 19.7095C3.5612 20.139 3.9032 20.5 4.33332 20.5H7.16678C7.5969 20.5 7.9389 20.139 7.91568 19.7095L7.07785 4.20952C7.05634 3.81162 6.72742 3.5 6.32894 3.5H5.17116Z" fill="white"/>
<path d="M9.51172 22H19.7499C20.9925 22 21.9999 20.9927 21.9999 19.75V6.00002C21.9999 5.69946 21.8204 5.42792 21.5439 5.31007C21.2674 5.19223 20.9473 5.25083 20.7305 5.45898L15.7499 10.2404V6.00002C15.7499 5.70947 15.582 5.44506 15.3191 5.32137C15.0562 5.19768 14.7455 5.23698 14.5217 5.42222L9.85554 9.28385L9.95628 11.1475L14.2499 7.59424V12C14.2499 12.3006 14.4293 12.5721 14.7058 12.69C14.9823 12.8078 15.3024 12.7492 15.5193 12.5411L20.4999 7.75968V19.75C20.4999 20.1642 20.1641 20.5 19.7499 20.5H18.7499V16C18.7499 15.0335 17.9664 14.25 16.9999 14.25H12.9999C12.0334 14.25 11.2499 15.0335 11.2499 16V20.5H10.3299C10.1945 21.0724 9.90711 21.5879 9.51172 22ZM17.2499 16V20.25H12.7499V16C12.7499 15.8619 12.8618 15.75 12.9999 15.75H16.9999C17.138 15.75 17.2499 15.8619 17.2499 16Z" fill="white"/>
</svg>
