<svg width="21" height="22" viewBox="0 0 21 22" fill="none" xmlns="http://www.w3.org/2000/svg">
<path d="M7.52531 2.57174L8.42698 4.57746C8.90972 5.65129 8.65533 6.91329 7.79427 7.71624L6.29997 9.1097C6.25629 9.15042 6.22864 9.20544 6.22201 9.26479C6.17765 9.66193 6.44688 10.4353 7.06715 11.5097C7.5182 12.2909 7.92644 12.8388 8.27394 13.1469C8.51604 13.3616 8.64932 13.408 8.70605 13.3911L10.7164 12.7765C11.842 12.4324 13.0618 12.8428 13.7505 13.7973L15.0312 15.5723C15.8373 16.6895 15.6924 18.2308 14.6921 19.1781L13.8057 20.0175C12.8493 20.9232 11.4877 21.2608 10.219 20.9066C7.4649 20.1379 4.9956 17.8138 2.78372 13.9827C0.568772 10.1463 -0.20842 6.84185 0.508032 4.07007C0.8359 2.80158 1.80203 1.79619 3.05646 1.41807L4.22346 1.06631C5.54596 0.667673 6.95896 1.31191 7.52531 2.57174ZM4.65636 2.50248L3.48936 2.85425C2.7367 3.08112 2.15702 3.68435 1.9603 4.44544C1.35765 6.77696 2.04651 9.70581 4.08276 13.2327C6.11629 16.7549 8.30523 18.8151 10.6223 19.4619C11.3835 19.6743 12.2004 19.4718 12.7743 18.9284L13.6606 18.089C14.1153 17.6584 14.1812 16.9578 13.8148 16.4499L12.5341 14.675C12.221 14.2411 11.6666 14.0546 11.1549 14.211L9.13958 14.8271C7.96987 15.1758 6.9082 14.2344 5.76811 12.2597C4.9998 10.9289 4.64171 9.90024 4.73128 9.09829C4.77768 8.68286 4.97125 8.29775 5.27697 8.01267L6.77127 6.61921C7.16266 6.25423 7.27829 5.68059 7.05887 5.19249L6.1572 3.18677C5.89977 2.61412 5.25749 2.32129 4.65636 2.50248ZM15.1483 1.00393L15.2501 0.997083C15.6298 0.997083 15.9436 1.27924 15.9933 1.64531L16.0001 1.74708L15.9995 5.00085L19.2519 5.00174C19.6316 5.00174 19.9453 5.28389 19.995 5.64996L20.0019 5.75174C20.0019 6.13143 19.7197 6.44523 19.3536 6.49489L19.2519 6.50174L15.9995 6.50085L16.0001 9.75005C16.0001 10.1298 15.718 10.4435 15.3519 10.4932L15.2501 10.5001C14.8704 10.5001 14.5566 10.2179 14.507 9.85182L14.5001 9.75005L14.4995 6.50085L11.2484 6.50174C10.8687 6.50174 10.5549 6.21958 10.5052 5.85351L10.4984 5.75174C10.4984 5.37204 10.7805 5.05824 11.1466 5.00858L11.2484 5.00174L14.4995 5.00085L14.5001 1.74708C14.5001 1.36739 14.7823 1.05359 15.1483 1.00393L15.2501 0.997083L15.1483 1.00393Z" fill="white"/>
</svg>
