<svg width="124" height="37" viewBox="0 0 124 37" fill="none" xmlns="http://www.w3.org/2000/svg">
<path d="M18.6781 8.75266C18.6781 6.7633 17.7137 5.20545 14.8884 5.20545H5.18409V17.1742H7.87611V12.9634H14.0913C15.4869 12.9634 15.8528 13.3545 15.8528 14.7533V17.1742H18.5449V14.3231C18.5449 12.9009 18.0391 12.0665 16.9166 11.7823C18.0849 11.3886 18.6781 10.261 18.6781 8.75266ZM14.5238 10.4474H7.87611V7.72539H14.5238C15.5209 7.72539 15.9861 8.25597 15.9861 9.05119C15.9861 9.84642 15.5876 10.4435 14.5238 10.4435V10.4474ZM122.803 19.8336H123.8V31.7959H121.108V23.3078L115.558 31.7959H112.467V19.8271H115.159V28.0179L119.211 21.75C120.244 20.1582 121.141 19.8271 122.803 19.8271V19.8336ZM70.259 17.1742V14.6217C71.3554 14.6217 71.622 13.9581 71.8546 11.7367L72.5851 5.20545H82.2241V17.1742H79.5321V7.72539H74.889L74.4133 12.2999C74.0148 16.246 72.951 17.3072 70.259 17.1742ZM0 37H23.7302V0H0V37ZM2.5927 2.58382H21.1376V34.4162H2.5927V2.58382ZM15.8528 19.8271H18.5449V31.7959H9.93171C6.47521 31.7959 5.17886 30.5026 5.17886 27.0545V19.8271H7.87088V27.1158C7.87088 28.641 8.4694 29.2707 9.86506 29.2707H15.8476L15.8528 19.8271ZM87.4409 13.1668H93.3907V17.1781H96.0827V5.20545H89.1698C85.7799 5.20545 84.7488 6.13364 84.7488 9.61437V17.1755H87.4409V13.1668ZM89.1698 7.7293H93.3907V10.6755H87.4409V9.61437C87.4409 8.25597 87.6081 7.72539 89.1698 7.72539V7.7293ZM57.0642 12.764V9.61437C57.0642 6.16623 58.0286 5.20545 61.4851 5.20545H68.5301V7.72539H61.3518C59.9562 7.72539 59.7562 7.95744 59.7562 9.4827V9.88031H66.5699V12.3664H59.7562V12.8969C59.7562 14.4222 59.9562 14.6543 61.3518 14.6543H68.6307V17.1742H61.4851C58.0286 17.1742 57.0642 16.1795 57.0642 12.764ZM119.579 5.20284H116.622C113.198 5.20284 112.202 6.16363 112.202 9.61176V12.764C112.202 16.1795 113.531 17.1742 116.954 17.1742H119.247C122.704 17.1742 124 16.1795 124 12.764V9.61437C124 6.16623 123.036 5.20545 119.579 5.20545V5.20284ZM121.308 12.764C121.308 14.2892 120.976 14.6543 119.579 14.6543H116.622C115.226 14.6543 114.894 14.2892 114.894 12.764V9.61437C114.894 8.08911 115.226 7.72539 116.622 7.72539H119.579C120.976 7.72539 121.308 8.08911 121.308 9.61437V12.764ZM75.2105 19.8271H82.59V21.3185C82.59 22.5126 82.4907 23.5073 82.2254 24.4016H79.9307V22.3457H75.2105C73.8148 22.3457 73.4829 22.7108 73.4829 24.236V27.3856C73.4829 28.9109 73.8148 29.2759 75.2105 29.2759H82.59V31.7959H75.2105C71.788 31.7959 70.7909 30.8012 70.7909 27.3856V24.236C70.7909 20.7879 71.788 19.8271 75.2105 19.8271ZM54.0403 5.20545H44.2392L43.642 11.2726C43.3428 14.1576 42.9102 14.6217 42.1131 14.6217H41.9484V18.3018H44.5071L44.6064 16.7766H52.5165L52.6158 18.3018H55.1759V14.5878H54.0455L54.0403 5.20545ZM46.6019 7.72539H51.3482V14.2892H45.5905C45.9577 13.6478 46.1132 12.7535 46.2295 11.6037L46.6019 7.72539ZM64.4764 19.8271H61.2891C57.8666 19.8271 56.8695 20.7879 56.8695 24.236V27.3856C56.8695 30.8012 57.8666 31.7959 61.2891 31.7959H64.4803C67.9368 31.7959 68.8999 30.8012 68.8999 27.3856V24.236C68.896 20.7879 67.9329 19.8271 64.4764 19.8271ZM66.204 27.3882C66.204 28.9135 65.8721 29.2785 64.4764 29.2785H61.2891C59.8934 29.2785 59.5615 28.9135 59.5615 27.3882V24.236C59.5615 22.7108 59.8934 22.3457 61.2891 22.3457H64.4803C65.876 22.3457 66.2079 22.7108 66.2079 24.236L66.204 27.3882ZM88.9032 19.8271H96.3114V21.3185C96.3114 22.5126 96.2121 23.5073 95.9455 24.4016H93.656V22.3457H88.9032C87.5075 22.3457 87.1756 22.7108 87.1756 24.236V27.3856C87.1756 28.9109 87.5075 29.2759 88.9032 29.2759H96.3114V31.7959H88.9032C85.4807 31.7959 84.4836 30.8012 84.4836 27.3856V24.236C84.4836 20.7879 85.4807 19.8271 88.9032 19.8271ZM38.5272 25.4706C39.1584 25.086 39.6824 24.2699 39.6824 23.0093C39.6824 21.385 38.752 19.8271 35.9933 19.8271H28.9483V31.7959H36.2664C38.9245 31.7959 40.2208 30.4362 40.2208 28.2147C40.2143 26.7247 39.3544 25.8408 38.5272 25.4706ZM36.9904 23.4069C36.9904 24.137 36.6245 24.5346 35.694 24.5346H31.6429V22.3796H35.694C36.6245 22.3796 36.9904 22.7108 36.9904 23.4069ZM36.2926 29.2733H31.6403V26.9541H36.2926C37.1903 26.9541 37.5223 27.3856 37.5223 28.0818C37.5223 28.7779 37.1903 29.2759 36.2926 29.2759V29.2733ZM107.252 5.20284H109.944V17.1716H107.249V12.3664H101.301V17.1742H98.6088V5.20545H101.301V9.84642H107.249L107.252 5.20284ZM32.972 5.20284H40.3162V6.69681C40.3162 7.89095 40.2169 8.88563 39.9516 9.78123H37.6556V7.72539H32.9694C31.5737 7.72539 31.2405 8.08911 31.2405 9.61437V12.764C31.2405 14.2892 31.5737 14.6543 32.9694 14.6543H40.3136V17.1742H32.9694C29.5455 17.1742 28.5484 16.1795 28.5484 12.764V9.61437C28.5484 6.16623 29.5455 5.20545 32.9694 5.20545L32.972 5.20284ZM108.944 19.8271H109.941V31.7959H107.249V23.3078L101.699 31.7959H98.6088V19.8271H101.301V28.0179L105.352 21.75C106.386 20.1582 107.289 19.8271 108.944 19.8271ZM51.0163 19.8271H43.1755V22.1737L44.5712 22.3731V31.7959H47.2632V28.7114H51.0189C54.1095 28.7114 55.1733 27.1471 55.1733 24.734V23.8045C55.1706 21.5179 54.1736 19.8271 51.0163 19.8271ZM52.5113 24.6389C52.5113 25.7665 52.0787 26.2032 51.0163 26.2032H47.2606V22.3457H51.0163C52.0787 22.3457 52.5113 22.8763 52.5113 23.9101V24.6389Z" fill="white"/>
</svg>
