<svg width="24" height="24" viewBox="0 0 24 24" fill="none" xmlns="http://www.w3.org/2000/svg">
<path d="M19.5001 20.5714H4.50007C3.01461 20.5714 1.80072 19.4087 1.71877 17.9438L1.71436 17.7857V5.35713C1.71436 4.33639 2.50735 3.50086 3.51088 3.43301L3.64293 3.42856H16.9286C17.9494 3.42856 18.7849 4.22155 18.8528 5.22509L18.8572 5.35713V5.99999H20.3572C21.378 5.99999 22.2135 6.79298 22.2813 7.79652L22.2858 7.92856V17.7857C22.2858 19.2712 21.1231 20.4851 19.6581 20.567L19.5001 20.5714H4.50007H19.5001ZM4.50007 19.2857H19.5001C20.2871 19.2857 20.9325 18.6796 20.9951 17.9087L21.0001 17.7857V7.92856C21.0001 7.6031 20.7582 7.33414 20.4444 7.29157L20.3572 7.2857H18.8572V16.5C18.8572 16.8254 18.6154 17.0944 18.3016 17.137L18.2144 17.1428C17.8889 17.1428 17.6199 16.901 17.5774 16.5872L17.5715 16.5V5.35713C17.5715 5.03168 17.3296 4.76271 17.0159 4.72014L16.9286 4.71427H3.64293C3.31747 4.71427 3.04851 4.95612 3.00594 5.2699L3.00007 5.35713V17.7857C3.00007 18.5727 3.60616 19.2182 4.37705 19.2807L4.50007 19.2857H19.5001H4.50007ZM8.78281 11.1458C9.37454 11.1458 9.85424 11.6255 9.85424 12.2172V15.2143C9.85424 15.806 9.37454 16.2857 8.78281 16.2857H5.78578C5.19405 16.2857 4.71436 15.806 4.71436 15.2143V12.2172C4.71436 11.6255 5.19405 11.1458 5.78578 11.1458H8.78281ZM12.2144 15H15.2111C15.5661 15 15.8539 15.2878 15.8539 15.6428C15.8539 15.9683 15.6121 16.2373 15.2983 16.2798L15.2111 16.2857H12.2144C11.8593 16.2857 11.5715 15.9979 11.5715 15.6428C11.5715 15.3174 11.8133 15.0484 12.1271 15.0059L12.2144 15H15.2111H12.2144ZM8.56852 12.4315H6.00007V15H8.56852V12.4315ZM12.2144 11.1458H15.2111C15.5661 11.1458 15.8539 11.4336 15.8539 11.7887C15.8539 12.1141 15.6121 12.3831 15.2983 12.4257L15.2111 12.4315H12.2144C11.8593 12.4315 11.5715 12.1437 11.5715 11.7887C11.5715 11.4632 11.8133 11.1943 12.1271 11.1517L12.2144 11.1458H15.2111H12.2144ZM5.35412 7.28284H15.2111C15.5661 7.28284 15.8539 7.57065 15.8539 7.92569C15.8539 8.25115 15.6121 8.52011 15.2983 8.56268L15.2111 8.56855H5.35412C4.99908 8.56855 4.71127 8.28073 4.71127 7.92569C4.71127 7.60024 4.95311 7.33127 5.26689 7.28871L5.35412 7.28284H15.2111H5.35412Z" fill="white"/>
</svg>
