<svg width="20" height="24" viewBox="0 0 20 24" fill="none" xmlns="http://www.w3.org/2000/svg">
<path d="M18.3718 2.57884C18.3379 2.35705 18.1473 2.19327 17.923 2.19327H16.1343V0.454051C16.1343 0.203304 15.931 0 15.6802 0H4.31955C4.0688 0 3.86558 0.203304 3.86558 0.454051V2.19327H2.07677C1.85243 2.19327 1.66183 2.35705 1.62792 2.57884L1.18171 5.50414C1.16174 5.635 1.19994 5.76809 1.28616 5.8685C1.37239 5.96891 1.49821 6.02667 1.63056 6.02667H2.37933L2.74535 9.99382C2.69139 10.0189 2.64213 10.0542 2.60104 10.0992C2.51506 10.1936 2.47274 10.3197 2.48445 10.4468L3.28133 19.0944C3.29932 19.2894 3.43892 19.4457 3.62094 19.4922L3.99842 23.5876C4.01996 23.8213 4.21592 24 4.45049 24H15.5492C15.7838 24 15.9798 23.8213 16.0013 23.5877L16.3792 19.4921C16.561 19.4455 16.7005 19.2892 16.7184 19.0944L17.5155 10.4469C17.5272 10.3197 17.4849 10.1936 17.3988 10.0992C17.3577 10.0542 17.3084 10.0187 17.2543 9.99365L17.6205 6.02667H18.3693C18.5017 6.02667 18.6275 5.96891 18.7137 5.8685C18.8 5.76809 18.8381 5.635 18.8181 5.50414L18.3718 2.57884ZM4.77368 0.908101H15.2263V2.19327H4.77368V0.908101ZM15.1352 23.0919H4.86469L4.53416 19.5068H15.4659L15.1352 23.0919ZM15.8523 18.5987H4.1476L3.4343 10.8592H16.5655L15.8523 18.5987ZM16.3464 9.95108H3.65337L3.29131 6.02667H16.7086L16.3464 9.95108ZM17.2065 5.11857H2.79345H2.15912L2.46679 3.10137H4.31947H15.6801H17.5329L17.8407 5.11857H17.2065Z" fill="white" stroke="white" stroke-width="0.8"/>
</svg>
