<svg width="24" height="24" viewBox="0 0 24 24" fill="none" xmlns="http://www.w3.org/2000/svg">
<path d="M17.8193 11.2383H19.3568C19.2944 10.4886 19.0476 10.171 18.9322 10.0593C18.4693 9.61696 17.9655 10.3508 17.8193 11.2383Z" fill="white"/>
<path d="M9.36084 13.4555C9.36084 13.9146 9.51356 14.1996 9.76034 14.1996C10.1561 14.1996 10.2837 13.7498 10.32 13.557C10.3405 13.4602 10.3517 13.3577 10.3517 13.2656V12.3911C9.36084 12.5206 9.36084 13.2134 9.36084 13.4555Z" fill="white"/>
<path d="M23.8826 12.7962L22.4681 10.565L23.3062 8.06085C23.4207 7.71908 23.2792 7.34379 22.9672 7.16406L20.6782 5.84542L20.2563 3.23701C20.1995 2.8822 19.8997 2.6168 19.5393 2.6019L16.9001 2.49853L15.3142 0.384608C15.0982 0.0949909 14.7089 -0.000927166 14.3849 0.155522L11.9999 1.29071L9.6141 0.155522C9.29003 0.000935325 8.90077 0.0977846 8.68472 0.384608L7.09881 2.49853L4.45967 2.6019C4.10021 2.6168 3.79942 2.8822 3.74354 3.23701L3.32169 5.84542L1.03269 7.16406C0.720726 7.34379 0.578246 7.71815 0.692789 8.06085L1.53091 10.565L0.11728 12.7962C-0.0754869 13.0998 -0.0270623 13.4984 0.232755 13.747L2.13901 15.575L1.92482 18.2067C1.89595 18.5671 2.12318 18.8959 2.4696 18.9964L5.00724 19.7275L6.04092 22.1589C6.18061 22.4895 6.53634 22.6814 6.88835 22.605L9.47628 22.0742L11.5204 23.7476C11.6591 23.8603 11.8295 23.919 11.9999 23.919C12.1704 23.919 12.3398 23.8603 12.4795 23.7476L14.5236 22.0742L17.1115 22.605C17.4626 22.6795 17.8193 22.4905 17.959 22.1589L18.9927 19.7275L21.5303 18.9964C21.8767 18.8968 22.1039 18.5671 22.0751 18.2067L21.8609 15.575L23.7671 13.747C24.027 13.4984 24.0754 13.1007 23.8826 12.7962ZM4.90666 15.6346C4.36282 15.6346 3.80221 15.4642 3.47814 15.1998C3.36639 15.1076 3.32262 14.9576 3.36732 14.8207L3.60944 14.0841C3.64297 13.9808 3.72305 13.8988 3.82456 13.8634C3.92607 13.8262 4.03968 13.8401 4.13094 13.8997C4.32557 14.0264 4.63847 14.1614 4.93088 14.1614C5.28661 14.1614 5.4831 13.9696 5.4831 13.6204C5.4831 13.3326 5.43747 13.0989 4.84986 12.7022C4.25945 12.3297 3.46417 11.7057 3.46417 10.6721C3.46417 9.50241 4.33954 8.62052 5.50173 8.62052C5.94873 8.62052 6.36592 8.74065 6.7766 8.9893C6.91629 9.07404 6.97961 9.24539 6.9256 9.40091L6.6723 10.1375C6.63691 10.24 6.5559 10.321 6.45253 10.3545C6.34823 10.389 6.23555 10.3741 6.14615 10.3117C5.91799 10.1561 5.73547 10.0928 5.5157 10.0928C5.10874 10.0928 5.07708 10.429 5.07708 10.5324C5.07708 10.7605 5.10409 10.8993 5.68798 11.2988C6.29235 11.688 7.10905 12.3408 7.10905 13.4546C7.10999 14.7593 6.22437 15.6346 4.90666 15.6346ZM11.7262 15.5583C11.7224 15.5583 11.7196 15.5583 11.7168 15.5583H10.8405C10.6934 15.5583 10.5649 15.4661 10.5146 15.3348C10.2241 15.5471 9.87857 15.6607 9.50608 15.6607C8.46401 15.6607 7.70785 14.776 7.70785 13.557C7.70785 12.1052 8.7229 11.1246 10.3228 10.9877C10.2948 10.1655 10.0108 10.0937 9.69605 10.0937C9.39805 10.0937 9.12334 10.1804 8.87842 10.3498C8.78716 10.4122 8.66982 10.4281 8.56645 10.3936C8.46122 10.3573 8.37927 10.2735 8.34668 10.1673L8.13156 9.48099C8.08593 9.33758 8.13901 9.18113 8.26193 9.09266C8.59066 8.85706 9.22391 8.62052 9.89999 8.62052C10.8592 8.62052 12.0037 9.05914 12.0037 11.1433V13.8113C12.0037 14.3365 12.0204 14.7574 12.053 15.0629C12.0726 15.1066 12.0847 15.1579 12.0847 15.2091C12.0838 15.4046 11.904 15.5704 11.7262 15.5583ZM15.0013 15.2091C15.0013 15.4018 14.8449 15.5583 14.6521 15.5583H13.6734C13.4806 15.5583 13.3242 15.4018 13.3242 15.2091V7.40711C13.3242 7.21435 13.4806 7.0579 13.6734 7.0579H14.6521C14.8449 7.0579 15.0013 7.21435 15.0013 7.40711V15.2091ZM20.6177 12.2505C20.6028 12.4312 20.4519 12.5727 20.2694 12.5727H17.7802C17.8714 14.1624 18.5885 14.1624 18.8697 14.1624C19.2785 14.1624 19.5598 14.0599 19.7237 13.9733C19.8187 13.923 19.9332 13.9193 20.031 13.964C20.1297 14.0087 20.2023 14.0981 20.2265 14.2033L20.3923 14.9148C20.4286 15.0712 20.3551 15.2314 20.2135 15.3041C19.8187 15.5099 19.2366 15.6356 18.6928 15.6356C17.0743 15.6356 16.1077 14.3505 16.1077 12.1993C16.1077 10.0593 17.0855 8.62145 18.5401 8.62145C19.8177 8.62145 20.6437 9.81624 20.6437 11.6657C20.6428 11.9181 20.6298 12.0913 20.6177 12.2505Z" fill="white"/>
</svg>
