<svg width="1050" height="159" viewBox="0 0 1050 159" fill="none" xmlns="http://www.w3.org/2000/svg">
<mask id="mask0_214_1794" style="mask-type:alpha" maskUnits="userSpaceOnUse" x="0" y="0" width="1050" height="159">
<rect width="1050" height="159" rx="20" fill="#E0E0E0"/>
</mask>
<g mask="url(#mask0_214_1794)">
<rect width="1050" height="159" rx="20" fill="#F2F2F2"/>
<rect width="716.303" height="61" transform="translate(358.574 162.393) rotate(-15)" fill="#27AE60"/>
<path d="M383.641 191.829C384.466 191.608 385.025 191.154 385.319 190.466C385.627 189.775 385.645 188.923 385.373 187.908L385.335 187.766C385.063 186.752 384.622 186.023 384.01 185.578C383.408 185.116 382.694 184.996 381.869 185.217C381.058 185.434 380.498 185.888 380.191 186.579C379.879 187.257 379.86 188.103 380.132 189.117L380.175 189.28C380.45 190.307 380.887 191.045 381.486 191.494C382.084 191.942 382.803 192.054 383.641 191.829ZM384.219 194.066C382.596 194.501 381.138 194.362 379.846 193.651C378.513 192.95 377.628 191.781 377.189 190.145L377.146 189.983C376.707 188.346 376.885 186.871 377.677 185.557C378.451 184.277 379.649 183.42 381.271 182.985C382.908 182.547 384.372 182.684 385.664 183.395C386.994 184.14 387.875 185.318 388.306 186.927L388.35 187.089C388.788 188.725 388.611 190.201 387.818 191.515C387.055 192.777 385.855 193.628 384.219 194.066ZM395.35 181.713L391.617 182.713L393.9 191.233L390.999 192.01L388.157 181.401L397.691 178.847L400.533 189.455L397.632 190.233L395.35 181.713ZM408.506 178.188L405.362 179.03L407.645 187.55L404.724 188.332L402.441 179.813L399.297 180.655L398.737 178.566L407.947 176.099L408.506 178.188ZM416.065 183.141C416.89 182.92 417.45 182.466 417.744 181.778C418.051 181.087 418.069 180.235 417.797 179.22L417.759 179.078C417.488 178.064 417.046 177.335 416.434 176.89C415.832 176.428 415.118 176.308 414.293 176.529C413.482 176.746 412.923 177.2 412.615 177.891C412.304 178.569 412.284 179.415 412.556 180.429L412.599 180.591C412.875 181.619 413.311 182.357 413.91 182.806C414.508 183.254 415.227 183.366 416.065 183.141ZM416.643 185.378C415.02 185.813 413.563 185.674 412.27 184.963C410.937 184.262 410.052 183.093 409.613 181.457L409.57 181.294C409.131 179.658 409.309 178.183 410.102 176.869C410.875 175.589 412.073 174.732 413.695 174.297C415.332 173.859 416.796 173.996 418.088 174.707C419.418 175.452 420.299 176.63 420.73 178.239L420.774 178.401C421.212 180.037 421.035 181.513 420.242 182.827C419.479 184.089 418.279 184.94 416.643 185.378ZM423.582 175.149L425.614 182.735L423.403 183.327L420.561 172.719L424.435 171.681L428.599 177.565L429.324 170.371L432.934 169.403L435.777 180.012L432.896 180.784L430.864 173.197L429.976 181.566L428.495 181.963L423.582 175.149ZM446.251 175.053C447.076 174.832 447.635 174.378 447.929 173.69C448.237 172.999 448.255 172.146 447.983 171.132L447.945 170.99C447.673 169.976 447.232 169.246 446.62 168.802C446.018 168.34 445.304 168.219 444.479 168.44C443.668 168.658 443.108 169.112 442.801 169.803C442.489 170.481 442.47 171.327 442.742 172.341L442.785 172.503C443.06 173.531 443.497 174.269 444.096 174.717C444.694 175.166 445.413 175.278 446.251 175.053ZM446.829 177.29C445.206 177.725 443.748 177.586 442.456 176.874C441.123 176.173 440.238 175.005 439.799 173.369L439.756 173.206C439.317 171.57 439.495 170.095 440.287 168.781C441.061 167.501 442.259 166.644 443.881 166.209C445.518 165.771 446.982 165.907 448.274 166.619C449.604 167.364 450.485 168.541 450.916 170.151L450.96 170.313C451.398 171.949 451.221 173.424 450.428 174.738C449.665 176.001 448.465 176.851 446.829 177.29ZM459.265 164.587L456.121 165.43L458.404 173.949L455.483 174.732L453.2 166.212L450.056 167.055L449.496 164.965L458.705 162.498L459.265 164.587ZM465.873 159.881L463.449 162.597L462.698 159.797L465.409 156.527L468.29 155.755L472.176 170.259L468.89 171.139L465.873 159.881ZM480.356 165.545C482.344 165.012 482.927 163.211 482.104 160.141L481.93 159.492C481.115 156.45 479.7 155.198 477.685 155.738C475.643 156.285 475.03 158.08 475.845 161.123L476.03 161.813C476.845 164.855 478.287 166.099 480.356 165.545ZM480.965 168.143C479.018 168.665 477.32 168.438 475.87 167.464C474.384 166.515 473.343 164.931 472.749 162.713L472.564 162.024C471.974 159.819 472.095 157.917 472.927 156.317C473.739 154.752 475.092 153.715 476.985 153.208C478.879 152.701 480.563 152.902 482.039 153.811C483.542 154.77 484.591 156.359 485.185 158.577L485.365 159.246C485.959 161.464 485.869 163.372 485.094 164.971C484.275 166.567 482.899 167.625 480.965 168.143ZM494.446 161.77C496.434 161.237 497.017 159.436 496.194 156.366L496.02 155.717C495.205 152.674 493.79 151.423 491.775 151.963C489.733 152.51 489.12 154.305 489.935 157.348L490.12 158.037C490.935 161.08 492.377 162.324 494.446 161.77ZM495.055 164.367C493.108 164.889 491.409 164.663 489.96 163.689C488.474 162.739 487.433 161.156 486.839 158.938L486.654 158.248C486.064 156.044 486.184 154.142 487.017 152.542C487.829 150.976 489.182 149.94 491.075 149.433C492.968 148.925 494.653 149.126 496.128 150.035C497.632 150.995 498.681 152.584 499.275 154.801L499.454 155.471C500.049 157.689 499.959 159.597 499.184 161.196C498.365 162.792 496.989 163.849 495.055 164.367ZM508.536 157.994C510.524 157.462 511.106 155.66 510.284 152.591L510.11 151.942C509.295 148.899 507.88 147.648 505.865 148.187C503.823 148.735 503.209 150.53 504.025 153.572L504.209 154.262C505.025 157.305 506.467 158.549 508.536 157.994ZM509.145 160.592C507.198 161.114 505.499 160.888 504.05 159.914C502.563 158.964 501.523 157.38 500.929 155.163L500.744 154.473C500.153 152.269 500.274 150.367 501.106 148.767C501.919 147.201 503.272 146.165 505.165 145.657C507.058 145.15 508.743 145.351 510.218 146.26C511.722 147.22 512.771 148.808 513.365 151.026L513.544 151.695C514.138 153.913 514.048 155.822 513.274 157.42C512.455 159.017 511.079 160.074 509.145 160.592ZM518.196 146.557L521.097 145.78L523.379 154.3L526.158 153.555L523.876 145.036L526.776 144.258L529.059 152.778L531.838 152.033L529.555 143.514L532.456 142.736L535.299 153.345L521.039 157.166L518.196 146.557ZM543.28 142.075L540.136 142.918L542.419 151.437L539.498 152.22L537.215 143.701L534.071 144.543L533.511 142.454L542.72 139.986L543.28 142.075Z" fill="white"/>
<path d="M561.618 131.723C562.036 133.285 561.117 134.888 559.564 135.304C558.012 135.72 556.414 134.791 555.996 133.23C555.578 131.668 556.497 130.065 558.049 129.649C559.602 129.233 561.199 130.162 561.618 131.723Z" fill="white"/>
<path d="M560.626 145.327C555.513 146.697 550.251 143.638 548.873 138.496L547.676 134.026C552.789 132.656 558.051 135.714 559.429 140.857L560.626 145.327Z" fill="white"/>
<path d="M567.916 131.796C562.803 133.166 559.775 138.446 561.153 143.589L562.351 148.058C567.463 146.688 570.491 141.409 569.113 136.266L567.916 131.796Z" fill="white"/>
<path d="M581.779 138.739C582.604 138.517 583.163 138.063 583.457 137.376C583.765 136.685 583.783 135.832 583.511 134.818L583.473 134.676C583.201 133.661 582.759 132.932 582.147 132.487C581.545 132.025 580.832 131.905 580.007 132.126C579.195 132.343 578.636 132.797 578.328 133.489C578.017 134.166 577.997 135.012 578.269 136.026L578.313 136.189C578.588 137.216 579.025 137.955 579.623 138.403C580.222 138.851 580.94 138.963 581.779 138.739ZM582.356 140.975C580.733 141.41 579.276 141.272 577.984 140.56C576.651 139.859 575.765 138.69 575.327 137.054L575.283 136.892C574.845 135.255 575.022 133.78 575.815 132.466C576.588 131.187 577.786 130.329 579.409 129.895C581.045 129.456 582.509 129.593 583.802 130.305C585.132 131.05 586.013 132.227 586.444 133.836L586.487 133.998C586.926 135.635 586.748 137.11 585.956 138.424C585.192 139.686 583.993 140.537 582.356 140.975ZM594.793 128.273L591.649 129.115L593.931 137.635L591.01 138.417L588.728 129.898L585.583 130.74L585.024 128.651L594.233 126.183L594.793 128.273ZM598.754 127.211L601.037 135.731L598.136 136.508L595.293 125.899L602.575 123.948L603.135 126.037L598.754 127.211ZM603.819 123.615L606.76 122.827L607.206 124.49C607.369 123.852 607.7 123.278 608.201 122.767C608.712 122.239 609.339 121.875 610.083 121.676C611.421 121.317 612.642 121.49 613.744 122.195C614.897 122.929 615.704 124.155 616.164 125.873L616.208 126.035C616.664 127.739 616.585 129.202 615.971 130.425C615.39 131.609 614.416 132.385 613.05 132.751C612.266 132.961 611.531 132.977 610.845 132.798C610.156 132.606 609.597 132.277 609.168 131.813L610.57 137.046L607.629 137.834L603.819 123.615ZM611.564 130.692C612.375 130.475 612.927 130.045 613.218 129.401C613.506 128.744 613.51 127.895 613.231 126.854L613.188 126.692C612.905 125.637 612.461 124.901 611.857 124.483C611.252 124.065 610.564 123.96 609.793 124.166C608.996 124.38 608.434 124.828 608.11 125.509C607.795 126.173 607.777 127.026 608.056 128.067L608.099 128.229C608.378 129.27 608.82 130 609.425 130.418C610.026 130.822 610.739 130.913 611.564 130.692ZM621.588 129.072L614.815 120.668L617.979 119.821L622.262 125.5L622.928 118.494L625.748 117.739L623.818 133.496L620.978 134.257L621.588 129.072ZM633.142 121.693L631.479 127.574L628.335 128.416L630.418 121.749L625.756 117.737L628.778 116.927L632.892 120.76L631.659 116.155L634.539 115.383L635.778 120.008L637.44 114.606L640.442 113.802L638.394 119.546L643.589 124.329L640.384 125.188L636.012 120.88L637.382 125.992L634.501 126.764L633.142 121.693ZM647.295 123.575C646.267 123.85 645.368 123.823 644.599 123.493C643.747 123.127 643.18 122.417 642.897 121.362C642.582 120.185 642.86 119.169 643.732 118.312C644.514 117.551 645.77 116.939 647.501 116.476L648.698 116.155L648.584 115.729C648.403 115.053 648.142 114.594 647.802 114.351C647.475 114.106 646.987 114.07 646.338 114.244C645.297 114.523 644.829 115.184 644.935 116.228L642.156 116.973C641.918 115.761 642.165 114.709 642.898 113.818C643.567 113.015 644.584 112.431 645.95 112.065C647.316 111.699 648.464 111.71 649.394 112.099C650.393 112.527 651.077 113.43 651.447 114.81L653.3 121.727L650.44 122.493L650.098 121.215C649.649 122.408 648.715 123.195 647.295 123.575ZM647.618 121.293C648.281 121.115 648.783 120.799 649.125 120.345C649.467 119.891 649.561 119.373 649.405 118.792L649.166 117.899L648.03 118.204C647.137 118.443 646.492 118.739 646.094 119.092C645.709 119.442 645.589 119.887 645.734 120.428C645.962 121.28 646.59 121.568 647.618 121.293ZM660.164 120.127C658.515 120.569 657.067 120.442 655.823 119.746C654.507 119.055 653.627 117.878 653.181 116.215L653.137 116.052C652.695 114.403 652.864 112.923 653.643 111.612C654.403 110.336 655.56 109.49 657.116 109.073C658.59 108.678 659.907 108.782 661.069 109.384C662.364 110.051 663.252 111.284 663.734 113.083L663.951 113.894L656.304 115.943C656.584 116.825 657.012 117.449 657.589 117.817C658.175 118.167 658.874 118.233 659.686 118.016C660.957 117.675 661.562 116.984 661.5 115.942L664.279 115.198C664.411 116.394 664.121 117.421 663.409 118.279C662.706 119.119 661.625 119.735 660.164 120.127ZM660.607 112.855C660.089 111.298 659.106 110.714 657.659 111.102C656.996 111.279 656.505 111.635 656.185 112.171C655.874 112.689 655.766 113.341 655.861 114.127L660.607 112.855ZM666.569 110.04L668.602 117.627L666.391 118.219L663.548 107.61L667.423 106.572L671.587 112.457L672.311 105.262L675.922 104.295L678.765 114.904L675.884 115.675L673.851 108.089L672.963 116.458L671.482 116.855L666.569 110.04ZM689.239 109.945C690.064 109.724 690.623 109.269 690.917 108.582C691.225 107.891 691.243 107.038 690.971 106.024L690.933 105.882C690.661 104.868 690.219 104.138 689.607 103.693C689.005 103.231 688.292 103.111 687.467 103.332C686.655 103.549 686.096 104.004 685.788 104.695C685.477 105.372 685.457 106.218 685.729 107.233L685.773 107.395C686.048 108.423 686.485 109.161 687.083 109.609C687.682 110.057 688.4 110.169 689.239 109.945ZM689.816 112.181C688.193 112.616 686.736 112.478 685.444 111.766C684.111 111.065 683.225 109.896 682.787 108.26L682.743 108.098C682.305 106.462 682.482 104.986 683.275 103.672C684.048 102.393 685.246 101.535 686.869 101.101C688.505 100.662 689.969 100.799 691.262 101.511C692.592 102.256 693.473 103.433 693.904 105.042L693.947 105.205C694.386 106.841 694.208 108.316 693.416 109.63C692.652 110.892 691.453 111.743 689.816 112.181ZM700.947 99.8286L697.215 100.829L699.498 109.348L696.597 110.125L693.754 99.5166L703.288 96.962L706.131 107.571L703.23 108.348L700.947 99.8286ZM714.104 96.3033L710.96 97.1457L713.243 105.665L710.322 106.448L708.039 97.9284L704.895 98.7708L704.335 96.6815L713.544 94.214L714.104 96.3033ZM721.663 101.257C722.488 101.036 723.047 100.581 723.341 99.8938C723.649 99.2026 723.667 98.3499 723.395 97.3357L723.357 97.1937C723.085 96.1795 722.643 95.45 722.031 95.0053C721.429 94.5433 720.716 94.4229 719.891 94.6439C719.08 94.8613 718.52 95.3156 718.213 96.0068C717.901 96.6844 717.882 97.5304 718.153 98.5446L718.197 98.7069C718.472 99.7346 718.909 100.473 719.508 100.921C720.106 101.369 720.824 101.481 721.663 101.257ZM722.24 103.493C720.618 103.928 719.16 103.79 717.868 103.078C716.535 102.377 715.649 101.208 715.211 99.5721L715.168 99.4098C714.729 97.7736 714.906 96.2984 715.699 94.9844C716.472 93.7047 717.67 92.8475 719.293 92.4126C720.929 91.9742 722.394 92.1109 723.686 92.8227C725.016 93.5678 725.897 94.745 726.328 96.3542L726.371 96.5165C726.81 98.1527 726.633 99.6279 725.84 100.942C725.076 102.204 723.877 103.055 722.24 103.493ZM729.179 93.2639L731.212 100.85L729.001 101.443L726.158 90.834L730.033 89.7959L734.197 95.6807L734.921 88.486L738.532 87.5185L741.374 98.1273L738.494 98.8991L736.461 91.3127L735.573 99.6817L734.092 100.079L729.179 93.2639ZM751.849 93.1684C752.674 92.9474 753.233 92.4931 753.527 91.8055C753.835 91.1144 753.853 90.2617 753.581 89.2475L753.543 89.1055C753.271 88.0913 752.829 87.3618 752.217 86.917C751.615 86.4551 750.902 86.3346 750.077 86.5557C749.265 86.7731 748.706 87.2274 748.398 87.9185C748.087 88.5962 748.067 89.4421 748.339 90.4563L748.383 90.6186C748.658 91.6463 749.095 92.3844 749.693 92.8328C750.292 93.2812 751.01 93.3931 751.849 93.1684ZM752.426 95.4051C750.803 95.8399 749.346 95.7015 748.054 94.9897C746.721 94.2887 745.835 93.1201 745.397 91.4839L745.353 91.3216C744.915 89.6853 745.092 88.2102 745.885 86.8962C746.658 85.6165 747.856 84.7592 749.479 84.3244C751.115 83.8859 752.579 84.0226 753.872 84.7344C755.202 85.4795 756.083 86.6567 756.514 88.2659L756.557 88.4282C756.996 90.0645 756.818 91.5396 756.025 92.8536C755.262 94.1162 754.063 94.9667 752.426 95.4051ZM764.863 82.7025L761.719 83.545L764.001 92.0644L761.08 92.8471L758.798 84.3276L755.653 85.1701L755.094 83.0808L764.303 80.6132L764.863 82.7025ZM771.471 77.9968L769.046 80.7119L768.296 77.9127L771.007 74.6426L773.887 73.8708L777.774 88.3742L774.488 89.2547L771.471 77.9968ZM785.954 83.6603C787.942 83.1277 788.524 81.3265 787.702 78.2568L787.528 77.6077C786.713 74.565 785.298 73.3136 783.283 73.8535C781.241 74.4007 780.627 76.1956 781.443 79.2382L781.627 79.9279C782.443 82.9706 783.885 84.2147 785.954 83.6603ZM786.563 86.2582C784.616 86.78 782.917 86.5538 781.468 85.5798C779.981 84.6302 778.941 83.0465 778.347 80.8287L778.162 80.139C777.571 77.9348 777.692 76.0327 778.524 74.4328C779.337 72.8672 780.69 71.8307 782.583 71.3234C784.476 70.8161 786.161 71.017 787.636 71.9261C789.14 72.8856 790.189 74.4743 790.783 76.692L790.962 77.3614C791.557 79.5792 791.466 81.4876 790.692 83.0865C789.873 84.6828 788.497 85.74 786.563 86.2582ZM800.044 79.885C802.032 79.3523 802.614 77.5512 801.792 74.4814L801.618 73.8323C800.802 70.7897 799.387 69.5383 797.372 70.0782C795.331 70.6253 794.717 72.4202 795.532 75.4629L795.717 76.1526C796.533 79.1952 797.975 80.4394 800.044 79.885ZM800.653 82.4829C798.706 83.0046 797.007 82.7785 795.558 81.8045C794.071 80.8548 793.031 79.2711 792.437 77.0534L792.252 76.3637C791.661 74.1594 791.782 72.2574 792.614 70.6574C793.427 69.0918 794.78 68.0554 796.673 67.5481C798.566 67.0408 800.25 67.2417 801.726 68.1507C803.23 69.1103 804.278 70.6989 804.873 72.9167L805.052 73.5861C805.646 75.8039 805.556 77.7122 804.782 79.3112C803.963 80.9075 802.587 81.9647 800.653 82.4829ZM814.133 76.1096C816.121 75.577 816.704 73.7758 815.881 70.7061L815.708 70.057C814.892 67.0143 813.477 65.763 811.462 66.3028C809.42 66.85 808.807 68.6449 809.622 71.6876L809.807 72.3772C810.622 75.4199 812.064 76.664 814.133 76.1096ZM814.743 78.7075C812.795 79.2293 811.097 79.0032 809.647 78.0291C808.161 77.0795 807.121 75.4958 806.526 73.278L806.342 72.5883C805.751 70.3841 805.872 68.482 806.704 66.8821C807.516 65.3165 808.869 64.28 810.763 63.7727C812.656 63.2654 814.34 63.4663 815.816 64.3754C817.319 65.3349 818.368 66.9236 818.962 69.1414L819.142 69.8108C819.736 72.0285 819.646 73.9369 818.871 75.5358C818.053 77.1321 816.676 78.1894 814.743 78.7075ZM823.794 64.6727L826.694 63.8955L828.977 72.4149L831.756 71.6703L829.473 63.1509L832.374 62.3736L834.657 70.8931L837.436 70.1485L835.153 61.629L838.054 60.8518L840.896 71.4605L826.636 75.2815L823.794 64.6727ZM848.877 60.1908L845.733 61.0333L848.016 69.5527L845.095 70.3354L842.812 61.8159L839.668 62.6584L839.108 60.5691L848.318 58.1015L848.877 60.1908Z" fill="white"/>
<path d="M866.973 49.9037C867.391 51.4651 866.472 53.068 864.92 53.484C863.367 53.8999 861.77 52.9714 861.351 51.4099C860.933 49.8485 861.852 48.2456 863.405 47.8296C864.957 47.4137 866.555 48.3422 866.973 49.9037Z" fill="white"/>
<path d="M865.982 63.5069C860.869 64.8769 855.607 61.8185 854.229 56.6758L853.031 52.2061C858.144 50.8361 863.406 53.8945 864.784 59.0372L865.982 63.5069Z" fill="white"/>
<path d="M873.271 49.9766C868.158 51.3466 865.13 56.6262 866.508 61.7689L867.706 66.2385C872.819 64.8685 875.847 59.5889 874.469 54.4462L873.271 49.9766Z" fill="white"/>
<path d="M887.134 56.9188C887.959 56.6978 888.518 56.2435 888.812 55.556C889.12 54.8648 889.138 54.0121 888.866 52.9979L888.828 52.8559C888.556 51.8417 888.115 51.1122 887.503 50.6674C886.901 50.2055 886.187 50.0851 885.362 50.3061C884.551 50.5235 883.991 50.9778 883.684 51.6689C883.372 52.3466 883.353 53.1925 883.624 54.2067L883.668 54.369C883.943 55.3968 884.38 56.1348 884.979 56.5832C885.577 57.0316 886.296 57.1435 887.134 56.9188ZM887.712 59.1555C886.089 59.5904 884.631 59.4519 883.339 58.7401C882.006 58.0392 881.121 56.8706 880.682 55.2343L880.639 55.072C880.2 53.4357 880.377 51.9606 881.17 50.6466C881.944 49.3669 883.141 48.5096 884.764 48.0748C886.401 47.6364 887.865 47.773 889.157 48.4848C890.487 49.2299 891.368 50.4071 891.799 52.0164L891.843 52.1786C892.281 53.8149 892.104 55.29 891.311 56.604C890.548 57.8666 889.348 58.7171 887.712 59.1555ZM900.148 46.4529L897.004 47.2954L899.287 55.8149L896.366 56.5975L894.083 48.0781L890.939 48.9205L890.379 46.8312L899.588 44.3636L900.148 46.4529ZM904.109 45.3915L906.392 53.911L903.491 54.6882L900.649 44.0795L907.931 42.1282L908.491 44.2175L904.109 45.3915ZM909.174 41.795L912.116 41.0069L912.561 42.6702C912.724 42.0324 913.055 41.458 913.556 40.947C914.067 40.4188 914.694 40.0551 915.438 39.8558C916.777 39.4971 917.997 39.6701 919.099 40.3749C920.252 41.1094 921.059 42.3354 921.519 44.0528L921.563 44.2151C922.02 45.919 921.941 47.3823 921.326 48.605C920.745 49.7898 919.771 50.5651 918.406 50.9311C917.621 51.1413 916.886 51.157 916.201 50.9784C915.511 50.7862 914.952 50.4577 914.523 49.9929L915.926 55.2263L912.985 56.0144L909.174 41.795ZM916.919 48.8727C917.731 48.6553 918.282 48.2249 918.573 47.5815C918.861 46.9247 918.866 46.0756 918.587 45.0343L918.543 44.8721C918.26 43.8173 917.817 43.081 917.212 42.6633C916.607 42.2456 915.92 42.14 915.149 42.3465C914.351 42.5603 913.79 43.0078 913.465 43.6891C913.15 44.3532 913.132 45.2059 913.411 46.2472L913.455 46.4094C913.734 47.4507 914.175 48.1802 914.78 48.5979C915.381 49.0021 916.094 49.0937 916.919 48.8727ZM926.944 47.2519L920.17 38.8487L923.334 38.0008L927.617 43.6799L928.284 36.6747L931.103 35.9192L929.173 51.6767L926.333 52.4376L926.944 47.2519ZM938.498 39.8731L936.834 45.754L933.69 46.5965L935.773 39.9291L931.111 35.9171L934.134 35.1072L938.248 38.94L937.014 34.3354L939.894 33.5636L941.134 38.1885L942.795 32.7864L945.797 31.982L943.749 37.7268L948.944 42.5092L945.739 43.368L941.367 39.0607L942.737 44.1724L939.857 44.9442L938.498 39.8731ZM952.65 41.7553C951.622 42.0307 950.724 42.0034 949.954 41.6733C949.102 41.3073 948.535 40.5969 948.253 39.5421C947.937 38.3656 948.216 37.3489 949.088 36.492C949.869 35.7318 951.126 35.1197 952.857 34.6559L954.054 34.3352L953.939 33.9093C953.758 33.2331 953.498 32.774 953.157 32.5318C952.83 32.286 952.343 32.25 951.693 32.424C950.652 32.703 950.184 33.3646 950.29 34.4087L947.511 35.1534C947.274 33.9416 947.521 32.8898 948.253 31.9979C948.922 31.1954 949.939 30.6111 951.305 30.2452C952.671 29.8792 953.819 29.8905 954.749 30.2789C955.748 30.707 956.432 31.6107 956.802 32.9901L958.655 39.907L955.795 40.6734L955.453 39.3955C955.004 40.5882 954.07 41.3748 952.65 41.7553ZM952.973 39.4729C953.636 39.2953 954.138 38.9795 954.481 38.5255C954.823 38.0715 954.916 37.5537 954.76 36.9722L954.521 36.0797L953.385 36.3841C952.493 36.6232 951.847 36.9193 951.449 37.2724C951.064 37.6219 950.944 38.0671 951.089 38.608C951.318 39.46 951.946 39.7482 952.973 39.4729ZM965.52 38.3069C963.87 38.749 962.423 38.6222 961.178 37.9266C959.863 37.2356 958.982 36.0584 958.536 34.3951L958.493 34.2328C958.051 32.583 958.219 31.1029 958.999 29.7925C959.758 28.5164 960.916 27.6701 962.471 27.2534C963.945 26.8584 965.263 26.9619 966.424 27.5638C967.719 28.2314 968.607 29.4645 969.089 31.263L969.307 32.0744L961.659 34.1235C961.939 35.0051 962.367 35.6296 962.944 35.9968C963.531 36.3469 964.23 36.4133 965.041 36.1959C966.312 35.8553 966.917 35.1642 966.855 34.1227L969.634 33.3781C969.766 34.5746 969.476 35.6017 968.764 36.4593C968.062 37.2997 966.98 37.9156 965.52 38.3069ZM965.963 31.0355C965.444 29.4786 964.461 28.8941 963.014 29.2818C962.352 29.4594 961.86 29.8157 961.54 30.3509C961.229 30.8689 961.122 31.521 961.216 32.3073L965.963 31.0355ZM971.925 28.2205L973.957 35.8069L971.746 36.3993L968.904 25.7906L972.778 24.7525L976.942 30.6373L977.667 23.4426L981.277 22.4751L984.12 33.0839L981.239 33.8557L979.207 26.2693L978.319 34.6383L976.838 35.0351L971.925 28.2205ZM994.594 28.125C995.419 27.904 995.978 27.4497 996.272 26.7621C996.58 26.071 996.598 25.2183 996.326 24.2041L996.288 24.0621C996.016 23.0479 995.575 22.3184 994.963 21.8736C994.361 21.4117 993.647 21.2912 992.822 21.5123C992.011 21.7297 991.451 22.184 991.144 22.8751C990.832 23.5528 990.813 24.3987 991.084 25.4129L991.128 25.5752C991.403 26.6029 991.84 27.341 992.439 27.7894C993.037 28.2378 993.756 28.3497 994.594 28.125ZM995.172 30.3617C993.549 30.7965 992.091 30.658 990.799 29.9463C989.466 29.2453 988.581 28.0767 988.142 26.4405L988.099 26.2782C987.66 24.6419 987.837 23.1668 988.63 21.8528C989.404 20.5731 990.601 19.7158 992.224 19.281C993.861 18.8425 995.325 18.9792 996.617 19.691C997.947 20.4361 998.828 21.6133 999.259 23.2225L999.303 23.3848C999.741 25.0211 999.564 26.4962 998.771 27.8102C998.008 29.0728 996.808 29.9233 995.172 30.3617ZM1006.3 18.0089L1002.57 19.009L1004.85 27.5284L1001.95 28.3057L999.11 17.6969L1008.64 15.1423L1011.49 25.7511L1008.59 26.5283L1006.3 18.0089ZM1019.46 14.4836L1016.32 15.326L1018.6 23.8455L1015.68 24.6281L1013.39 16.1087L1010.25 16.9511L1009.69 14.8618L1018.9 12.3943L1019.46 14.4836ZM1027.02 19.437C1027.84 19.2159 1028.4 18.7616 1028.7 18.0741C1029 17.3829 1029.02 16.5302 1028.75 15.516L1028.71 15.374C1028.44 14.3598 1028 13.6303 1027.39 13.1856C1026.78 12.7236 1026.07 12.6032 1025.25 12.8242C1024.43 13.0416 1023.88 13.4959 1023.57 14.1871C1023.26 14.8647 1023.24 15.7107 1023.51 16.7249L1023.55 16.8872C1023.83 17.9149 1024.26 18.653 1024.86 19.1014C1025.46 19.5497 1026.18 19.6616 1027.02 19.437ZM1027.6 21.6737C1025.97 22.1085 1024.52 21.97 1023.22 21.2582C1021.89 20.5573 1021 19.3887 1020.57 17.7524L1020.52 17.5901C1020.08 15.9539 1020.26 14.4787 1021.05 13.1647C1021.83 11.885 1023.03 11.0278 1024.65 10.5929C1026.28 10.1545 1027.75 10.2912 1029.04 11.003C1030.37 11.7481 1031.25 12.9253 1031.68 14.5345L1031.73 14.6968C1032.17 16.333 1031.99 17.8082 1031.2 19.1222C1030.43 20.3847 1029.23 21.2352 1027.6 21.6737ZM1034.53 11.4442L1036.57 19.0306L1034.36 19.6231L1031.51 9.01429L1035.39 7.97617L1039.55 13.861L1040.28 6.66628L1043.89 5.69882L1046.73 16.3076L1043.85 17.0794L1041.82 9.493L1040.93 17.862L1039.45 18.2588L1034.53 11.4442ZM1057.2 11.3487C1058.03 11.1277 1058.59 10.6734 1058.88 9.98584C1059.19 9.29468 1059.21 8.44199 1058.94 7.42777L1058.9 7.28578C1058.63 6.27155 1058.18 5.54206 1057.57 5.09729C1056.97 4.63538 1056.26 4.51494 1055.43 4.73597C1054.62 4.95338 1054.06 5.40766 1053.75 6.09883C1053.44 6.77647 1053.42 7.6224 1053.69 8.63662L1053.74 8.79889C1054.01 9.82664 1054.45 10.5647 1055.05 11.0131C1055.65 11.4615 1056.37 11.5734 1057.2 11.3487ZM1057.78 13.5854C1056.16 14.0202 1054.7 13.8818 1053.41 13.17C1052.08 12.469 1051.19 11.3004 1050.75 9.66416L1050.71 9.50188C1050.27 7.8656 1050.45 6.39046 1051.24 5.07647C1052.01 3.79676 1053.21 2.9395 1054.83 2.50468C1056.47 2.06624 1057.93 2.20292 1059.23 2.91471C1060.56 3.65983 1061.44 4.837 1061.87 6.44623L1061.91 6.60851C1062.35 8.24479 1062.17 9.71993 1061.38 11.0339C1060.62 12.2965 1059.42 13.147 1057.78 13.5854ZM1070.22 0.88282L1067.07 1.72528L1069.36 10.2447L1066.44 11.0274L1064.15 2.50794L1061.01 3.3504L1060.45 1.2611L1069.66 -1.20648L1070.22 0.88282ZM1076.83 -3.82291L1074.4 -1.10779L1073.65 -3.90704L1076.36 -7.17713L1079.24 -7.94892L1083.13 6.55445L1079.84 7.43495L1076.83 -3.82291ZM1091.31 1.84063C1093.3 1.30798 1093.88 -0.493203 1093.06 -3.56292L1092.88 -4.21202C1092.07 -7.25468 1090.65 -8.50607 1088.64 -7.96617C1086.6 -7.41903 1085.98 -5.62412 1086.8 -2.58146L1086.98 -1.89179C1087.8 1.15088 1089.24 2.39502 1091.31 1.84063ZM1091.92 4.43849C1089.97 4.96027 1088.27 4.73414 1086.82 3.76011C1085.34 2.81047 1084.3 1.22677 1083.7 -0.990999L1083.52 -1.68067C1082.93 -3.88491 1083.05 -5.787 1083.88 -7.38692C1084.69 -8.95255 1086.05 -9.98901 1087.94 -10.4963C1089.83 -11.0036 1091.52 -10.8027 1092.99 -9.89361C1094.5 -8.93407 1095.54 -7.34542 1096.14 -5.12765L1096.32 -4.45827C1096.91 -2.2405 1096.82 -0.332142 1096.05 1.26681C1095.23 2.86311 1093.85 3.92034 1091.92 4.43849ZM1105.4 -1.93472C1107.39 -2.46737 1107.97 -4.26855 1107.15 -7.33826L1106.97 -7.98736C1106.16 -11.03 1104.74 -12.2814 1102.73 -11.7415C1100.69 -11.1944 1100.07 -9.39947 1100.89 -6.3568L1101.07 -5.66713C1101.89 -2.62446 1103.33 -1.38033 1105.4 -1.93472ZM1106.01 0.663149C1104.06 1.18493 1102.36 0.958801 1100.91 -0.015233C1099.43 -0.964874 1098.39 -2.54858 1097.79 -4.76634L1097.61 -5.45601C1097.02 -7.66026 1097.14 -9.56234 1097.97 -11.1623C1098.78 -12.7279 1100.13 -13.7644 1102.03 -14.2716C1103.92 -14.7789 1105.61 -14.578 1107.08 -13.669C1108.58 -12.7094 1109.63 -11.1208 1110.23 -8.903L1110.41 -8.23361C1111 -6.01584 1110.91 -4.10749 1110.14 -2.50853C1109.32 -0.912234 1107.94 0.144994 1106.01 0.663149ZM1119.49 -5.71006C1121.48 -6.2427 1122.06 -8.04389 1121.24 -11.1136L1121.06 -11.7627C1120.25 -14.8054 1118.83 -16.0568 1116.82 -15.5169C1114.78 -14.9697 1114.16 -13.1748 1114.98 -10.1321L1115.16 -9.44247C1115.98 -6.3998 1117.42 -5.15566 1119.49 -5.71006ZM1120.1 -3.11219C1118.15 -2.59041 1116.45 -2.81654 1115 -3.79057C1113.52 -4.74021 1112.48 -6.32392 1111.88 -8.54168L1111.7 -9.23135C1111.11 -11.4356 1111.23 -13.3377 1112.06 -14.9376C1112.87 -16.5032 1114.22 -17.5397 1116.12 -18.047C1118.01 -18.5543 1119.7 -18.3534 1121.17 -17.4443C1122.67 -16.4848 1123.72 -14.8961 1124.32 -12.6783L1124.5 -12.0089C1125.09 -9.79118 1125 -7.88283 1124.23 -6.28387C1123.41 -4.68757 1122.03 -3.63035 1120.1 -3.11219ZM1129.15 -17.147L1132.05 -17.9242L1134.33 -9.40476L1137.11 -10.1494L1134.83 -18.6688L1137.73 -19.4461L1140.01 -10.9266L1142.79 -11.6712L1140.51 -20.1907L1143.41 -20.9679L1146.25 -10.3592L1131.99 -6.53822L1129.15 -17.147ZM1154.23 -21.6289L1151.09 -20.7864L1153.37 -12.267L1150.45 -11.4843L1148.17 -20.0038L1145.02 -19.1613L1144.46 -21.2506L1153.67 -23.7182L1154.23 -21.6289Z" fill="white"/>
</g>
<path d="M963.653 124.914C963.653 123.57 963 122.517 961.086 122.517H954.512V130.604H956.335V127.759H960.546C961.491 127.759 961.739 128.023 961.739 128.968V130.604H963.563V128.678C963.563 127.717 963.22 127.153 962.46 126.961C963.251 126.695 963.653 125.933 963.653 124.914ZM960.839 126.059H956.335V124.22H960.839C961.514 124.22 961.829 124.578 961.829 125.116C961.829 125.653 961.559 126.056 960.839 126.056V126.059ZM1034.19 132.401H1034.86V140.484H1033.04V134.749L1029.28 140.484H1027.19V132.397H1029.01V137.931L1031.76 133.696C1032.46 132.62 1033.06 132.397 1034.19 132.397V132.401ZM998.595 130.604V128.88C999.338 128.88 999.518 128.431 999.676 126.93L1000.17 122.517H1006.7V130.604H1004.88V124.22H1001.73L1001.41 127.311C1001.14 129.977 1000.42 130.694 998.595 130.604ZM951 144H967.075V119H951V144ZM952.756 120.746H965.319V142.254H952.756V120.746ZM961.739 132.397H963.563V140.484H957.728C955.386 140.484 954.508 139.61 954.508 137.28V132.397H956.332V137.321C956.332 138.352 956.737 138.777 957.683 138.777H961.735L961.739 132.397ZM1010.23 127.896H1014.26V130.607H1016.09V122.517H1011.41C1009.11 122.517 1008.41 123.144 1008.41 125.496V130.605H1010.23V127.896ZM1011.41 124.223H1014.26V126.213H1010.23V125.496C1010.23 124.578 1010.35 124.22 1011.41 124.22V124.223ZM989.656 127.624V125.496C989.656 123.166 990.31 122.517 992.651 122.517H997.424V124.22H992.561C991.615 124.22 991.48 124.377 991.48 125.407V125.676H996.096V127.356H991.48V127.714C991.48 128.745 991.615 128.902 992.561 128.902H997.492V130.604H992.651C990.31 130.604 989.656 129.932 989.656 127.624ZM1032.01 122.515H1030C1027.68 122.515 1027.01 123.165 1027.01 125.494V127.624C1027.01 129.932 1027.91 130.604 1030.23 130.604H1031.78C1034.12 130.604 1035 129.932 1035 127.624V125.496C1035 123.166 1034.35 122.517 1032.01 122.517V122.515ZM1033.18 127.624C1033.18 128.655 1032.95 128.902 1032.01 128.902H1030C1029.06 128.902 1028.83 128.655 1028.83 127.624V125.496C1028.83 124.466 1029.06 124.22 1030 124.22H1032.01C1032.95 124.22 1033.18 124.466 1033.18 125.496V127.624ZM1001.95 132.397H1006.95V133.404C1006.95 134.211 1006.88 134.883 1006.7 135.488H1005.15V134.098H1001.95C1001 134.098 1000.78 134.345 1000.78 135.376V137.504C1000.78 138.534 1001 138.781 1001.95 138.781H1006.95V140.484H1001.95C999.631 140.484 998.955 139.812 998.955 137.504V135.376C998.955 133.046 999.631 132.397 1001.95 132.397ZM987.608 122.517H980.969L980.564 126.617C980.361 128.566 980.068 128.88 979.528 128.88H979.417V131.366H981.15L981.217 130.336H986.576L986.643 131.366H988.377V128.857H987.611L987.608 122.517ZM982.569 124.22H985.784V128.655H981.884C982.133 128.222 982.238 127.617 982.317 126.84L982.569 124.22ZM994.678 132.397H992.518C990.2 132.397 989.524 133.046 989.524 135.376V137.504C989.524 139.812 990.2 140.484 992.518 140.484H994.68C997.022 140.484 997.674 139.812 997.674 137.504V135.376C997.671 133.046 997.019 132.397 994.678 132.397ZM995.848 137.506C995.848 138.536 995.623 138.783 994.678 138.783H992.518C991.573 138.783 991.348 138.536 991.348 137.506V135.376C991.348 134.345 991.573 134.098 992.518 134.098H994.68C995.626 134.098 995.851 134.345 995.851 135.376L995.848 137.506ZM1011.22 132.397H1016.24V133.404C1016.24 134.211 1016.18 134.883 1016 135.488H1014.44V134.098H1011.22C1010.28 134.098 1010.05 134.345 1010.05 135.376V137.504C1010.05 138.534 1010.28 138.781 1011.22 138.781H1016.24V140.484H1011.22C1008.91 140.484 1008.23 139.812 1008.23 137.504V135.376C1008.23 133.046 1008.91 132.397 1011.22 132.397ZM977.099 136.21C977.527 135.95 977.882 135.399 977.882 134.547C977.882 133.449 977.251 132.397 975.383 132.397H970.61V140.484H975.568C977.368 140.484 978.246 139.565 978.246 138.064C978.242 137.057 977.659 136.46 977.099 136.21ZM976.058 134.815C976.058 135.309 975.81 135.577 975.18 135.577H972.436V134.121H975.18C975.81 134.121 976.058 134.345 976.058 134.815V134.815ZM975.585 138.779H972.434V137.212H975.585C976.193 137.212 976.418 137.504 976.418 137.974C976.418 138.445 976.193 138.781 975.585 138.781V138.779ZM1023.65 122.515H1025.48V130.602H1023.65V127.356H1019.62V130.604H1017.8V122.517H1019.62V125.653H1023.65L1023.65 122.515ZM973.336 122.515H978.311V123.525C978.311 124.332 978.244 125.004 978.064 125.609H976.509V124.22H973.334C972.389 124.22 972.163 124.466 972.163 125.496V127.624C972.163 128.655 972.389 128.902 973.334 128.902H978.309V130.604H973.334C971.015 130.604 970.339 129.932 970.339 127.624V125.496C970.339 123.166 971.015 122.517 973.334 122.517L973.336 122.515ZM1024.8 132.397H1025.48V140.484H1023.65V134.749L1019.89 140.484H1017.8V132.397H1019.62V137.931L1022.37 133.696C1023.07 132.62 1023.68 132.397 1024.8 132.397ZM985.559 132.397H980.248V133.982L981.193 134.117V140.484H983.017V138.4H985.561C987.655 138.4 988.375 137.343 988.375 135.712V135.084C988.374 133.539 987.698 132.397 985.559 132.397ZM986.572 135.648C986.572 136.41 986.279 136.705 985.559 136.705H983.015V134.098H985.559C986.279 134.098 986.572 134.457 986.572 135.155V135.648Z" fill="#212121"/>
</svg>
