<svg width="1050" height="159" viewBox="0 0 1050 159" fill="none" xmlns="http://www.w3.org/2000/svg">
<mask id="mask0_214_1794" style="mask-type:alpha" maskUnits="userSpaceOnUse" x="0" y="0" width="1050" height="159">
<rect width="1050" height="159" rx="20" fill="#E0E0E0"/>
</mask>
<g mask="url(#mask0_214_1794)">
<rect width="1050" height="159" rx="20" fill="#F2F2F2"/>
<rect width="716.303" height="61" transform="translate(358.574 162.393) rotate(-15)" fill="#27AE60"/>
<path d="M383.641 191.829C384.466 191.608 385.025 191.154 385.319 190.466C385.627 189.775 385.645 188.923 385.373 187.908L385.335 187.766C385.063 186.752 384.622 186.023 384.01 185.578C383.408 185.116 382.694 184.996 381.869 185.217C381.058 185.434 380.498 185.888 380.191 186.579C379.879 187.257 379.86 188.103 380.132 189.117L380.175 189.28C380.45 190.307 380.887 191.045 381.486 191.494C382.084 191.942 382.803 192.054 383.641 191.829ZM384.219 194.066C382.596 194.501 381.138 194.362 379.846 193.651C378.513 192.95 377.628 191.781 377.189 190.145L377.146 189.983C376.707 188.346 376.885 186.871 377.677 185.557C378.451 184.277 379.649 183.42 381.271 182.985C382.908 182.547 384.372 182.684 385.664 183.395C386.994 184.14 387.875 185.318 388.306 186.927L388.35 187.089C388.788 188.725 388.611 190.201 387.818 191.515C387.055 192.777 385.855 193.628 384.219 194.066ZM395.35 181.713L391.617 182.713L393.9 191.233L390.999 192.01L388.157 181.401L397.691 178.847L400.533 189.455L397.632 190.233L395.35 181.713ZM408.506 178.188L405.362 179.03L407.645 187.55L404.724 188.332L402.441 179.813L399.297 180.655L398.737 178.566L407.947 176.099L408.506 178.188ZM416.065 183.141C416.89 182.92 417.45 182.466 417.744 181.778C418.051 181.087 418.069 180.235 417.797 179.22L417.759 179.078C417.488 178.064 417.046 177.335 416.434 176.89C415.832 176.428 415.118 176.308 414.293 176.529C413.482 176.746 412.923 177.2 412.615 177.891C412.304 178.569 412.284 179.415 412.556 180.429L412.599 180.591C412.875 181.619 413.311 182.357 413.91 182.806C414.508 183.254 415.227 183.366 416.065 183.141ZM416.643 185.378C415.02 185.813 413.563 185.674 412.27 184.963C410.937 184.262 410.052 183.093 409.613 181.457L409.57 181.294C409.131 179.658 409.309 178.183 410.102 176.869C410.875 175.589 412.073 174.732 413.695 174.297C415.332 173.859 416.796 173.996 418.088 174.707C419.418 175.452 420.299 176.63 420.73 178.239L420.774 178.401C421.212 180.037 421.035 181.513 420.242 182.827C419.479 184.089 418.279 184.94 416.643 185.378ZM423.582 175.149L425.614 182.735L423.403 183.327L420.561 172.719L424.435 171.681L428.599 177.565L429.324 170.371L432.934 169.403L435.777 180.012L432.896 180.784L430.864 173.197L429.976 181.566L428.495 181.963L423.582 175.149ZM446.251 175.053C447.076 174.832 447.635 174.378 447.929 173.69C448.237 172.999 448.255 172.146 447.983 171.132L447.945 170.99C447.673 169.976 447.232 169.246 446.62 168.802C446.018 168.34 445.304 168.219 444.479 168.44C443.668 168.658 443.108 169.112 442.801 169.803C442.489 170.481 442.47 171.327 442.742 172.341L442.785 172.503C443.06 173.531 443.497 174.269 444.096 174.717C444.694 175.166 445.413 175.278 446.251 175.053ZM446.829 177.29C445.206 177.725 443.748 177.586 442.456 176.874C441.123 176.173 440.238 175.005 439.799 173.369L439.756 173.206C439.317 171.57 439.495 170.095 440.287 168.781C441.061 167.501 442.259 166.644 443.881 166.209C445.518 165.771 446.982 165.907 448.274 166.619C449.604 167.364 450.485 168.541 450.916 170.151L450.96 170.313C451.398 171.949 451.221 173.424 450.428 174.738C449.665 176.001 448.465 176.851 446.829 177.29ZM459.265 164.587L456.121 165.43L458.404 173.949L455.483 174.732L453.2 166.212L450.056 167.055L449.496 164.965L458.705 162.498L459.265 164.587ZM465.873 159.881L463.449 162.597L462.698 159.797L465.409 156.527L468.29 155.755L472.176 170.259L468.89 171.139L465.873 159.881ZM480.356 165.545C482.344 165.012 482.927 163.211 482.104 160.141L481.93 159.492C481.115 156.45 479.7 155.198 477.685 155.738C475.643 156.285 475.03 158.08 475.845 161.123L476.03 161.813C476.845 164.855 478.287 166.099 480.356 165.545ZM480.965 168.143C479.018 168.665 477.32 168.438 475.87 167.464C474.384 166.515 473.343 164.931 472.749 162.713L472.564 162.024C471.974 159.819 472.095 157.917 472.927 156.317C473.739 154.752 475.092 153.715 476.985 153.208C478.879 152.701 480.563 152.902 482.039 153.811C483.542 154.77 484.591 156.359 485.185 158.577L485.365 159.246C485.959 161.464 485.869 163.372 485.094 164.971C484.275 166.567 482.899 167.625 480.965 168.143ZM494.446 161.77C496.434 161.237 497.017 159.436 496.194 156.366L496.02 155.717C495.205 152.674 493.79 151.423 491.775 151.963C489.733 152.51 489.12 154.305 489.935 157.348L490.12 158.037C490.935 161.08 492.377 162.324 494.446 161.77ZM495.055 164.367C493.108 164.889 491.409 164.663 489.96 163.689C488.474 162.739 487.433 161.156 486.839 158.938L486.654 158.248C486.064 156.044 486.184 154.142 487.017 152.542C487.829 150.976 489.182 149.94 491.075 149.433C492.968 148.925 494.653 149.126 496.128 150.035C497.632 150.995 498.681 152.584 499.275 154.801L499.454 155.471C500.049 157.689 499.959 159.597 499.184 161.196C498.365 162.792 496.989 163.849 495.055 164.367ZM508.536 157.994C510.524 157.462 511.106 155.66 510.284 152.591L510.11 151.942C509.295 148.899 507.88 147.648 505.865 148.187C503.823 148.735 503.209 150.53 504.025 153.572L504.209 154.262C505.025 157.305 506.467 158.549 508.536 157.994ZM509.145 160.592C507.198 161.114 505.499 160.888 504.05 159.914C502.563 158.964 501.523 157.38 500.929 155.163L500.744 154.473C500.153 152.269 500.274 150.367 501.106 148.767C501.919 147.201 503.272 146.165 505.165 145.657C507.058 145.15 508.743 145.351 510.218 146.26C511.722 147.22 512.771 148.808 513.365 151.026L513.544 151.695C514.138 153.913 514.048 155.822 513.274 157.42C512.455 159.017 511.079 160.074 509.145 160.592ZM518.196 146.557L521.097 145.78L523.379 154.3L526.158 153.555L523.876 145.036L526.776 144.258L529.059 152.778L531.838 152.033L529.555 143.514L532.456 142.736L535.299 153.345L521.039 157.166L518.196 146.557ZM543.28 142.075L540.136 142.918L542.419 151.437L539.498 152.22L537.215 143.701L534.071 144.543L533.511 142.454L542.72 139.986L543.28 142.075Z" fill="white"/>
<path d="M561.618 131.723C562.036 133.285 561.117 134.888 559.564 135.304C558.012 135.72 556.414 134.791 555.996 133.23C555.578 131.668 556.497 130.065 558.049 129.649C559.602 129.233 561.199 130.162 561.618 131.723Z" fill="white"/>
<path d="M560.626 145.327C555.513 146.697 550.251 143.638 548.873 138.496L547.676 134.026C552.789 132.656 558.051 135.714 559.429 140.857L560.626 145.327Z" fill="white"/>
<path d="M567.916 131.796C562.803 133.166 559.775 138.446 561.153 143.589L562.351 148.058C567.463 146.688 570.491 141.409 569.113 136.266L567.916 131.796Z" fill="white"/>
<path d="M581.779 138.739C582.604 138.517 583.163 138.063 583.457 137.376C583.765 136.685 583.783 135.832 583.511 134.818L583.473 134.676C583.201 133.661 582.759 132.932 582.147 132.487C581.545 132.025 580.832 131.905 580.007 132.126C579.195 132.343 578.636 132.797 578.328 133.489C578.017 134.166 577.997 135.012 578.269 136.026L578.313 136.189C578.588 137.216 579.025 137.955 579.623 138.403C580.222 138.851 580.94 138.963 581.779 138.739ZM582.356 140.975C580.733 141.41 579.276 141.272 577.984 140.56C576.651 139.859 575.765 138.69 575.327 137.054L575.283 136.892C574.845 135.255 575.022 133.78 575.815 132.466C576.588 131.187 577.786 130.329 579.409 129.895C581.045 129.456 582.509 129.593 583.802 130.305C585.132 131.05 586.013 132.227 586.444 133.836L586.487 133.998C586.926 135.635 586.748 137.11 585.956 138.424C585.192 139.686 583.993 140.537 582.356 140.975ZM594.793 128.273L591.649 129.115L593.931 137.635L591.01 138.417L588.728 129.898L585.583 130.74L585.024 128.651L594.233 126.183L594.793 128.273ZM598.754 127.211L601.037 135.731L598.136 136.508L595.293 125.899L602.575 123.948L603.135 126.037L598.754 127.211ZM603.819 123.615L606.76 122.827L607.206 124.49C607.369 123.852 607.7 123.278 608.201 122.767C608.712 122.239 609.339 121.875 610.083 121.676C611.421 121.317 612.642 121.49 613.744 122.195C614.897 122.929 615.704 124.155 616.164 125.873L616.208 126.035C616.664 127.739 616.585 129.202 615.971 130.425C615.39 131.609 614.416 132.385 613.05 132.751C612.266 132.961 611.531 132.977 610.845 132.798C610.156 132.606 609.597 132.277 609.168 131.813L610.57 137.046L607.629 137.834L603.819 123.615ZM611.564 130.692C612.375 130.475 612.927 130.045 613.218 129.401C613.506 128.744 613.51 127.895 613.231 126.854L613.188 126.692C612.905 125.637 612.461 124.901 611.857 124.483C611.252 124.065 610.564 123.96 609.793 124.166C608.996 124.38 608.434 124.828 608.11 125.509C607.795 126.173 607.777 127.026 608.056 128.067L608.099 128.229C608.378 129.27 608.82 130 609.425 130.418C610.026 130.822 610.739 130.913 611.564 130.692ZM621.588 129.072L614.815 120.668L617.979 119.821L622.262 125.5L622.928 118.494L625.748 117.739L623.818 133.496L620.978 134.257L621.588 129.072ZM633.142 121.693L631.479 127.574L628.335 128.416L630.418 121.749L625.756 117.737L628.778 116.927L632.892 120.76L631.659 116.155L634.539 115.383L635.778 120.008L637.44 114.606L640.442 113.802L638.394 119.546L643.589 124.329L640.384 125.188L636.012 120.88L637.382 125.992L634.501 126.764L633.142 121.693ZM647.295 123.575C646.267 123.85 645.368 123.823 644.599 123.493C643.747 123.127 643.18 122.417 642.897 121.362C642.582 120.185 642.86 119.169 643.732 118.312C644.514 117.551 645.77 116.939 647.501 116.476L648.698 116.155L648.584 115.729C648.403 115.053 648.142 114.594 647.802 114.351C647.475 114.106 646.987 114.07 646.338 114.244C645.297 114.523 644.829 115.184 644.935 116.228L642.156 116.973C641.918 115.761 642.165 114.709 642.898 113.818C643.567 113.015 644.584 112.431 645.95 112.065C647.316 111.699 648.464 111.71 649.394 112.099C650.393 112.527 651.077 113.43 651.447 114.81L653.3 121.727L650.44 122.493L650.098 121.215C649.649 122.408 648.715 123.195 647.295 123.575ZM647.618 121.293C648.281 121.115 648.783 120.799 649.125 120.345C649.467 119.891 649.561 119.373 649.405 118.792L649.166 117.899L648.03 118.204C647.137 118.443 646.492 118.739 646.094 119.092C645.709 119.442 645.589 119.887 645.734 120.428C645.962 121.28 646.59 121.568 647.618 121.293ZM660.164 120.127C658.515 120.569 657.067 120.442 655.823 119.746C654.507 119.055 653.627 117.878 653.181 116.215L653.137 116.052C652.695 114.403 652.864 112.923 653.643 111.612C654.403 110.336 655.56 109.49 657.116 109.073C658.59 108.678 659.907 108.782 661.069 109.384C662.364 110.051 663.252 111.284 663.734 113.083L663.951 113.894L656.304 115.943C656.584 116.825 657.012 117.449 657.589 117.817C658.175 118.167 658.874 118.233 659.686 118.016C660.957 117.675 661.562 116.984 661.5 115.942L664.279 115.198C664.411 116.394 664.121 117.421 663.409 118.279C662.706 119.119 661.625 119.735 660.164 120.127ZM660.607 112.855C660.089 111.298 659.106 110.714 657.659 111.102C656.996 111.279 656.505 111.635 656.185 112.171C655.874 112.689 655.766 113.341 655.861 114.127L660.607 112.855ZM666.569 110.04L668.602 117.627L666.391 118.219L663.548 107.61L667.423 106.572L671.587 112.457L672.311 105.262L675.922 104.295L678.765 114.904L675.884 115.675L673.851 108.089L672.963 116.458L671.482 116.855L666.569 110.04ZM689.239 109.945C690.064 109.724 690.623 109.269 690.917 108.582C691.225 107.891 691.243 107.038 690.971 106.024L690.933 105.882C690.661 104.868 690.219 104.138 689.607 103.693C689.005 103.231 688.292 103.111 687.467 103.332C686.655 103.549 686.096 104.004 685.788 104.695C685.477 105.372 685.457 106.218 685.729 107.233L685.773 107.395C686.048 108.423 686.485 109.161 687.083 109.609C687.682 110.057 688.4 110.169 689.239 109.945ZM689.816 112.181C688.193 112.616 686.736 112.478 685.444 111.766C684.111 111.065 683.225 109.896 682.787 108.26L682.743 108.098C682.305 106.462 682.482 104.986 683.275 103.672C684.048 102.393 685.246 101.535 686.869 101.101C688.505 100.662 689.969 100.799 691.262 101.511C692.592 102.256 693.473 103.433 693.904 105.042L693.947 105.205C694.386 106.841 694.208 108.316 693.416 109.63C692.652 110.892 691.453 111.743 689.816 112.181ZM700.947 99.8286L697.215 100.829L699.498 109.348L696.597 110.125L693.754 99.5166L703.288 96.962L706.131 107.571L703.23 108.348L700.947 99.8286ZM714.104 96.3033L710.96 97.1457L713.243 105.665L710.322 106.448L708.039 97.9284L704.895 98.7708L704.335 96.6815L713.544 94.214L714.104 96.3033ZM721.663 101.257C722.488 101.036 723.047 100.581 723.341 99.8938C723.649 99.2026 723.667 98.3499 723.395 97.3357L723.357 97.1937C723.085 96.1795 722.643 95.45 722.031 95.0053C721.429 94.5433 720.716 94.4229 719.891 94.6439C719.08 94.8613 718.52 95.3156 718.213 96.0068C717.901 96.6844 717.882 97.5304 718.153 98.5446L718.197 98.7069C718.472 99.7346 718.909 100.473 719.508 100.921C720.106 101.369 720.824 101.481 721.663 101.257ZM722.24 103.493C720.618 103.928 719.16 103.79 717.868 103.078C716.535 102.377 715.649 101.208 715.211 99.5721L715.168 99.4098C714.729 97.7736 714.906 96.2984 715.699 94.9844C716.472 93.7047 717.67 92.8475 719.293 92.4126C720.929 91.9742 722.394 92.1109 723.686 92.8227C725.016 93.5678 725.897 94.745 726.328 96.3542L726.371 96.5165C726.81 98.1527 726.633 99.6279 725.84 100.942C725.076 102.204 723.877 103.055 722.24 103.493ZM729.179 93.2639L731.212 100.85L729.001 101.443L726.158 90.834L730.033 89.7959L734.197 95.6807L734.921 88.486L738.532 87.5185L741.374 98.1273L738.494 98.8991L736.461 91.3127L735.573 99.6817L734.092 100.079L729.179 93.2639ZM751.849 93.1684C752.674 92.9474 753.233 92.4931 753.527 91.8055C753.835 91.1144 753.853 90.2617 753.581 89.2475L753.543 89.1055C753.271 88.0913 752.829 87.3618 752.217 86.917C751.615 86.4551 750.902 86.3346 750.077 86.5557C749.265 86.7731 748.706 87.2274 748.398 87.9185C748.087 88.5962 748.067 89.4421 748.339 90.4563L748.383 90.6186C748.658 91.6463 749.095 92.3844 749.693 92.8328C750.292 93.2812 751.01 93.3931 751.849 93.1684ZM752.426 95.4051C750.803 95.8399 749.346 95.7015 748.054 94.9897C746.721 94.2887 745.835 93.1201 745.397 91.4839L745.353 91.3216C744.915 89.6853 745.092 88.2102 745.885 86.8962C746.658 85.6165 747.856 84.7592 749.479 84.3244C751.115 83.8859 752.579 84.0226 753.872 84.7344C755.202 85.4795 756.083 86.6567 756.514 88.2659L756.557 88.4282C756.996 90.0645 756.818 91.5396 756.025 92.8536C755.262 94.1162 754.063 94.9667 752.426 95.4051ZM764.863 82.7025L761.719 83.545L764.001 92.0644L761.08 92.8471L758.798 84.3276L755.653 85.1701L755.094 83.0808L764.303 80.6132L764.863 82.7025ZM771.471 77.9968L769.046 80.7119L768.296 77.9127L771.007 74.6426L773.887 73.8708L777.774 88.3742L774.488 89.2547L771.471 77.9968ZM785.954 83.6603C787.942 83.1277 788.524 81.3265 787.702 78.2568L787.528 77.6077C786.713 74.565 785.298 73.3136 783.283 73.8535C781.241 74.4007 780.627 76.1956 781.443 79.2382L781.627 79.9279C782.443 82.9706 783.885 84.2147 785.954 83.6603ZM786.563 86.2582C784.616 86.78 782.917 86.5538 781.468 85.5798C779.981 84.6302 778.941 83.0465 778.347 80.8287L778.162 80.139C777.571 77.9348 777.692 76.0327 778.524 74.4328C779.337 72.8672 780.69 71.8307 782.583 71.3234C784.476 70.8161 786.161 71.017 787.636 71.9261C789.14 72.8856 790.189 74.4743 790.783 76.692L790.962 77.3614C791.557 79.5792 791.466 81.4876 790.692 83.0865C789.873 84.6828 788.497 85.74 786.563 86.2582ZM800.044 79.885C802.032 79.3523 802.614 77.5512 801.792 74.4814L801.618 73.8323C800.802 70.7897 799.387 69.5383 797.372 70.0782C795.331 70.6253 794.717 72.4202 795.532 75.4629L795.717 76.1526C796.533 79.1952 797.975 80.4394 800.044 79.885ZM800.653 82.4829C798.706 83.0046 797.007 82.7785 795.558 81.8045C794.071 80.8548 793.031 79.2711 792.437 77.0534L792.252 76.3637C791.661 74.1594 791.782 72.2574 792.614 70.6574C793.427 69.0918 794.78 68.0554 796.673 67.5481C798.566 67.0408 800.25 67.2417 801.726 68.1507C803.23 69.1103 804.278 70.6989 804.873 72.9167L805.052 73.5861C805.646 75.8039 805.556 77.7122 804.782 79.3112C803.963 80.9075 802.587 81.9647 800.653 82.4829ZM814.133 76.1096C816.121 75.577 816.704 73.7758 815.881 70.7061L815.708 70.057C814.892 67.0143 813.477 65.763 811.462 66.3028C809.42 66.85 808.807 68.6449 809.622 71.6876L809.807 72.3772C810.622 75.4199 812.064 76.664 814.133 76.1096ZM814.743 78.7075C812.795 79.2293 811.097 79.0032 809.647 78.0291C808.161 77.0795 807.121 75.4958 806.526 73.278L806.342 72.5883C805.751 70.3841 805.872 68.482 806.704 66.8821C807.516 65.3165 808.869 64.28 810.763 63.7727C812.656 63.2654 814.34 63.4663 815.816 64.3754C817.319 65.3349 818.368 66.9236 818.962 69.1414L819.142 69.8108C819.736 72.0285 819.646 73.9369 818.871 75.5358C818.053 77.1321 816.676 78.1894 814.743 78.7075ZM823.794 64.6727L826.694 63.8955L828.977 72.4149L831.756 71.6703L829.473 63.1509L832.374 62.3736L834.657 70.8931L837.436 70.1485L835.153 61.629L838.054 60.8518L840.896 71.4605L826.636 75.2815L823.794 64.6727ZM848.877 60.1908L845.733 61.0333L848.016 69.5527L845.095 70.3354L842.812 61.8159L839.668 62.6584L839.108 60.5691L848.318 58.1015L848.877 60.1908Z" fill="white"/>
<path d="M866.973 49.9037C867.391 51.4651 866.472 53.068 864.92 53.484C863.367 53.8999 861.77 52.9714 861.351 51.4099C860.933 49.8485 861.852 48.2456 863.405 47.8296C864.957 47.4137 866.555 48.3422 866.973 49.9037Z" fill="white"/>
<path d="M865.982 63.5069C860.869 64.8769 855.607 61.8185 854.229 56.6758L853.031 52.2061C858.144 50.8361 863.406 53.8945 864.784 59.0372L865.982 63.5069Z" fill="white"/>
<path d="M873.271 49.9766C868.158 51.3466 865.13 56.6262 866.508 61.7689L867.706 66.2385C872.819 64.8685 875.847 59.5889 874.469 54.4462L873.271 49.9766Z" fill="white"/>
<path d="M887.134 56.9188C887.959 56.6978 888.518 56.2435 888.812 55.556C889.12 54.8648 889.138 54.0121 888.866 52.9979L888.828 52.8559C888.556 51.8417 888.115 51.1122 887.503 50.6674C886.901 50.2055 886.187 50.0851 885.362 50.3061C884.551 50.5235 883.991 50.9778 883.684 51.6689C883.372 52.3466 883.353 53.1925 883.624 54.2067L883.668 54.369C883.943 55.3968 884.38 56.1348 884.979 56.5832C885.577 57.0316 886.296 57.1435 887.134 56.9188ZM887.712 59.1555C886.089 59.5904 884.631 59.4519 883.339 58.7401C882.006 58.0392 881.121 56.8706 880.682 55.2343L880.639 55.072C880.2 53.4357 880.377 51.9606 881.17 50.6466C881.944 49.3669 883.141 48.5096 884.764 48.0748C886.401 47.6364 887.865 47.773 889.157 48.4848C890.487 49.2299 891.368 50.4071 891.799 52.0164L891.843 52.1786C892.281 53.8149 892.104 55.29 891.311 56.604C890.548 57.8666 889.348 58.7171 887.712 59.1555ZM900.148 46.4529L897.004 47.2954L899.287 55.8149L896.366 56.5975L894.083 48.0781L890.939 48.9205L890.379 46.8312L899.588 44.3636L900.148 46.4529ZM904.109 45.3915L906.392 53.911L903.491 54.6882L900.649 44.0795L907.931 42.1282L908.491 44.2175L904.109 45.3915ZM909.174 41.795L912.116 41.0069L912.561 42.6702C912.724 42.0324 913.055 41.458 913.556 40.947C914.067 40.4188 914.694 40.0551 915.438 39.8558C916.777 39.4971 917.997 39.6701 919.099 40.3749C920.252 41.1094 921.059 42.3354 921.519 44.0528L921.563 44.2151C922.02 45.919 921.941 47.3823 921.326 48.605C920.745 49.7898 919.771 50.5651 918.406 50.9311C917.621 51.1413 916.886 51.157 916.201 50.9784C915.511 50.7862 914.952 50.4577 914.523 49.9929L915.926 55.2263L912.985 56.0144L909.174 41.795ZM916.919 48.8727C917.731 48.6553 918.282 48.2249 918.573 47.5815C918.861 46.9247 918.866 46.0756 918.587 45.0343L918.543 44.8721C918.26 43.8173 917.817 43.081 917.212 42.6633C916.607 42.2456 915.92 42.14 915.149 42.3465C914.351 42.5603 913.79 43.0078 913.465 43.6891C913.15 44.3532 913.132 45.2059 913.411 46.2472L913.455 46.4094C913.734 47.4507 914.175 48.1802 914.78 48.5979C915.381 49.0021 916.094 49.0937 916.919 48.8727ZM926.944 47.2519L920.17 38.8487L923.334 38.0008L927.617 43.6799L928.284 36.6747L931.103 35.9192L929.173 51.6767L926.333 52.4376L926.944 47.2519ZM938.498 39.8731L936.834 45.754L933.69 46.5965L935.773 39.9291L931.111 35.9171L934.134 35.1072L938.248 38.94L937.014 34.3354L939.894 33.5636L941.134 38.1885L942.795 32.7864L945.797 31.982L943.749 37.7268L948.944 42.5092L945.739 43.368L941.367 39.0607L942.737 44.1724L939.857 44.9442L938.498 39.8731ZM952.65 41.7553C951.622 42.0307 950.724 42.0034 949.954 41.6733C949.102 41.3073 948.535 40.5969 948.253 39.5421C947.937 38.3656 948.216 37.3489 949.088 36.492C949.869 35.7318 951.126 35.1197 952.857 34.6559L954.054 34.3352L953.939 33.9093C953.758 33.2331 953.498 32.774 953.157 32.5318C952.83 32.286 952.343 32.25 951.693 32.424C950.652 32.703 950.184 33.3646 950.29 34.4087L947.511 35.1534C947.274 33.9416 947.521 32.8898 948.253 31.9979C948.922 31.1954 949.939 30.6111 951.305 30.2452C952.671 29.8792 953.819 29.8905 954.749 30.2789C955.748 30.707 956.432 31.6107 956.802 32.9901L958.655 39.907L955.795 40.6734L955.453 39.3955C955.004 40.5882 954.07 41.3748 952.65 41.7553ZM952.973 39.4729C953.636 39.2953 954.138 38.9795 954.481 38.5255C954.823 38.0715 954.916 37.5537 954.76 36.9722L954.521 36.0797L953.385 36.3841C952.493 36.6232 951.847 36.9193 951.449 37.2724C951.064 37.6219 950.944 38.0671 951.089 38.608C951.318 39.46 951.946 39.7482 952.973 39.4729ZM965.52 38.3069C963.87 38.749 962.423 38.6222 961.178 37.9266C959.863 37.2356 958.982 36.0584 958.536 34.3951L958.493 34.2328C958.051 32.583 958.219 31.1029 958.999 29.7925C959.758 28.5164 960.916 27.6701 962.471 27.2534C963.945 26.8584 965.263 26.9619 966.424 27.5638C967.719 28.2314 968.607 29.4645 969.089 31.263L969.307 32.0744L961.659 34.1235C961.939 35.0051 962.367 35.6296 962.944 35.9968C963.531 36.3469 964.23 36.4133 965.041 36.1959C966.312 35.8553 966.917 35.1642 966.855 34.1227L969.634 33.3781C969.766 34.5746 969.476 35.6017 968.764 36.4593C968.062 37.2997 966.98 37.9156 965.52 38.3069ZM965.963 31.0355C965.444 29.4786 964.461 28.8941 963.014 29.2818C962.352 29.4594 961.86 29.8157 961.54 30.3509C961.229 30.8689 961.122 31.521 961.216 32.3073L965.963 31.0355ZM971.925 28.2205L973.957 35.8069L971.746 36.3993L968.904 25.7906L972.778 24.7525L976.942 30.6373L977.667 23.4426L981.277 22.4751L984.12 33.0839L981.239 33.8557L979.207 26.2693L978.319 34.6383L976.838 35.0351L971.925 28.2205ZM994.594 28.125C995.419 27.904 995.978 27.4497 996.272 26.7621C996.58 26.071 996.598 25.2183 996.326 24.2041L996.288 24.0621C996.016 23.0479 995.575 22.3184 994.963 21.8736C994.361 21.4117 993.647 21.2912 992.822 21.5123C992.011 21.7297 991.451 22.184 991.144 22.8751C990.832 23.5528 990.813 24.3987 991.084 25.4129L991.128 25.5752C991.403 26.6029 991.84 27.341 992.439 27.7894C993.037 28.2378 993.756 28.3497 994.594 28.125ZM995.172 30.3617C993.549 30.7965 992.091 30.658 990.799 29.9463C989.466 29.2453 988.581 28.0767 988.142 26.4405L988.099 26.2782C987.66 24.6419 987.837 23.1668 988.63 21.8528C989.404 20.5731 990.601 19.7158 992.224 19.281C993.861 18.8425 995.325 18.9792 996.617 19.691C997.947 20.4361 998.828 21.6133 999.259 23.2225L999.303 23.3848C999.741 25.0211 999.564 26.4962 998.771 27.8102C998.008 29.0728 996.808 29.9233 995.172 30.3617ZM1006.3 18.0089L1002.57 19.009L1004.85 27.5284L1001.95 28.3057L999.11 17.6969L1008.64 15.1423L1011.49 25.7511L1008.59 26.5283L1006.3 18.0089ZM1019.46 14.4836L1016.32 15.326L1018.6 23.8455L1015.68 24.6281L1013.39 16.1087L1010.25 16.9511L1009.69 14.8618L1018.9 12.3943L1019.46 14.4836ZM1027.02 19.437C1027.84 19.2159 1028.4 18.7616 1028.7 18.0741C1029 17.3829 1029.02 16.5302 1028.75 15.516L1028.71 15.374C1028.44 14.3598 1028 13.6303 1027.39 13.1856C1026.78 12.7236 1026.07 12.6032 1025.25 12.8242C1024.43 13.0416 1023.88 13.4959 1023.57 14.1871C1023.26 14.8647 1023.24 15.7107 1023.51 16.7249L1023.55 16.8872C1023.83 17.9149 1024.26 18.653 1024.86 19.1014C1025.46 19.5497 1026.18 19.6616 1027.02 19.437ZM1027.6 21.6737C1025.97 22.1085 1024.52 21.97 1023.22 21.2582C1021.89 20.5573 1021 19.3887 1020.57 17.7524L1020.52 17.5901C1020.08 15.9539 1020.26 14.4787 1021.05 13.1647C1021.83 11.885 1023.03 11.0278 1024.65 10.5929C1026.28 10.1545 1027.75 10.2912 1029.04 11.003C1030.37 11.7481 1031.25 12.9253 1031.68 14.5345L1031.73 14.6968C1032.17 16.333 1031.99 17.8082 1031.2 19.1222C1030.43 20.3847 1029.23 21.2352 1027.6 21.6737ZM1034.53 11.4442L1036.57 19.0306L1034.36 19.6231L1031.51 9.01429L1035.39 7.97617L1039.55 13.861L1040.28 6.66628L1043.89 5.69882L1046.73 16.3076L1043.85 17.0794L1041.82 9.493L1040.93 17.862L1039.45 18.2588L1034.53 11.4442ZM1057.2 11.3487C1058.03 11.1277 1058.59 10.6734 1058.88 9.98584C1059.19 9.29468 1059.21 8.44199 1058.94 7.42777L1058.9 7.28578C1058.63 6.27155 1058.18 5.54206 1057.57 5.09729C1056.97 4.63538 1056.26 4.51494 1055.43 4.73597C1054.62 4.95338 1054.06 5.40766 1053.75 6.09883C1053.44 6.77647 1053.42 7.6224 1053.69 8.63662L1053.74 8.79889C1054.01 9.82664 1054.45 10.5647 1055.05 11.0131C1055.65 11.4615 1056.37 11.5734 1057.2 11.3487ZM1057.78 13.5854C1056.16 14.0202 1054.7 13.8818 1053.41 13.17C1052.08 12.469 1051.19 11.3004 1050.75 9.66416L1050.71 9.50188C1050.27 7.8656 1050.45 6.39046 1051.24 5.07647C1052.01 3.79676 1053.21 2.9395 1054.83 2.50468C1056.47 2.06624 1057.93 2.20292 1059.23 2.91471C1060.56 3.65983 1061.44 4.837 1061.87 6.44623L1061.91 6.60851C1062.35 8.24479 1062.17 9.71993 1061.38 11.0339C1060.62 12.2965 1059.42 13.147 1057.78 13.5854ZM1070.22 0.88282L1067.07 1.72528L1069.36 10.2447L1066.44 11.0274L1064.15 2.50794L1061.01 3.3504L1060.45 1.2611L1069.66 -1.20648L1070.22 0.88282ZM1076.83 -3.82291L1074.4 -1.10779L1073.65 -3.90704L1076.36 -7.17713L1079.24 -7.94892L1083.13 6.55445L1079.84 7.43495L1076.83 -3.82291ZM1091.31 1.84063C1093.3 1.30798 1093.88 -0.493203 1093.06 -3.56292L1092.88 -4.21202C1092.07 -7.25468 1090.65 -8.50607 1088.64 -7.96617C1086.6 -7.41903 1085.98 -5.62412 1086.8 -2.58146L1086.98 -1.89179C1087.8 1.15088 1089.24 2.39502 1091.31 1.84063ZM1091.92 4.43849C1089.97 4.96027 1088.27 4.73414 1086.82 3.76011C1085.34 2.81047 1084.3 1.22677 1083.7 -0.990999L1083.52 -1.68067C1082.93 -3.88491 1083.05 -5.787 1083.88 -7.38692C1084.69 -8.95255 1086.05 -9.98901 1087.94 -10.4963C1089.83 -11.0036 1091.52 -10.8027 1092.99 -9.89361C1094.5 -8.93407 1095.54 -7.34542 1096.14 -5.12765L1096.32 -4.45827C1096.91 -2.2405 1096.82 -0.332142 1096.05 1.26681C1095.23 2.86311 1093.85 3.92034 1091.92 4.43849ZM1105.4 -1.93472C1107.39 -2.46737 1107.97 -4.26855 1107.15 -7.33826L1106.97 -7.98736C1106.16 -11.03 1104.74 -12.2814 1102.73 -11.7415C1100.69 -11.1944 1100.07 -9.39947 1100.89 -6.3568L1101.07 -5.66713C1101.89 -2.62446 1103.33 -1.38033 1105.4 -1.93472ZM1106.01 0.663149C1104.06 1.18493 1102.36 0.958801 1100.91 -0.015233C1099.43 -0.964874 1098.39 -2.54858 1097.79 -4.76634L1097.61 -5.45601C1097.02 -7.66026 1097.14 -9.56234 1097.97 -11.1623C1098.78 -12.7279 1100.13 -13.7644 1102.03 -14.2716C1103.92 -14.7789 1105.61 -14.578 1107.08 -13.669C1108.58 -12.7094 1109.63 -11.1208 1110.23 -8.903L1110.41 -8.23361C1111 -6.01584 1110.91 -4.10749 1110.14 -2.50853C1109.32 -0.912234 1107.94 0.144994 1106.01 0.663149ZM1119.49 -5.71006C1121.48 -6.2427 1122.06 -8.04389 1121.24 -11.1136L1121.06 -11.7627C1120.25 -14.8054 1118.83 -16.0568 1116.82 -15.5169C1114.78 -14.9697 1114.16 -13.1748 1114.98 -10.1321L1115.16 -9.44247C1115.98 -6.3998 1117.42 -5.15566 1119.49 -5.71006ZM1120.1 -3.11219C1118.15 -2.59041 1116.45 -2.81654 1115 -3.79057C1113.52 -4.74021 1112.48 -6.32392 1111.88 -8.54168L1111.7 -9.23135C1111.11 -11.4356 1111.23 -13.3377 1112.06 -14.9376C1112.87 -16.5032 1114.22 -17.5397 1116.12 -18.047C1118.01 -18.5543 1119.7 -18.3534 1121.17 -17.4443C1122.67 -16.4848 1123.72 -14.8961 1124.32 -12.6783L1124.5 -12.0089C1125.09 -9.79118 1125 -7.88283 1124.23 -6.28387C1123.41 -4.68757 1122.03 -3.63035 1120.1 -3.11219ZM1129.15 -17.147L1132.05 -17.9242L1134.33 -9.40476L1137.11 -10.1494L1134.83 -18.6688L1137.73 -19.4461L1140.01 -10.9266L1142.79 -11.6712L1140.51 -20.1907L1143.41 -20.9679L1146.25 -10.3592L1131.99 -6.53822L1129.15 -17.147ZM1154.23 -21.6289L1151.09 -20.7864L1153.37 -12.267L1150.45 -11.4843L1148.17 -20.0038L1145.02 -19.1613L1144.46 -21.2506L1153.67 -23.7182L1154.23 -21.6289Z" fill="white"/>
<rect width="839.228" height="61" transform="translate(140.64 -102) rotate(23.8239)" fill="#27AE60"/>
<path d="M141.714 -63.3517C142.495 -63.0067 143.216 -63.0099 143.876 -63.3612C144.549 -63.7068 145.098 -64.3599 145.522 -65.3204L145.581 -65.4549C146.005 -66.4154 146.118 -67.2608 145.921 -67.991C145.741 -68.7283 145.261 -69.2694 144.479 -69.6144C143.711 -69.9537 142.99 -69.9505 142.317 -69.6049C141.65 -69.272 141.104 -68.6254 140.68 -67.6648L140.612 -67.5112C140.183 -66.5378 140.06 -65.6889 140.245 -64.9644C140.431 -64.2399 140.92 -63.7023 141.714 -63.3517ZM140.762 -61.247C139.225 -61.9256 138.176 -62.9473 137.616 -64.312C137.017 -65.6936 137.06 -67.1593 137.744 -68.7089L137.812 -68.8626C138.496 -70.4123 139.559 -71.4504 141 -71.977C142.405 -72.4893 143.876 -72.4061 145.413 -71.7275C146.962 -71.0433 148.017 -70.0188 148.578 -68.6541C149.147 -67.2397 149.095 -65.7704 148.422 -64.2464L148.354 -64.0927C147.67 -62.5431 146.607 -61.5049 145.166 -60.9783C143.779 -60.4732 142.312 -60.5628 140.762 -61.247ZM157.178 -63.8924L153.643 -65.4532L150.081 -57.3848L147.334 -58.5978L151.77 -68.6449L160.799 -64.6581L156.363 -54.611L153.616 -55.824L157.178 -63.8924ZM169.638 -58.3906L166.661 -59.7054L163.098 -51.637L160.332 -52.8584L163.894 -60.9269L160.917 -62.2417L161.79 -64.2204L170.512 -60.3693L169.638 -58.3906ZM172.422 -49.7927C173.203 -49.4477 173.924 -49.4509 174.584 -49.8022C175.257 -50.1478 175.805 -50.8009 176.23 -51.7614L176.289 -51.8959C176.713 -52.8564 176.826 -53.7018 176.628 -54.4319C176.449 -55.1692 175.968 -55.7104 175.187 -56.0553C174.419 -56.3946 173.698 -56.3915 173.025 -56.0458C172.358 -55.713 171.812 -55.0663 171.388 -54.1058L171.32 -53.9521C170.89 -52.9788 170.768 -52.1299 170.953 -51.4054C171.138 -50.6808 171.628 -50.1433 172.422 -49.7927ZM171.47 -47.688C169.933 -48.3666 168.884 -49.3882 168.324 -50.7529C167.725 -52.1346 167.767 -53.6002 168.452 -55.1499L168.519 -55.3036C169.204 -56.8532 170.267 -57.8914 171.708 -58.418C173.113 -58.9302 174.583 -58.8471 176.12 -58.1685C177.67 -57.4842 178.725 -56.4598 179.286 -55.0951C179.855 -53.6806 179.803 -52.2114 179.13 -50.6874L179.062 -50.5337C178.378 -48.984 177.315 -47.9459 175.873 -47.4193C174.487 -46.9142 173.019 -47.0037 171.47 -47.688ZM183.289 -51.3074L180.116 -44.1226L178.022 -45.0472L182.459 -55.0944L186.128 -53.4742L185.682 -46.279L190.758 -51.4299L194.177 -49.92L189.741 -39.8729L187.013 -41.0774L190.185 -48.2622L184.246 -42.2989L182.844 -42.9181L183.289 -51.3074ZM201.01 -37.1697C201.791 -36.8247 202.512 -36.8279 203.172 -37.1792C203.845 -37.5248 204.393 -38.1779 204.817 -39.1384L204.877 -39.2729C205.301 -40.2334 205.414 -41.0788 205.216 -41.8089C205.037 -42.5463 204.556 -43.0874 203.775 -43.4324C203.007 -43.7717 202.286 -43.7685 201.613 -43.4229C200.946 -43.09 200.4 -42.4434 199.976 -41.4828L199.908 -41.3291C199.478 -40.3558 199.356 -39.5069 199.541 -38.7824C199.726 -38.0579 200.216 -37.5203 201.01 -37.1697ZM200.057 -35.065C198.521 -35.7436 197.472 -36.7653 196.911 -38.1299C196.312 -39.5116 196.355 -40.9773 197.039 -42.5269L197.107 -42.6806C197.791 -44.2303 198.854 -45.2684 200.296 -45.795C201.7 -46.3073 203.171 -46.2241 204.708 -45.5455C206.258 -44.8613 207.313 -43.8368 207.873 -42.4721C208.442 -41.0577 208.391 -39.5884 207.718 -38.0644L207.65 -37.9107C206.966 -36.3611 205.903 -35.3229 204.461 -34.7963C203.075 -34.2912 201.607 -34.3808 200.057 -35.065ZM217.71 -37.1646L214.732 -38.4794L211.17 -30.4109L208.403 -31.6324L211.966 -39.7008L208.988 -41.0156L209.862 -42.9943L218.584 -39.1433L217.71 -37.1646ZM225.809 -36.6877L222.217 -36.0926L223.388 -38.7437L227.55 -39.5917L230.278 -38.3872L224.213 -24.6516L221.101 -26.0258L225.809 -36.6877ZM233.541 -23.1956C235.424 -22.3643 237.007 -23.4023 238.291 -26.3095L238.562 -26.9243C239.834 -29.8058 239.517 -31.6679 237.608 -32.5105C235.674 -33.3644 234.071 -32.3506 232.799 -29.469L232.511 -28.8158C231.238 -25.9342 231.582 -24.0608 233.541 -23.1956ZM232.387 -20.7898C230.543 -21.6041 229.361 -22.8451 228.843 -24.5126C228.28 -26.1844 228.462 -28.0704 229.39 -30.1708L229.678 -30.8239C230.6 -32.9115 231.887 -34.3176 233.538 -35.0423C235.153 -35.7527 236.856 -35.712 238.649 -34.9203C240.442 -34.1286 241.629 -32.9161 242.208 -31.2828C242.778 -29.5926 242.599 -27.6974 241.672 -25.597L241.392 -24.963C240.465 -22.8627 239.198 -21.4324 237.592 -20.6723C235.953 -19.942 234.218 -19.9811 232.387 -20.7898ZM246.885 -17.3036C248.768 -16.4723 250.351 -17.5103 251.635 -20.4175L251.906 -21.0322C253.178 -23.9138 252.86 -25.7759 250.952 -26.6185C249.018 -27.4724 247.415 -26.4586 246.143 -23.577L245.854 -22.9238C244.582 -20.0422 244.926 -18.1688 246.885 -17.3036ZM245.731 -14.8978C243.887 -15.7121 242.705 -16.9531 242.187 -18.6206C241.624 -20.2924 241.806 -22.1784 242.734 -24.2788L243.022 -24.9319C243.944 -27.0195 245.231 -28.4256 246.882 -29.1503C248.497 -29.8607 250.2 -29.82 251.993 -29.0283C253.786 -28.2366 254.973 -27.0241 255.552 -25.3908C256.122 -23.7006 255.943 -21.8053 255.016 -19.705L254.736 -19.071C253.809 -16.9707 252.542 -15.5404 250.936 -14.7803C249.297 -14.05 247.562 -14.0891 245.731 -14.8978ZM260.229 -11.4116C262.112 -10.5803 263.695 -11.6183 264.978 -14.5255L265.25 -15.1402C266.522 -18.0218 266.204 -19.8839 264.296 -20.7265C262.362 -21.5804 260.759 -20.5666 259.487 -17.685L259.198 -17.0318C257.926 -14.1502 258.269 -12.2768 260.229 -11.4116ZM259.075 -9.0058C257.231 -9.82011 256.049 -11.0611 255.531 -12.7286C254.968 -14.4004 255.15 -16.2864 256.078 -18.3868L256.366 -19.0399C257.288 -21.1275 258.574 -22.5336 260.226 -23.2583C261.84 -23.9687 263.544 -23.928 265.337 -23.1363C267.13 -22.3446 268.316 -21.1321 268.896 -19.4988C269.466 -17.8086 269.287 -15.9133 268.36 -13.813L268.08 -13.179C267.152 -11.0787 265.886 -9.64844 264.28 -8.88832C262.641 -8.15798 260.906 -8.19714 259.075 -9.0058ZM274.925 -14.2656L277.672 -13.0526L274.11 -4.98419L276.741 -3.82209L280.304 -11.8905L283.051 -10.6776L279.489 -2.6091L282.12 -1.447L285.683 -9.51546L288.43 -8.30246L283.994 1.74469L270.489 -4.21849L274.925 -14.2656ZM297.277 -2.03157L294.3 -3.34635L290.737 4.7221L287.971 3.50063L291.533 -4.56783L288.556 -5.88261L289.429 -7.86131L298.151 -4.01026L297.277 -2.03157Z" fill="white"/>
<path d="M318.054 1.39983C317.401 2.87858 315.68 3.5511 314.209 2.90195C312.739 2.25279 312.077 0.527785 312.73 -0.950964C313.383 -2.42971 315.104 -3.10223 316.574 -2.45308C318.044 -1.80392 318.707 -0.078916 318.054 1.39983Z" fill="white"/>
<path d="M308.753 11.3762C303.911 9.23813 301.729 3.55656 303.879 -1.31393L305.748 -5.54695C310.591 -3.40886 312.773 2.27281 310.622 7.14329L308.753 11.3762Z" fill="white"/>
<path d="M322.914 5.40495C318.072 3.26686 312.403 5.4819 310.253 10.3524L308.384 14.5854C313.226 16.7235 318.895 14.5085 321.045 9.63797L322.914 5.40495Z" fill="white"/>
<path d="M329.363 19.5046C330.144 19.8496 330.865 19.8464 331.525 19.4951C332.198 19.1495 332.746 18.4964 333.17 17.5359L333.23 17.4014C333.654 16.4409 333.767 15.5955 333.569 14.8654C333.39 14.1281 332.909 13.5869 332.128 13.242C331.36 12.9027 330.639 12.9058 329.966 13.2515C329.299 13.5843 328.753 14.231 328.329 15.1915L328.261 15.3452C327.831 16.3185 327.709 17.1674 327.894 17.8919C328.079 18.6165 328.569 19.154 329.363 19.5046ZM328.41 21.6093C326.874 20.9307 325.825 19.9091 325.264 18.5444C324.665 17.1627 324.708 15.6971 325.392 14.1474L325.46 13.9937C326.144 12.4441 327.207 11.4059 328.649 10.8793C330.053 10.367 331.524 10.4502 333.061 11.1288C334.611 11.813 335.666 12.8375 336.226 14.2022C336.795 15.6166 336.744 17.0859 336.071 18.6099L336.003 18.7636C335.319 20.3133 334.256 21.3514 332.814 21.878C331.428 22.3831 329.96 22.2936 328.41 21.6093ZM346.063 19.5097L343.085 18.195L339.523 26.2634L336.756 25.0419L340.319 16.9735L337.341 15.6587L338.215 13.68L346.937 17.531L346.063 19.5097ZM349.814 21.1662L346.252 29.2347L343.505 28.0217L347.941 17.9745L354.838 21.0197L353.964 22.9984L349.814 21.1662ZM356.015 21.5398L358.801 22.7698L358.105 24.345C358.632 23.95 359.25 23.7104 359.961 23.6263C360.69 23.5349 361.407 23.6448 362.111 23.9558C363.379 24.5157 364.221 25.4156 364.638 26.6555C365.076 27.9508 364.936 29.4118 364.218 31.0383L364.15 31.1919C363.437 32.8056 362.458 33.8962 361.213 34.4635C360.018 35.0222 358.773 35.016 357.479 34.4448C356.737 34.1168 356.154 33.6683 355.732 33.0993C355.316 32.5175 355.086 31.9111 355.043 31.2801L352.855 36.2364L350.069 35.0065L356.015 21.5398ZM357.612 31.9093C358.38 32.2486 359.08 32.259 359.71 31.9404C360.346 31.6091 360.882 30.9504 361.317 29.9642L361.385 29.8106C361.826 28.8116 361.942 27.9598 361.733 27.2553C361.524 26.5507 361.054 26.0373 360.324 25.715C359.568 25.3813 358.851 25.3781 358.171 25.7052C357.509 26.0253 356.96 26.6783 356.525 27.6645L356.457 27.8182C356.022 28.8043 355.909 29.6497 356.118 30.3542C356.333 31.046 356.831 31.5643 357.612 31.9093ZM366.438 36.9312L366.429 26.1379L369.426 27.4612L369.202 34.5706L374.113 29.5309L376.783 30.71L365.401 41.7761L362.711 40.5885L366.438 36.9312ZM380.065 38.4261L375.082 41.9649L372.105 40.6501L377.908 36.7618L376.791 30.7132L379.653 31.9771L380.456 37.5424L382.381 33.1816L385.109 34.3861L383.175 38.7661L387.856 35.5991L390.699 36.8545L385.502 40.0462L386.551 47.0289L383.516 45.6887L382.81 39.5922L380.673 44.4333L377.945 43.2288L380.065 38.4261ZM389.911 48.7651C388.938 48.3353 388.255 47.7506 387.862 47.0109C387.428 46.1918 387.432 45.2827 387.873 44.2838C388.365 43.1696 389.219 42.552 390.435 42.4311C391.521 42.3289 392.884 42.6398 394.523 43.3636L395.656 43.8641L395.835 43.4607C396.117 42.8203 396.202 42.2991 396.089 41.8971C395.988 41.5008 395.631 41.1669 395.016 40.8955C394.03 40.46 393.251 40.6822 392.678 41.5621L390.047 40.4C390.621 39.3069 391.473 38.6424 392.603 38.4066C393.627 38.2008 394.786 38.3835 396.079 38.9547C397.373 39.5258 398.26 40.2543 398.742 41.1402C399.251 42.0999 399.218 43.2329 398.641 44.5392L395.748 51.09L393.04 49.894L393.574 48.6837C392.477 49.3317 391.256 49.3588 389.911 48.7651ZM391.594 47.1896C392.222 47.4666 392.811 47.5356 393.362 47.3964C393.913 47.2571 394.31 46.9122 394.554 46.3615L394.927 45.5162L393.851 45.0412C393.006 44.668 392.317 44.4941 391.786 44.5195C391.267 44.5506 390.895 44.8223 390.668 45.3346C390.312 46.1415 390.621 46.7598 391.594 47.1896ZM402.099 54.1468C400.537 53.4569 399.489 52.4509 398.956 51.1288C398.364 49.7656 398.416 48.2963 399.111 46.7211L399.179 46.5674C399.869 45.0049 400.928 43.9576 402.357 43.4253C403.749 42.9074 405.181 42.9736 406.654 43.6239C408.05 44.2403 409.012 45.147 409.539 46.344C410.129 47.676 410.048 49.1936 409.296 50.8969L408.957 51.6654L401.715 48.4675C401.38 49.3297 401.322 50.0846 401.541 50.7323C401.779 51.3728 402.282 51.8627 403.05 52.202C404.254 52.7336 405.158 52.5743 405.763 51.7243L408.395 52.8864C407.748 53.9014 406.878 54.5198 405.785 54.7413C404.711 54.9557 403.483 54.7575 402.099 54.1468ZM407.003 48.7596C407.575 47.2216 407.176 46.15 405.806 45.5449C405.178 45.2678 404.572 45.2373 403.987 45.4534C403.42 45.6623 402.927 46.1027 402.508 46.7747L407.003 48.7596ZM413.413 50.3041L410.24 57.4889L408.146 56.5643L412.583 46.5172L416.252 48.1373L415.807 55.3326L420.882 50.1816L424.301 51.6915L419.865 61.7386L417.137 60.5341L420.309 53.3494L414.371 59.3126L412.968 58.6934L413.413 50.3041ZM431.134 64.4418C431.915 64.7868 432.636 64.7836 433.296 64.4323C433.969 64.0867 434.517 63.4336 434.942 62.4731L435.001 62.3386C435.425 61.3781 435.538 60.5328 435.34 59.8026C435.161 59.0653 434.68 58.5241 433.899 58.1792C433.131 57.8399 432.41 57.843 431.737 58.1887C431.07 58.5215 430.524 59.1682 430.1 60.1287L430.032 60.2824C429.602 61.2557 429.48 62.1046 429.665 62.8292C429.85 63.5537 430.34 64.0912 431.134 64.4418ZM430.182 66.5465C428.645 65.8679 427.596 64.8463 427.036 63.4816C426.437 62.0999 426.479 60.6343 427.163 59.0846L427.231 58.9309C427.916 57.3813 428.978 56.3431 430.42 55.8165C431.825 55.3043 433.295 55.3874 434.832 56.066C436.382 56.7503 437.437 57.7747 437.997 59.1394C438.567 60.5539 438.515 62.0231 437.842 63.5471L437.774 63.7008C437.09 65.2505 436.027 66.2886 434.585 66.8152C433.199 67.3203 431.731 67.2308 430.182 66.5465ZM446.598 63.9011L443.063 62.3403L439.5 70.4088L436.753 69.1958L441.19 59.1486L450.219 63.1354L445.782 73.1825L443.035 71.9696L446.598 63.9011ZM459.058 69.4029L456.08 68.0881L452.518 76.1566L449.751 74.9351L453.314 66.8666L450.336 65.5519L451.21 63.5732L459.932 67.4242L459.058 69.4029ZM461.842 78.0009C462.623 78.3458 463.344 78.3427 464.004 77.9914C464.677 77.6457 465.225 76.9927 465.649 76.0321L465.709 75.8977C466.133 74.9371 466.246 74.0918 466.048 73.3616C465.868 72.6243 465.388 72.0832 464.607 71.7382C463.838 71.3989 463.118 71.4021 462.445 71.7477C461.778 72.0805 461.232 72.7272 460.808 73.6877L460.74 73.8414C460.31 74.8147 460.188 75.6637 460.373 76.3882C460.558 77.1127 461.048 77.6503 461.842 78.0009ZM460.889 80.1056C459.352 79.427 458.304 78.4053 457.743 77.0406C457.144 75.659 457.187 74.1933 457.871 72.6436L457.939 72.49C458.623 70.9403 459.686 69.9022 461.128 69.3756C462.532 68.8633 464.003 68.9464 465.54 69.625C467.09 70.3093 468.145 71.3338 468.705 72.6985C469.274 74.1129 469.223 75.5821 468.55 77.1062L468.482 77.2598C467.797 78.8095 466.735 79.8476 465.293 80.3742C463.907 80.8794 462.439 80.7898 460.889 80.1056ZM472.708 76.4862L469.536 83.6709L467.442 82.7463L471.878 72.6992L475.547 74.3193L475.102 81.5146L480.177 76.3636L483.597 77.8735L479.16 87.9206L476.432 86.7161L479.605 79.5314L473.666 85.4947L472.264 84.8754L472.708 76.4862ZM490.429 90.6238C491.211 90.9688 491.931 90.9656 492.591 90.6143C493.264 90.2687 493.813 89.6156 494.237 88.6551L494.296 88.5206C494.721 87.5601 494.834 86.7148 494.636 85.9846C494.456 85.2473 493.976 84.7061 493.195 84.3612C492.426 84.0219 491.706 84.025 491.033 84.3707C490.365 84.7035 489.82 85.3502 489.395 86.3107L489.328 86.4644C488.898 87.4377 488.776 88.2867 488.961 89.0112C489.146 89.7357 489.635 90.2732 490.429 90.6238ZM489.477 92.7285C487.94 92.0499 486.892 91.0283 486.331 89.6636C485.732 88.2819 485.775 86.8163 486.459 85.2666L486.527 85.1129C487.211 83.5633 488.274 82.5251 489.716 81.9986C491.12 81.4863 492.591 81.5694 494.128 82.248C495.677 82.9323 496.732 83.9567 497.293 85.3214C497.862 86.7359 497.81 88.2051 497.137 89.7291L497.069 89.8828C496.385 91.4325 495.322 92.4706 493.881 92.9972C492.495 93.5023 491.027 93.4128 489.477 92.7285ZM507.13 90.629L504.152 89.3142L500.589 97.3826L497.823 96.1612L501.386 88.0927L498.408 86.7779L499.282 84.7992L508.003 88.6503L507.13 90.629ZM515.228 91.1059L511.637 91.7009L512.807 89.0498L516.97 88.2018L519.698 89.4063L513.633 103.142L510.52 101.768L515.228 91.1059ZM522.961 104.598C524.844 105.429 526.427 104.391 527.71 101.484L527.982 100.869C529.254 97.9877 528.936 96.1256 527.028 95.283C525.094 94.4291 523.491 95.443 522.219 98.3245L521.93 98.9777C520.658 101.859 521.001 103.733 522.961 104.598ZM521.807 107.004C519.963 106.189 518.781 104.948 518.263 103.281C517.7 101.609 517.882 99.7231 518.81 97.6228L519.098 96.9696C520.02 94.882 521.306 93.4759 522.958 92.7512C524.572 92.0408 526.276 92.0815 528.069 92.8732C529.862 93.6649 531.048 94.8774 531.628 96.5107C532.198 98.2009 532.019 100.096 531.092 102.197L530.812 102.83C529.884 104.931 528.618 106.361 527.012 107.121C525.373 107.852 523.638 107.812 521.807 107.004ZM536.305 110.49C538.187 111.321 539.771 110.283 541.054 107.376L541.326 106.761C542.598 103.88 542.28 102.018 540.372 101.175C538.438 100.321 536.835 101.335 535.562 104.217L535.274 104.87C534.002 107.751 534.345 109.625 536.305 110.49ZM535.151 112.896C533.306 112.081 532.125 110.84 531.606 109.173C531.044 107.501 531.226 105.615 532.153 103.515L532.442 102.862C533.364 100.774 534.65 99.3679 536.302 98.6432C537.916 97.9329 539.62 97.9735 541.413 98.7652C543.206 99.5569 544.392 100.769 544.972 102.403C545.542 104.093 545.363 105.988 544.436 108.089L544.156 108.723C543.228 110.823 541.962 112.253 540.356 113.013C538.717 113.744 536.982 113.704 535.151 112.896ZM549.649 116.382C551.531 117.213 553.114 116.175 554.398 113.268L554.67 112.653C555.942 109.772 555.624 107.91 553.716 107.067C551.782 106.213 550.179 107.227 548.906 110.109L548.618 110.762C547.346 113.643 547.689 115.517 549.649 116.382ZM548.495 118.788C546.65 117.973 545.469 116.732 544.95 115.065C544.388 113.393 544.57 111.507 545.497 109.407L545.786 108.754C546.708 106.666 547.994 105.26 549.646 104.535C551.26 103.825 552.964 103.866 554.757 104.657C556.55 105.449 557.736 106.661 558.316 108.295C558.886 109.985 558.707 111.88 557.779 113.981L557.499 114.615C556.572 116.715 555.305 118.145 553.7 118.905C552.061 119.636 550.326 119.596 548.495 118.788ZM564.345 113.528L567.092 114.741L563.529 122.809L566.161 123.971L569.724 115.903L572.471 117.116L568.908 125.184L571.54 126.347L575.103 118.278L577.85 119.491L573.413 129.538L559.908 123.575L564.345 113.528ZM586.697 125.762L583.719 124.447L580.157 132.516L577.39 131.294L580.953 123.226L577.975 121.911L578.849 119.932L587.571 123.783L586.697 125.762Z" fill="white"/>
<path d="M607.244 129.092C606.591 130.571 604.87 131.243 603.4 130.594C601.93 129.945 601.267 128.22 601.92 126.741C602.573 125.263 604.294 124.59 605.764 125.239C607.234 125.888 607.897 127.613 607.244 129.092Z" fill="white"/>
<path d="M597.943 139.069C593.101 136.931 590.919 131.249 593.07 126.378L594.939 122.145C599.781 124.284 601.963 129.965 599.813 134.836L597.943 139.069Z" fill="white"/>
<path d="M612.105 133.097C607.263 130.959 601.594 133.174 599.443 138.045L597.574 142.278C602.416 144.416 608.085 142.201 610.236 137.33L612.105 133.097Z" fill="white"/>
<path d="M618.553 147.197C619.334 147.542 620.055 147.539 620.715 147.188C621.388 146.842 621.936 146.189 622.361 145.228L622.42 145.094C622.844 144.133 622.957 143.288 622.759 142.558C622.58 141.82 622.099 141.279 621.318 140.934C620.55 140.595 619.829 140.598 619.156 140.944C618.489 141.277 617.943 141.923 617.519 142.884L617.451 143.038C617.021 144.011 616.899 144.86 617.084 145.584C617.269 146.309 617.759 146.846 618.553 147.197ZM617.601 149.302C616.064 148.623 615.015 147.601 614.455 146.237C613.856 144.855 613.898 143.389 614.583 141.84L614.65 141.686C615.335 140.136 616.398 139.098 617.839 138.572C619.244 138.059 620.714 138.143 622.251 138.821C623.801 139.505 624.856 140.53 625.417 141.895C625.986 143.309 625.934 144.778 625.261 146.302L625.193 146.456C624.509 148.006 623.446 149.044 622.004 149.57C620.618 150.076 619.15 149.986 617.601 149.302ZM635.253 147.202L632.276 145.887L628.713 153.956L625.947 152.734L629.509 144.666L626.532 143.351L627.405 141.372L636.127 145.223L635.253 147.202ZM639.005 148.859L635.442 156.927L632.695 155.714L637.131 145.667L644.028 148.712L643.154 150.691L639.005 148.859ZM645.206 149.232L647.991 150.462L647.296 152.037C647.822 151.642 648.441 151.403 649.151 151.319C649.88 151.227 650.597 151.337 651.301 151.648C652.569 152.208 653.411 153.108 653.828 154.348C654.266 155.643 654.126 157.104 653.408 158.731L653.34 158.884C652.628 160.498 651.649 161.589 650.403 162.156C649.208 162.715 647.963 162.708 646.67 162.137C645.927 161.809 645.344 161.361 644.922 160.792C644.506 160.21 644.276 159.603 644.233 158.972L642.045 163.929L639.259 162.699L645.206 149.232ZM646.802 159.602C647.571 159.941 648.27 159.951 648.9 159.633C649.536 159.301 650.072 158.643 650.508 157.657L650.575 157.503C651.017 156.504 651.132 155.652 650.923 154.948C650.714 154.243 650.244 153.73 649.514 153.407C648.759 153.074 648.041 153.07 647.361 153.398C646.699 153.718 646.151 154.371 645.715 155.357L645.647 155.511C645.212 156.497 645.099 157.342 645.308 158.047C645.523 158.738 646.021 159.257 646.802 159.602ZM655.628 164.624L655.619 153.83L658.616 155.154L658.392 162.263L663.303 157.223L665.974 158.402L654.591 169.468L651.901 168.281L655.628 164.624ZM669.256 166.118L664.273 169.657L661.295 168.342L667.098 164.454L665.981 158.406L668.843 159.669L669.646 165.235L671.571 160.874L674.299 162.078L672.365 166.459L677.046 163.291L679.89 164.547L674.692 167.739L675.741 174.721L672.706 173.381L672.001 167.285L669.863 172.126L667.135 170.921L669.256 166.118ZM679.101 176.457C678.128 176.028 677.445 175.443 677.052 174.703C676.618 173.884 676.622 172.975 677.063 171.976C677.555 170.862 678.409 170.244 679.626 170.123C680.711 170.021 682.074 170.332 683.713 171.056L684.847 171.556L685.025 171.153C685.308 170.513 685.392 169.992 685.279 169.59C685.179 169.193 684.821 168.859 684.206 168.588C683.22 168.152 682.441 168.375 681.869 169.254L679.237 168.092C679.811 166.999 680.663 166.335 681.793 166.099C682.817 165.893 683.976 166.076 685.27 166.647C686.563 167.218 687.451 167.947 687.932 168.833C688.442 169.792 688.408 170.925 687.831 172.232L684.939 178.782L682.23 177.586L682.764 176.376C681.667 177.024 680.446 177.051 679.101 176.457ZM680.784 174.882C681.412 175.159 682.001 175.228 682.552 175.089C683.104 174.95 683.501 174.605 683.744 174.054L684.117 173.209L683.041 172.734C682.196 172.36 681.508 172.186 680.976 172.212C680.457 172.243 680.085 172.515 679.859 173.027C679.502 173.834 679.811 174.452 680.784 174.882ZM691.29 181.839C689.727 181.149 688.679 180.143 688.146 178.821C687.554 177.458 687.606 175.989 688.302 174.413L688.369 174.26C689.059 172.697 690.119 171.65 691.547 171.118C692.939 170.6 694.371 170.666 695.844 171.316C697.24 171.933 698.202 172.839 698.729 174.036C699.32 175.368 699.239 176.886 698.487 178.589L698.147 179.358L690.905 176.16C690.57 177.022 690.512 177.777 690.731 178.425C690.969 179.065 691.472 179.555 692.24 179.894C693.444 180.426 694.348 180.267 694.953 179.417L697.585 180.579C696.938 181.594 696.068 182.212 694.976 182.434C693.902 182.648 692.673 182.45 691.29 181.839ZM696.194 176.452C696.766 174.914 696.366 173.842 694.996 173.237C694.368 172.96 693.762 172.93 693.177 173.146C692.61 173.355 692.117 173.795 691.698 174.467L696.194 176.452ZM702.603 177.997L699.431 185.181L697.337 184.257L701.773 174.21L705.442 175.83L704.997 183.025L710.072 177.874L713.491 179.384L709.055 189.431L706.327 188.227L709.5 181.042L703.561 187.005L702.159 186.386L702.603 177.997ZM720.324 192.134C721.105 192.479 721.826 192.476 722.486 192.125C723.159 191.779 723.708 191.126 724.132 190.165L724.191 190.031C724.615 189.07 724.728 188.225 724.53 187.495C724.351 186.758 723.871 186.217 723.089 185.872C722.321 185.532 721.6 185.535 720.927 185.881C720.26 186.214 719.714 186.861 719.29 187.821L719.222 187.975C718.793 188.948 718.67 189.797 718.855 190.522C719.041 191.246 719.53 191.784 720.324 192.134ZM719.372 194.239C717.835 193.56 716.786 192.539 716.226 191.174C715.627 189.792 715.67 188.327 716.354 186.777L716.422 186.623C717.106 185.074 718.169 184.036 719.61 183.509C721.015 182.997 722.486 183.08 724.023 183.758C725.572 184.443 726.627 185.467 727.188 186.832C727.757 188.246 727.705 189.715 727.032 191.24L726.964 191.393C726.28 192.943 725.217 193.981 723.776 194.508C722.389 195.013 720.922 194.923 719.372 194.239ZM735.788 191.593L732.253 190.033L728.691 198.101L725.944 196.888L730.38 186.841L739.409 190.828L734.973 200.875L732.226 199.662L735.788 191.593ZM748.248 197.095L745.271 195.781L741.708 203.849L738.942 202.627L742.504 194.559L739.527 193.244L740.4 191.266L749.122 195.117L748.248 197.095ZM751.032 205.693C751.813 206.038 752.534 206.035 753.194 205.684C753.867 205.338 754.415 204.685 754.84 203.725L754.899 203.59C755.323 202.63 755.436 201.784 755.238 201.054C755.059 200.317 754.578 199.776 753.797 199.431C753.029 199.091 752.308 199.094 751.635 199.44C750.968 199.773 750.422 200.42 749.998 201.38L749.93 201.534C749.5 202.507 749.378 203.356 749.563 204.081C749.748 204.805 750.238 205.343 751.032 205.693ZM750.08 207.798C748.543 207.119 747.494 206.098 746.934 204.733C746.335 203.351 746.377 201.886 747.061 200.336L747.129 200.182C747.814 198.633 748.876 197.595 750.318 197.068C751.723 196.556 753.193 196.639 754.73 197.317C756.28 198.002 757.335 199.026 757.895 200.391C758.465 201.805 758.413 203.275 757.74 204.799L757.672 204.952C756.988 206.502 755.925 207.54 754.483 208.067C753.097 208.572 751.629 208.482 750.08 207.798ZM761.899 204.179L758.726 211.363L756.632 210.439L761.068 200.392L764.738 202.012L764.292 209.207L769.367 204.056L772.787 205.566L768.351 215.613L765.623 214.409L768.795 207.224L762.856 213.187L761.454 212.568L761.899 204.179ZM779.62 218.316C780.401 218.661 781.122 218.658 781.782 218.307C782.455 217.961 783.003 217.308 783.427 216.347L783.487 216.213C783.911 215.252 784.024 214.407 783.826 213.677C783.647 212.94 783.166 212.399 782.385 212.054C781.617 211.714 780.896 211.717 780.223 212.063C779.556 212.396 779.01 213.043 778.586 214.003L778.518 214.157C778.088 215.13 777.966 215.979 778.151 216.704C778.336 217.428 778.826 217.966 779.62 218.316ZM778.667 220.421C777.131 219.742 776.082 218.721 775.521 217.356C774.922 215.974 774.965 214.509 775.649 212.959L775.717 212.805C776.401 211.256 777.464 210.218 778.906 209.691C780.31 209.179 781.781 209.262 783.318 209.94C784.868 210.625 785.923 211.649 786.483 213.014C787.052 214.428 787.001 215.897 786.328 217.422L786.26 217.575C785.576 219.125 784.513 220.163 783.071 220.69C781.685 221.195 780.217 221.105 778.667 220.421ZM796.32 218.321L793.342 217.007L789.78 225.075L787.013 223.854L790.576 215.785L787.598 214.47L788.472 212.492L797.194 216.343L796.32 218.321ZM804.419 218.798L800.827 219.393L801.998 216.742L806.16 215.894L808.888 217.099L802.823 230.834L799.711 229.46L804.419 218.798ZM812.151 232.29C814.034 233.122 815.617 232.084 816.901 229.176L817.172 228.562C818.444 225.68 818.126 223.818 816.218 222.975C814.284 222.121 812.681 223.135 811.409 226.017L811.12 226.67C809.848 229.552 810.192 231.425 812.151 232.29ZM810.997 234.696C809.153 233.882 807.971 232.641 807.453 230.973C806.89 229.302 807.072 227.415 808 225.315L808.288 224.662C809.21 222.574 810.497 221.168 812.148 220.444C813.763 219.733 815.466 219.774 817.259 220.566C819.052 221.357 820.239 222.57 820.818 224.203C821.388 225.893 821.209 227.789 820.282 229.889L820.002 230.523C819.075 232.623 817.808 234.053 816.202 234.814C814.563 235.544 812.828 235.505 810.997 234.696ZM825.495 238.182C827.378 239.014 828.961 237.976 830.245 235.068L830.516 234.454C831.788 231.572 831.47 229.71 829.562 228.867C827.628 228.013 826.025 229.027 824.753 231.909L824.464 232.562C823.192 235.444 823.536 237.317 825.495 238.182ZM824.341 240.588C822.497 239.774 821.315 238.533 820.797 236.865C820.234 235.194 820.416 233.308 821.344 231.207L821.632 230.554C822.554 228.466 823.841 227.06 825.492 226.336C827.106 225.625 828.81 225.666 830.603 226.458C832.396 227.249 833.583 228.462 834.162 230.095C834.732 231.785 834.553 233.681 833.626 235.781L833.346 236.415C832.418 238.515 831.152 239.945 829.546 240.706C827.907 241.436 826.172 241.397 824.341 240.588ZM838.839 244.074C840.722 244.906 842.305 243.868 843.588 240.96L843.86 240.346C845.132 237.464 844.814 235.602 842.906 234.759C840.972 233.905 839.369 234.919 838.097 237.801L837.808 238.454C836.536 241.336 836.879 243.209 838.839 244.074ZM837.685 246.48C835.841 245.666 834.659 244.425 834.141 242.757C833.578 241.086 833.76 239.2 834.688 237.099L834.976 236.446C835.898 234.358 837.184 232.952 838.836 232.228C840.45 231.517 842.154 231.558 843.947 232.35C845.74 233.141 846.926 234.354 847.506 235.987C848.076 237.677 847.897 239.573 846.97 241.673L846.69 242.307C845.762 244.407 844.496 245.837 842.89 246.598C841.251 247.328 839.516 247.289 837.685 246.48ZM853.535 241.22L856.282 242.433L852.72 250.502L855.351 251.664L858.914 243.595L861.661 244.808L858.098 252.877L860.73 254.039L864.293 245.97L867.04 247.183L862.604 257.231L849.099 251.267L853.535 241.22ZM875.887 253.454L872.909 252.14L869.347 260.208L866.581 258.987L870.143 250.918L867.165 249.603L868.039 247.625L876.761 251.476L875.887 253.454Z" fill="white"/>
</g>
<path d="M963.653 124.914C963.653 123.57 963 122.517 961.086 122.517H954.512V130.604H956.335V127.759H960.546C961.491 127.759 961.739 128.023 961.739 128.968V130.604H963.563V128.678C963.563 127.717 963.22 127.153 962.46 126.961C963.251 126.695 963.653 125.933 963.653 124.914ZM960.839 126.059H956.335V124.22H960.839C961.514 124.22 961.829 124.578 961.829 125.116C961.829 125.653 961.559 126.056 960.839 126.056V126.059ZM1034.19 132.401H1034.86V140.484H1033.04V134.749L1029.28 140.484H1027.19V132.397H1029.01V137.931L1031.76 133.696C1032.46 132.62 1033.06 132.397 1034.19 132.397V132.401ZM998.595 130.604V128.88C999.338 128.88 999.518 128.431 999.676 126.93L1000.17 122.517H1006.7V130.604H1004.88V124.22H1001.73L1001.41 127.311C1001.14 129.977 1000.42 130.694 998.595 130.604ZM951 144H967.075V119H951V144ZM952.756 120.746H965.319V142.254H952.756V120.746ZM961.739 132.397H963.563V140.484H957.728C955.386 140.484 954.508 139.61 954.508 137.28V132.397H956.332V137.321C956.332 138.352 956.737 138.777 957.683 138.777H961.735L961.739 132.397ZM1010.23 127.896H1014.26V130.607H1016.09V122.517H1011.41C1009.11 122.517 1008.41 123.144 1008.41 125.496V130.605H1010.23V127.896ZM1011.41 124.223H1014.26V126.213H1010.23V125.496C1010.23 124.578 1010.35 124.22 1011.41 124.22V124.223ZM989.656 127.624V125.496C989.656 123.166 990.31 122.517 992.651 122.517H997.424V124.22H992.561C991.615 124.22 991.48 124.377 991.48 125.407V125.676H996.096V127.356H991.48V127.714C991.48 128.745 991.615 128.902 992.561 128.902H997.492V130.604H992.651C990.31 130.604 989.656 129.932 989.656 127.624ZM1032.01 122.515H1030C1027.68 122.515 1027.01 123.165 1027.01 125.494V127.624C1027.01 129.932 1027.91 130.604 1030.23 130.604H1031.78C1034.12 130.604 1035 129.932 1035 127.624V125.496C1035 123.166 1034.35 122.517 1032.01 122.517V122.515ZM1033.18 127.624C1033.18 128.655 1032.95 128.902 1032.01 128.902H1030C1029.06 128.902 1028.83 128.655 1028.83 127.624V125.496C1028.83 124.466 1029.06 124.22 1030 124.22H1032.01C1032.95 124.22 1033.18 124.466 1033.18 125.496V127.624ZM1001.95 132.397H1006.95V133.404C1006.95 134.211 1006.88 134.883 1006.7 135.488H1005.15V134.098H1001.95C1001 134.098 1000.78 134.345 1000.78 135.376V137.504C1000.78 138.534 1001 138.781 1001.95 138.781H1006.95V140.484H1001.95C999.631 140.484 998.955 139.812 998.955 137.504V135.376C998.955 133.046 999.631 132.397 1001.95 132.397ZM987.608 122.517H980.969L980.564 126.617C980.361 128.566 980.068 128.88 979.528 128.88H979.417V131.366H981.15L981.217 130.336H986.576L986.643 131.366H988.377V128.857H987.611L987.608 122.517ZM982.569 124.22H985.784V128.655H981.884C982.133 128.222 982.238 127.617 982.317 126.84L982.569 124.22ZM994.678 132.397H992.518C990.2 132.397 989.524 133.046 989.524 135.376V137.504C989.524 139.812 990.2 140.484 992.518 140.484H994.68C997.022 140.484 997.674 139.812 997.674 137.504V135.376C997.671 133.046 997.019 132.397 994.678 132.397ZM995.848 137.506C995.848 138.536 995.623 138.783 994.678 138.783H992.518C991.573 138.783 991.348 138.536 991.348 137.506V135.376C991.348 134.345 991.573 134.098 992.518 134.098H994.68C995.626 134.098 995.851 134.345 995.851 135.376L995.848 137.506ZM1011.22 132.397H1016.24V133.404C1016.24 134.211 1016.18 134.883 1016 135.488H1014.44V134.098H1011.22C1010.28 134.098 1010.05 134.345 1010.05 135.376V137.504C1010.05 138.534 1010.28 138.781 1011.22 138.781H1016.24V140.484H1011.22C1008.91 140.484 1008.23 139.812 1008.23 137.504V135.376C1008.23 133.046 1008.91 132.397 1011.22 132.397ZM977.099 136.21C977.527 135.95 977.882 135.399 977.882 134.547C977.882 133.449 977.251 132.397 975.383 132.397H970.61V140.484H975.568C977.368 140.484 978.246 139.565 978.246 138.064C978.242 137.057 977.659 136.46 977.099 136.21ZM976.058 134.815C976.058 135.309 975.81 135.577 975.18 135.577H972.436V134.121H975.18C975.81 134.121 976.058 134.345 976.058 134.815V134.815ZM975.585 138.779H972.434V137.212H975.585C976.193 137.212 976.418 137.504 976.418 137.974C976.418 138.445 976.193 138.781 975.585 138.781V138.779ZM1023.65 122.515H1025.48V130.602H1023.65V127.356H1019.62V130.604H1017.8V122.517H1019.62V125.653H1023.65L1023.65 122.515ZM973.336 122.515H978.311V123.525C978.311 124.332 978.244 125.004 978.064 125.609H976.509V124.22H973.334C972.389 124.22 972.163 124.466 972.163 125.496V127.624C972.163 128.655 972.389 128.902 973.334 128.902H978.309V130.604H973.334C971.015 130.604 970.339 129.932 970.339 127.624V125.496C970.339 123.166 971.015 122.517 973.334 122.517L973.336 122.515ZM1024.8 132.397H1025.48V140.484H1023.65V134.749L1019.89 140.484H1017.8V132.397H1019.62V137.931L1022.37 133.696C1023.07 132.62 1023.68 132.397 1024.8 132.397ZM985.559 132.397H980.248V133.982L981.193 134.117V140.484H983.017V138.4H985.561C987.655 138.4 988.375 137.343 988.375 135.712V135.084C988.374 133.539 987.698 132.397 985.559 132.397ZM986.572 135.648C986.572 136.41 986.279 136.705 985.559 136.705H983.015V134.098H985.559C986.279 134.098 986.572 134.457 986.572 135.155V135.648Z" fill="#212121"/>
</svg>
