<svg width="26" height="26" viewBox="0 0 26 26" fill="none" xmlns="http://www.w3.org/2000/svg">
<rect width="26" height="26" rx="10" fill="#EB5757"/>
<path d="M20.4885 20.1484H14.9283C16.8351 19.4163 18.2398 17.666 18.4642 15.5637H19.0097C20.1073 15.5637 21 14.671 21 13.5737C21 12.4766 20.107 11.5835 19.0097 11.5835H18.0916H7.80273C7.57884 11.5835 7.39715 11.7651 7.39715 11.989V14.9704C7.39715 17.3319 8.88221 19.3483 10.9657 20.1484H5.40559C5.18169 20.1484 5 20.3301 5 20.554C5 20.7778 5.18164 20.9595 5.40559 20.9595H20.4883C20.7123 20.9595 20.8939 20.7778 20.8939 20.554C20.8939 20.3301 20.7125 20.1484 20.4885 20.1484ZM20.1889 13.5734C20.1889 14.2235 19.6603 14.7523 19.0097 14.7523H18.4972V12.3944H19.0097C19.6603 12.3944 20.1889 12.9232 20.1889 13.5734Z" fill="white"/>
<path d="M9.81536 7.51038C10.2867 7.70931 10.5592 7.9402 10.5824 8.16028C10.6167 8.48584 10.168 8.91228 9.94485 9.06767C9.76092 9.19506 9.71475 9.4471 9.84213 9.63112C9.92084 9.74531 10.0476 9.8063 10.1763 9.8063C10.2555 9.8063 10.3357 9.78308 10.4061 9.73449C10.5165 9.65847 11.4808 8.96601 11.3894 8.07819C11.3338 7.53386 10.9103 7.0916 10.1407 6.76683C9.9397 6.67577 9.71343 6.48075 9.71554 6.40103C9.71554 6.39853 9.76149 6.15603 10.6265 5.82514C10.8354 5.74476 10.9404 5.51044 10.8604 5.30118C10.7805 5.09232 10.5467 4.98749 10.3364 5.06725C9.38866 5.43002 8.92038 5.8583 8.90468 6.37632C8.88397 7.06768 9.71106 7.46334 9.81536 7.51038Z" fill="white"/>
<path d="M12.6126 7.51038C13.0837 7.70931 13.3563 7.9402 13.3796 8.16028C13.4139 8.48584 12.9651 8.91228 12.7421 9.06767C12.5582 9.19506 12.512 9.4471 12.6392 9.63112C12.7179 9.74531 12.8448 9.8063 12.9735 9.8063C13.0527 9.8063 13.1329 9.78308 13.2033 9.73449C13.3136 9.65847 14.278 8.96601 14.1866 8.07819C14.1307 7.53386 13.7075 7.0916 12.9377 6.76683C12.737 6.67577 12.5106 6.48075 12.5128 6.40103C12.5128 6.39853 12.5587 6.15603 13.4237 5.82514C13.6328 5.74476 13.7373 5.51044 13.6576 5.30118C13.5779 5.09232 13.3438 4.98749 13.1335 5.06725C12.1859 5.43002 11.7177 5.8583 11.7019 6.37632C11.6808 7.06768 12.5081 7.46334 12.6126 7.51038Z" fill="white"/>
<path d="M15.3333 7.51038C15.805 7.70931 16.0776 7.9402 16.1008 8.16028C16.1351 8.48584 15.6861 8.91228 15.463 9.06767C15.2789 9.19506 15.2329 9.4471 15.3602 9.63112C15.439 9.74531 15.5657 9.8063 15.6946 9.8063C15.7738 9.8063 15.8541 9.78308 15.9246 9.73449C16.0348 9.65847 16.9992 8.96601 16.9081 8.07819C16.8521 7.53386 16.4288 7.0916 15.659 6.76683C15.458 6.67577 15.2313 6.48075 15.234 6.40103C15.234 6.39853 15.28 6.15603 16.1452 5.82514C16.3541 5.74476 16.4586 5.51044 16.3789 5.30118C16.2988 5.09232 16.0648 4.98749 15.8546 5.06725C14.9065 5.43002 14.4382 5.8583 14.4226 6.37632C14.4016 7.06768 15.2293 7.46334 15.3333 7.51038Z" fill="white"/>
</svg>
