<svg width="26" height="26" viewBox="0 0 26 26" fill="none" xmlns="http://www.w3.org/2000/svg">
<rect width="26" height="26" rx="10" fill="#2D9CDB"/>
<path d="M12.9998 21C12.8672 21 12.74 20.9473 12.6463 20.8536C12.5525 20.7598 12.4998 20.6326 12.4998 20.5V19.207L11.8538 19.854C11.7599 19.9478 11.6327 20.0004 11.5 20.0003C11.3673 20.0002 11.2401 19.9474 11.1463 19.8535C11.0526 19.7596 11 19.6323 11 19.4996C11.0001 19.367 11.0529 19.2398 11.1468 19.146L12.4998 17.793V13.866L9.09983 15.829L8.60383 17.679C8.56935 17.8071 8.48539 17.9163 8.37043 17.9825C8.25547 18.0487 8.11893 18.0665 7.99083 18.032C7.86273 17.9975 7.75357 17.9136 7.68737 17.7986C7.62117 17.6836 7.60335 17.5471 7.63783 17.419L7.87483 16.537L6.75483 17.183C6.64005 17.2483 6.50411 17.2655 6.37669 17.2309C6.24927 17.1963 6.14071 17.1127 6.07469 16.9983C6.00867 16.884 5.99056 16.7482 6.02431 16.6205C6.05805 16.4929 6.14092 16.3838 6.25483 16.317L7.37483 15.671L6.49083 15.434C6.4274 15.4169 6.36795 15.3875 6.31589 15.3475C6.26382 15.3074 6.22015 15.2575 6.18737 15.2006C6.15459 15.1437 6.13334 15.0809 6.12484 15.0157C6.11634 14.9506 6.12075 14.8844 6.13783 14.821C6.1549 14.7576 6.1843 14.6981 6.22434 14.6461C6.26439 14.594 6.31429 14.5503 6.37122 14.5175C6.42814 14.4848 6.49096 14.4635 6.55609 14.455C6.62123 14.4465 6.6874 14.4509 6.75083 14.468L8.59883 14.963L11.9998 13L8.59983 11.037L6.74983 11.532C6.62256 11.5637 6.48793 11.5442 6.37495 11.4775C6.26196 11.4109 6.17968 11.3026 6.14584 11.1759C6.112 11.0491 6.1293 10.9142 6.19402 10.8001C6.25874 10.686 6.36569 10.602 6.49183 10.566L7.37483 10.329L6.25483 9.683C6.1975 9.65041 6.14719 9.6068 6.10679 9.55469C6.06639 9.50257 6.0367 9.44298 6.01942 9.37935C6.00214 9.31571 5.99762 9.24928 6.00612 9.18389C6.01462 9.1185 6.03597 9.05544 6.06894 8.99834C6.10191 8.94123 6.14585 8.89121 6.19824 8.85116C6.25062 8.8111 6.3104 8.7818 6.37415 8.76495C6.4379 8.7481 6.50436 8.74402 6.56969 8.75295C6.63502 8.76188 6.69794 8.78365 6.75483 8.817L7.87483 9.463L7.63783 8.58C7.61963 8.51618 7.61432 8.44937 7.62221 8.38348C7.6301 8.31758 7.65103 8.25392 7.68378 8.1962C7.71652 8.13847 7.76044 8.08785 7.81295 8.04727C7.86546 8.00669 7.92553 7.97697 7.98965 7.95985C8.05377 7.94272 8.12065 7.93854 8.1864 7.94753C8.25216 7.95652 8.31546 7.97851 8.37263 8.01222C8.4298 8.04593 8.47968 8.09068 8.51937 8.14386C8.55907 8.19705 8.58778 8.2576 8.60383 8.322L9.09883 10.171L12.4998 12.134V8.207L11.1468 6.854C11.1003 6.80758 11.0634 6.75245 11.0383 6.69177C11.0131 6.6311 11.0001 6.56605 11 6.50035C11 6.43466 11.0129 6.36959 11.038 6.30888C11.0631 6.24816 11.0999 6.19299 11.1463 6.1465C11.1927 6.10001 11.2479 6.06312 11.3086 6.03794C11.3692 6.01275 11.4343 5.99977 11.5 5.99972C11.5657 5.99968 11.6307 6.01257 11.6914 6.03767C11.7522 6.06277 11.8073 6.09958 11.8538 6.146L12.4998 6.793V5.5C12.4998 5.36739 12.5525 5.24021 12.6463 5.14645C12.74 5.05268 12.8672 5 12.9998 5C13.1324 5 13.2596 5.05268 13.3534 5.14645C13.4471 5.24021 13.4998 5.36739 13.4998 5.5V6.793L14.1468 6.146C14.2407 6.05225 14.368 5.99963 14.5007 5.99972C14.6334 5.99982 14.7606 6.05261 14.8543 6.1465C14.9481 6.24039 15.0007 6.36767 15.0006 6.50035C15.0005 6.63304 14.9477 6.76025 14.8538 6.854L13.4998 8.207V12.134L16.8998 10.171L17.3958 8.321C17.4303 8.1929 17.5143 8.08374 17.6292 8.01754C17.7442 7.95134 17.8807 7.93352 18.0088 7.968C18.1369 8.00248 18.2461 8.08643 18.3123 8.20139C18.3785 8.31635 18.3963 8.4529 18.3618 8.581L18.1258 9.463L19.2458 8.817C19.3606 8.75174 19.4965 8.73453 19.624 8.76913C19.7514 8.80372 19.8599 8.88731 19.926 9.00165C19.992 9.116 20.0101 9.25181 19.9763 9.37946C19.9426 9.50711 19.8597 9.61622 19.7458 9.683L18.6258 10.329L19.5088 10.566C19.6369 10.6005 19.7461 10.6844 19.8123 10.7994C19.8785 10.9144 19.8963 11.0509 19.8618 11.179C19.8273 11.3071 19.7434 11.4163 19.6284 11.4825C19.5135 11.5487 19.3769 11.5665 19.2488 11.532L17.4008 11.037L13.9998 13L17.3998 14.963L19.2488 14.468C19.3769 14.4337 19.5134 14.4516 19.6283 14.5179C19.7432 14.5842 19.827 14.6934 19.8613 14.8215C19.8957 14.9496 19.8777 15.0861 19.8114 15.201C19.7451 15.3158 19.6359 15.3997 19.5078 15.434L18.6248 15.671L19.7448 16.317C19.8587 16.3838 19.9416 16.4929 19.9753 16.6205C20.0091 16.7482 19.991 16.884 19.925 16.9983C19.8589 17.1127 19.7504 17.1963 19.623 17.2309C19.4955 17.2655 19.3596 17.2483 19.2448 17.183L18.1248 16.537L18.3608 17.42C18.379 17.4838 18.3843 17.5506 18.3764 17.6165C18.3685 17.6824 18.3476 17.7461 18.3149 17.8038C18.2821 17.8615 18.2382 17.9122 18.1857 17.9527C18.1332 17.9933 18.0731 18.023 18.009 18.0402C17.9449 18.0573 17.878 18.0615 17.8122 18.0525C17.7465 18.0435 17.6832 18.0215 17.626 17.9878C17.5689 17.9541 17.519 17.9093 17.4793 17.8561C17.4396 17.803 17.4109 17.7424 17.3948 17.678L16.8998 15.829L13.4998 13.866V17.793L14.8528 19.146C14.9467 19.2398 14.9995 19.367 14.9996 19.4996C14.9997 19.6323 14.9471 19.7596 14.8533 19.8535C14.7596 19.9474 14.6324 20.0002 14.4997 20.0003C14.367 20.0004 14.2397 19.9478 14.1458 19.854L13.4988 19.207V20.5C13.4988 20.6326 13.4461 20.7598 13.3524 20.8536C13.2586 20.9473 13.1314 21 12.9988 21H12.9998Z" fill="white"/>
</svg>
