<svg width="26" height="26" viewBox="0 0 26 26" fill="none" xmlns="http://www.w3.org/2000/svg">
<rect width="26" height="26" rx="10" fill="#F2994A"/>
<path d="M9.66683 19.6666H7.66683C7.31321 19.6666 6.97407 19.5261 6.72402 19.2761C6.47397 19.026 6.3335 18.6869 6.3335 18.3333V13.6666C6.3335 13.313 6.47397 12.9738 6.72402 12.7238C6.97407 12.4737 7.31321 12.3333 7.66683 12.3333H9.66683M14.3335 10.9999V8.33325C14.3335 7.80282 14.1228 7.29411 13.7477 6.91904C13.3726 6.54397 12.8639 6.33325 12.3335 6.33325L9.66683 12.3333V19.6666H17.1868C17.5084 19.6702 17.8204 19.5575 18.0654 19.3493C18.3105 19.141 18.4719 18.8512 18.5202 18.5333L19.4402 12.5333C19.4692 12.3422 19.4563 12.147 19.4024 11.9614C19.3485 11.7758 19.2549 11.6041 19.1281 11.4583C19.0012 11.3124 18.8442 11.1959 18.6679 11.1167C18.4915 11.0376 18.3001 10.9977 18.1068 10.9999H14.3335Z" stroke="white" stroke-width="1.5" stroke-linecap="round" stroke-linejoin="round"/>
</svg>
